<?xml version="1.0" encoding="UTF-8" standalone="no"?>
<!-- Generator: Adobe Illustrator 19.0.0, SVG Export Plug-In . SVG Version: 6.00 Build 0)  -->

<svg
   xmlns:dc="http://purl.org/dc/elements/1.1/"
   xmlns:cc="http://creativecommons.org/ns#"
   xmlns:rdf="http://www.w3.org/1999/02/22-rdf-syntax-ns#"
   xmlns:svg="http://www.w3.org/2000/svg"
   xmlns="http://www.w3.org/2000/svg"
   xmlns:sodipodi="http://sodipodi.sourceforge.net/DTD/sodipodi-0.dtd"
   xmlns:inkscape="http://www.inkscape.org/namespaces/inkscape"
   version="1.1"
   id="Layer_1"
   x="0px"
   y="0px"
   viewBox="0 0 20 20"
   xml:space="preserve"
   sodipodi:docname="delete.svg"
   width="20"
   height="20"
   inkscape:version="0.92.3 (5aff6ba, 2018-11-25)"><metadata
   id="metadata1093"><rdf:RDF><cc:Work
       rdf:about=""><dc:format>image/svg+xml</dc:format><dc:type
         rdf:resource="http://purl.org/dc/dcmitype/StillImage" /><dc:title></dc:title></cc:Work></rdf:RDF></metadata><defs
   id="defs1091" /><sodipodi:namedview
   pagecolor="#ffffff"
   bordercolor="#666666"
   borderopacity="1"
   objecttolerance="10"
   gridtolerance="10"
   guidetolerance="10"
   inkscape:pageopacity="0"
   inkscape:pageshadow="2"
   inkscape:window-width="1871"
   inkscape:window-height="1025"
   id="namedview1089"
   showgrid="false"
   fit-margin-top="0"
   fit-margin-left="0"
   fit-margin-right="0"
   fit-margin-bottom="0"
   inkscape:zoom="9.269728"
   inkscape:cx="26.387501"
   inkscape:cy="8.5445483"
   inkscape:window-x="49"
   inkscape:window-y="27"
   inkscape:window-maximized="1"
   inkscape:current-layer="Layer_1" />








<g
   id="g1742"
   transform="scale(0.0390625)"><path
     id="path1028"
     d="M 395.636,93.091 H 349.091 325.818 V 23.273 C 325.818,10.42 315.398,0 302.545,0 H 209.454 116.363 C 103.51,0 93.09,10.42 93.09,23.273 V 93.091 H 69.818 23.273 C 10.42,93.091 0,103.511 0,116.364 c 0,12.853 10.42,23.273 23.273,23.273 h 23.273 v 287.03 c 0,12.853 10.42,23.273 23.273,23.273 h 93.091 46.545 11.785 c -1.285,-1.624 -2.529,-3.285 -3.752,-4.959 -0.386,-0.529 -0.765,-1.066 -1.145,-1.6 -0.853,-1.198 -1.69,-2.408 -2.51,-3.629 -0.391,-0.582 -0.785,-1.16 -1.17,-1.747 -1.095,-1.674 -2.169,-3.365 -3.204,-5.081 -0.002,-0.002 -0.002,-0.003 -0.003,-0.005 V 265.278 c 6.582,-10.92 14.401,-21.012 23.273,-30.075 4.861,-4.966 10.031,-9.627 15.487,-13.943 2.535,-2.005 5.134,-3.928 7.786,-5.783 7.34,-5.131 15.12,-9.672 23.273,-13.557 14.473,-6.893 30.118,-11.709 46.545,-14.069 7.602,-1.092 15.371,-1.669 23.273,-1.669 7.902,0 15.67,0.577 23.273,1.669 v -48.215 h 23.273 c 12.853,0 23.273,-10.42 23.273,-23.273 -0.003,-12.852 -10.423,-23.272 -23.276,-23.272 z M 256,93.091 H 209.455 162.91 139.637 V 46.545 h 69.818 69.818 V 93.09 H 256 Z"
     style="fill:#77757f"
     inkscape:connector-curvature="0" /><g
     id="g1034">
	<polygon
   id="polygon1030"
   points="93.091,403.394 139.636,403.394 139.636,139.636 116.364,139.636 93.091,139.636 "
   style="fill:#c3c3c7" />
	<path
   id="path1032"
   d="m 195.5,403.394 c -6.028,-16.994 -9.318,-35.269 -9.318,-54.303 v 54.303 z"
   style="fill:#c3c3c7"
   inkscape:connector-curvature="0" />
</g><g
     id="g1040">
	<path
   id="path1036"
   d="m 186.182,139.636 v 209.455 c 0,-44.286 17.77,-84.492 46.545,-113.887 v -95.567 h -46.545 z"
   style="fill:#a9a8ae"
   inkscape:connector-curvature="0" />
	<path
   id="path1038"
   d="m 302.545,139.636 h -23.273 v 62.286 c 14.473,-6.893 30.118,-11.709 46.545,-14.069 v -48.216 h -23.272 z"
   style="fill:#a9a8ae"
   inkscape:connector-curvature="0" />
</g><path
     id="path1042"
     d="m 221.24,449.939 c -4.274,-5.407 -8.212,-11.092 -11.785,-17.02 v 17.02 z"
     style="fill:#87868d"
     inkscape:connector-curvature="0" /><g
     id="g1048">
	<polygon
   id="polygon1044"
   points="93.091,403.394 139.636,403.394 139.636,139.636 116.364,139.636 93.091,139.636 "
   style="fill:#77757f" />
	<path
   id="path1046"
   d="m 186.182,349.091 v 54.303 h 9.318 c 2.861,8.065 6.327,15.846 10.367,23.273 1.15,2.115 2.349,4.197 3.589,6.253 V 139.636 h -23.273 v 209.455 z"
   style="fill:#77757f"
   inkscape:connector-curvature="0" />
</g><path
     id="path1050"
     d="M 162.909,93.091 H 139.636 V 46.545 h 69.818 V 0 H 116.363 C 103.51,0 93.09,10.42 93.09,23.273 V 93.091 H 69.818 23.273 C 10.42,93.091 0,103.511 0,116.364 c 0,12.853 10.42,23.273 23.273,23.273 h 23.273 v 287.03 c 0,12.853 10.42,23.273 23.273,23.273 h 93.091 46.545 v -17.02 c -1.24,-2.056 -2.439,-4.139 -3.589,-6.253 -4.04,-7.427 -7.506,-15.208 -10.367,-23.273 h -9.317 V 349.091 139.636 h 23.273 V 93.091 Z M 139.636,403.394 H 93.091 V 139.636 h 23.273 23.273 v 263.758 z"
     style="fill:#57575c"
     inkscape:connector-curvature="0" /><path
     id="path1052"
     d="m 372.364,187.851 c -7.602,-1.092 -15.371,-1.669 -23.273,-1.669 -7.902,0 -15.67,0.577 -23.273,1.669 -16.427,2.36 -32.073,7.176 -46.545,14.069 -8.153,3.883 -15.932,8.426 -23.273,13.557 -2.652,1.854 -5.25,3.779 -7.786,5.783 -5.458,4.316 -10.628,8.977 -15.487,13.943 -28.776,29.395 -46.545,69.601 -46.545,113.887 0,19.034 3.291,37.309 9.318,54.303 2.861,8.065 6.327,15.846 10.367,23.273 4.464,8.208 9.615,15.99 15.372,23.273 C 251.1,487.714 297.312,512 349.091,512 438.919,512 512,438.919 512,349.091 512,267.163 451.205,199.179 372.364,187.851 Z m 26.095,177.695 c 9.089,9.089 9.089,23.824 0,32.912 -4.544,4.544 -10.501,6.817 -16.455,6.817 -5.954,0 -11.913,-2.271 -16.457,-6.817 l -16.455,-16.455 -16.455,16.455 c -4.544,4.544 -10.501,6.817 -16.457,6.817 -5.956,0 -11.913,-2.271 -16.455,-6.817 -9.089,-9.089 -9.089,-23.824 0,-32.912 l 16.455,-16.455 -16.455,-16.455 c -9.089,-9.089 -9.089,-23.824 0,-32.912 9.087,-9.089 23.824,-9.089 32.912,0 l 16.455,16.455 16.455,-16.455 c 9.087,-9.089 23.824,-9.089 32.912,0 9.088,9.089 9.089,23.824 0,32.912 l -16.455,16.455 z"
     style="fill:#d8143a"
     inkscape:connector-curvature="0" /><path
     id="path1054"
     d="m 332.636,398.459 c -4.544,4.544 -10.501,6.817 -16.455,6.817 -5.956,0 -11.913,-2.271 -16.455,-6.817 -9.089,-9.089 -9.089,-23.824 0,-32.912 l 16.454,-16.455 -16.455,-16.455 c -9.089,-9.089 -9.089,-23.824 0,-32.912 9.087,-9.089 23.824,-9.089 32.912,0 l 16.455,16.455 V 186.182 c -7.902,0 -15.67,0.577 -23.273,1.669 -16.427,2.36 -32.073,7.176 -46.545,14.069 -8.153,3.883 -15.932,8.426 -23.273,13.557 -2.652,1.854 -5.25,3.779 -7.786,5.783 -5.458,4.316 -10.628,8.977 -15.487,13.943 -28.776,29.395 -46.545,69.601 -46.545,113.887 0,19.034 3.291,37.309 9.318,54.303 2.861,8.065 6.327,15.846 10.367,23.273 4.464,8.208 9.615,15.99 15.372,23.273 C 251.1,487.714 297.312,512 349.091,512 V 382.003 Z"
     style="fill:#b8002b"
     inkscape:connector-curvature="0" /><path
     id="path1056"
     d="m 299.723,299.723 c -9.089,9.089 -9.089,23.824 0,32.912 l 16.455,16.455 -16.455,16.455 c -9.089,9.089 -9.089,23.824 0,32.912 4.544,4.544 10.501,6.817 16.455,6.817 5.956,0 11.913,-2.271 16.455,-6.817 l 16.457,-16.455 16.455,16.455 c 4.544,4.544 10.501,6.817 16.455,6.817 5.956,0 11.913,-2.271 16.455,-6.817 9.089,-9.089 9.089,-23.824 0,-32.912 l -16.454,-16.455 16.455,-16.455 c 9.089,-9.089 9.089,-23.824 0,-32.912 -9.087,-9.089 -23.824,-9.089 -32.912,0 l -16.455,16.455 -16.455,-16.455 c -9.087,-9.089 -23.824,-9.089 -32.911,0 z"
     style="fill:#70001e"
     inkscape:connector-curvature="0" /></g>
<g
   id="g1058"
   transform="translate(-246,-246)">
</g>
<g
   id="g1060"
   transform="translate(-246,-246)">
</g>
<g
   id="g1062"
   transform="translate(-246,-246)">
</g>
<g
   id="g1064"
   transform="translate(-246,-246)">
</g>
<g
   id="g1066"
   transform="translate(-246,-246)">
</g>
<g
   id="g1068"
   transform="translate(-246,-246)">
</g>
<g
   id="g1070"
   transform="translate(-246,-246)">
</g>
<g
   id="g1072"
   transform="translate(-246,-246)">
</g>
<g
   id="g1074"
   transform="translate(-246,-246)">
</g>
<g
   id="g1076"
   transform="translate(-246,-246)">
</g>
<g
   id="g1078"
   transform="translate(-246,-246)">
</g>
<g
   id="g1080"
   transform="translate(-246,-246)">
</g>
<g
   id="g1082"
   transform="translate(-246,-246)">
</g>
<g
   id="g1084"
   transform="translate(-246,-246)">
</g>
<g
   id="g1086"
   transform="translate(-246,-246)">
</g>
</svg>