<?xml version="1.0" encoding="UTF-8" standalone="no"?>
<!-- Generator: Adobe Illustrator 19.0.0, SVG Export Plug-In . SVG Version: 6.00 Build 0)  -->

<svg
   xmlns:dc="http://purl.org/dc/elements/1.1/"
   xmlns:cc="http://creativecommons.org/ns#"
   xmlns:rdf="http://www.w3.org/1999/02/22-rdf-syntax-ns#"
   xmlns:svg="http://www.w3.org/2000/svg"
   xmlns="http://www.w3.org/2000/svg"
   xmlns:sodipodi="http://sodipodi.sourceforge.net/DTD/sodipodi-0.dtd"
   xmlns:inkscape="http://www.inkscape.org/namespaces/inkscape"
   version="1.1"
   id="Layer_1"
   x="0px"
   y="0px"
   viewBox="0 0 20 20"
   xml:space="preserve"
   sodipodi:docname="delete_disabled_20x20.svg"
   width="20"
   height="20"
   inkscape:version="0.92.3 (5aff6ba, 2018-11-25)"><metadata
   id="metadata1093"><rdf:RDF><cc:Work
       rdf:about=""><dc:format>image/svg+xml</dc:format><dc:type
         rdf:resource="http://purl.org/dc/dcmitype/StillImage" /><dc:title></dc:title></cc:Work></rdf:RDF></metadata><defs
   id="defs1091" /><sodipodi:namedview
   pagecolor="#ffffff"
   bordercolor="#666666"
   borderopacity="1"
   objecttolerance="10"
   gridtolerance="10"
   guidetolerance="10"
   inkscape:pageopacity="0"
   inkscape:pageshadow="2"
   inkscape:window-width="1871"
   inkscape:window-height="1025"
   id="namedview1089"
   showgrid="false"
   fit-margin-top="0"
   fit-margin-left="0"
   fit-margin-right="0"
   fit-margin-bottom="0"
   inkscape:zoom="26.21875"
   inkscape:cx="15.301175"
   inkscape:cy="10.626787"
   inkscape:window-x="49"
   inkscape:window-y="27"
   inkscape:window-maximized="1"
   inkscape:current-layer="Layer_1" />








<path
   inkscape:connector-curvature="0"
   style="fill:#77757f;stroke-width:0.0390625"
   d="M 15.454531,3.6363672 H 13.636367 12.727266 V 0.90910156 C 12.727266,0.40703125 12.320234,0 11.818164,0 H 8.1817969 4.5454297 C 4.0433594,0 3.6363281,0.40703125 3.6363281,0.90910156 V 3.6363672 H 2.7272656 0.90910156 C 0.40703125,3.6363672 0,4.0433984 0,4.5454688 0,5.0475391 0.40703125,5.4545703 0.90910156,5.4545703 H 1.8182031 V 16.66668 c 0,0.50207 0.4070313,0.909101 0.9091016,0.909101 h 3.6363672 1.818164 0.4603516 C 8.5919925,17.512341 8.5433985,17.447461 8.495625,17.38207 8.480547,17.36141 8.465742,17.34043 8.450898,17.31957 8.417578,17.27277 8.384882,17.22551 8.352851,17.177812 8.337578,17.155082 8.322187,17.132502 8.307148,17.109572 8.264375,17.044182 8.222421,16.978127 8.1819918,16.911096 c -7.81e-5,-7.8e-5 -7.81e-5,-1.17e-4 -1.172e-4,-1.96e-4 V 10.362422 C 8.4389844,9.9358594 8.7444141,9.5416406 9.0909766,9.1876172 9.2808594,8.9936328 9.4828125,8.8115625 9.6959375,8.6429688 9.7949609,8.5646484 9.8964844,8.4895313 10.000078,8.4170703 10.286797,8.2166406 10.590703,8.0392578 10.90918,7.8875 c 0.565351,-0.2692578 1.176484,-0.4573828 1.818164,-0.5495703 0.296953,-0.042656 0.600429,-0.065195 0.909101,-0.065195 0.308672,0 0.61211,0.022539 0.909102,0.065195 V 5.4545313 h 0.909101 c 0.502071,0 0.909102,-0.4070313 0.909102,-0.9091016 -1.17e-4,-0.5020313 -0.407148,-0.9090625 -0.909219,-0.9090625 z m -5.454531,0 H 8.1818359 6.3636719 5.4545703 V 1.8181641 h 2.7272656 2.7272661 v 1.818164 H 10 Z"
   id="path1028" /><g
   id="g1034"
   transform="scale(0.0390625)">
	<polygon
   style="fill:#c3c3c7"
   points="139.636,139.636 116.364,139.636 93.091,139.636 93.091,403.394 139.636,403.394 "
   id="polygon1030" />
	<path
   inkscape:connector-curvature="0"
   style="fill:#c3c3c7"
   d="m 195.5,403.394 c -6.028,-16.994 -9.318,-35.269 -9.318,-54.303 v 54.303 z"
   id="path1032" />
</g><g
   id="g1040"
   transform="scale(0.0390625)">
	<path
   inkscape:connector-curvature="0"
   style="fill:#a9a8ae"
   d="m 186.182,139.636 v 209.455 c 0,-44.286 17.77,-84.492 46.545,-113.887 v -95.567 h -46.545 z"
   id="path1036" />
	<path
   inkscape:connector-curvature="0"
   style="fill:#a9a8ae"
   d="m 302.545,139.636 h -23.273 v 62.286 c 14.473,-6.893 30.118,-11.709 46.545,-14.069 v -48.216 h -23.272 z"
   id="path1038" />
</g><path
   inkscape:connector-curvature="0"
   style="fill:#87868d;stroke-width:0.0390625"
   d="M 8.6421875,17.575742 C 8.4752344,17.364531 8.3214063,17.142461 8.1818359,16.910898 v 0.664844 z"
   id="path1042" /><g
   id="g1048"
   transform="scale(0.0390625)">
	<polygon
   style="fill:#77757f"
   points="139.636,139.636 116.364,139.636 93.091,139.636 93.091,403.394 139.636,403.394 "
   id="polygon1044" />
	<path
   inkscape:connector-curvature="0"
   style="fill:#77757f"
   d="m 186.182,349.091 v 54.303 h 9.318 c 2.861,8.065 6.327,15.846 10.367,23.273 1.15,2.115 2.349,4.197 3.589,6.253 V 139.636 h -23.273 v 209.455 z"
   id="path1046" />
</g><path
   inkscape:connector-curvature="0"
   style="fill:#57575c;stroke-width:0.0390625"
   d="M 6.3636328,3.6363672 H 5.4545312 V 1.8181641 H 8.1817969 V 0 H 4.5454297 C 4.0433594,0 3.6363281,0.40703125 3.6363281,0.90910156 V 3.6363672 H 2.7272656 0.90910156 C 0.40703125,3.6363672 0,4.0433984 0,4.5454688 0,5.0475391 0.40703125,5.4545703 0.90910156,5.4545703 H 1.8182031 V 16.66668 c 0,0.50207 0.4070313,0.909101 0.9091016,0.909101 h 3.6363672 1.818164 V 16.910937 C 8.1333984,16.830625 8.0865625,16.749258 8.0416406,16.66668 7.8838281,16.376562 7.7484375,16.072617 7.6366797,15.757578 H 7.2727344 V 13.636367 5.4545312 H 8.1818359 V 3.6363672 Z M 5.4545312,15.757578 H 3.6363672 V 5.4545312 H 4.5454687 5.4545703 V 15.757578 Z"
   id="path1050" /><path
   inkscape:connector-curvature="0"
   style="fill:#77757f;stroke-width:0.0390625;fill-opacity:1"
   d="m 14.545469,7.3379297 c -0.296953,-0.042656 -0.60043,-0.065195 -0.909102,-0.065195 -0.308672,0 -0.612109,0.022539 -0.909101,0.065195 C 12.085586,7.4301172 11.474414,7.6182422 10.909102,7.8875 10.590625,8.0391797 10.286758,8.2166406 10,8.4170703 9.8964062,8.4894922 9.7949219,8.5646875 9.6958594,8.6429687 9.4826562,8.8115625 9.2807031,8.9936328 9.0908984,9.1876172 7.9668359,10.335859 7.2727344,11.906406 7.2727344,13.636328 c 0,0.743516 0.1285547,1.457383 0.3639843,2.121211 0.1117579,0.315039 0.2471485,0.618984 0.404961,0.909102 0.174375,0.320625 0.3755859,0.624609 0.6004687,0.909101 C 9.8085938,19.051328 11.61375,20 13.636367,20 17.145273,20 20,17.145273 20,13.636367 20,10.436055 17.625195,7.7804297 14.545469,7.3379297 Z m 1.019336,6.9412113 c 0.355039,0.355039 0.355039,0.930625 0,1.285625 -0.1775,0.1775 -0.410196,0.266289 -0.642774,0.266289 -0.232578,0 -0.465351,-0.08871 -0.642851,-0.266289 l -0.642774,-0.642774 -0.642773,0.642774 c -0.1775,0.1775 -0.410195,0.266289 -0.642852,0.266289 -0.232656,0 -0.465351,-0.08871 -0.642773,-0.266289 -0.355039,-0.355039 -0.355039,-0.930625 0,-1.285625 l 0.642773,-0.642774 -0.642773,-0.642773 c -0.355039,-0.355039 -0.355039,-0.930625 0,-1.285625 0.354961,-0.355039 0.930625,-0.355039 1.285625,0 l 0.642773,0.642773 0.642774,-0.642773 c 0.354961,-0.355039 0.930625,-0.355039 1.285625,0 0.355,0.355039 0.355039,0.930625 0,1.285625 l -0.642774,0.642773 z"
   id="path1052" /><path
   inkscape:connector-curvature="0"
   style="fill:#57575c;stroke-width:0.0390625;fill-opacity:1"
   d="m 12.993594,15.564805 c -0.1775,0.1775 -0.410196,0.266289 -0.642774,0.266289 -0.232656,0 -0.465351,-0.08871 -0.642773,-0.266289 -0.355039,-0.355039 -0.355039,-0.930625 0,-1.285625 l 0.642734,-0.642774 -0.642773,-0.642773 c -0.355039,-0.355039 -0.355039,-0.930625 0,-1.285625 0.354961,-0.355039 0.930625,-0.355039 1.285625,0 l 0.642773,0.642773 V 7.2727344 c -0.308672,0 -0.612109,0.022539 -0.909101,0.065195 C 12.085625,7.4301172 11.474453,7.6182422 10.909141,7.8875 10.590664,8.0391797 10.286797,8.2166406 10.000039,8.4170703 9.8964453,8.4894922 9.7949609,8.5646875 9.6958984,8.6429687 9.4826953,8.8115625 9.2807422,8.9936328 9.0909375,9.1876172 7.966875,10.335859 7.2727734,11.906406 7.2727734,13.636328 c 0,0.743516 0.1285547,1.457383 0.3639844,2.121211 0.1117578,0.315039 0.2471484,0.618984 0.4049609,0.909102 0.174375,0.320625 0.375586,0.624609 0.6004688,0.909101 C 9.8085938,19.051328 11.61375,20 13.636367,20 v -5.078008 z"
   id="path1054" /><path
   inkscape:connector-curvature="0"
   style="fill:#333333;stroke-width:0.0390625"
   d="m 11.70793,11.70793 c -0.355039,0.355039 -0.355039,0.930625 0,1.285625 l 0.642773,0.642773 -0.642773,0.642774 c -0.355039,0.355039 -0.355039,0.930625 0,1.285625 0.1775,0.1775 0.410195,0.266289 0.642773,0.266289 0.232656,0 0.465352,-0.08871 0.642774,-0.266289 l 0.642851,-0.642774 0.642774,0.642774 c 0.1775,0.1775 0.410195,0.266289 0.642773,0.266289 0.232656,0 0.465352,-0.08871 0.642773,-0.266289 0.355039,-0.35504 0.355039,-0.930625 0,-1.285625 l -0.642734,-0.642774 0.642773,-0.642773 c 0.35504,-0.355039 0.35504,-0.930625 0,-1.285625 -0.35496,-0.355039 -0.930625,-0.355039 -1.285625,0 l -0.642773,0.642773 -0.642773,-0.642773 c -0.354961,-0.355039 -0.930625,-0.355039 -1.285586,0 z"
   id="path1056" />
<g
   id="g1058"
   transform="translate(-246,-246)">
</g>
<g
   id="g1060"
   transform="translate(-246,-246)">
</g>
<g
   id="g1062"
   transform="translate(-246,-246)">
</g>
<g
   id="g1064"
   transform="translate(-246,-246)">
</g>
<g
   id="g1066"
   transform="translate(-246,-246)">
</g>
<g
   id="g1068"
   transform="translate(-246,-246)">
</g>
<g
   id="g1070"
   transform="translate(-246,-246)">
</g>
<g
   id="g1072"
   transform="translate(-246,-246)">
</g>
<g
   id="g1074"
   transform="translate(-246,-246)">
</g>
<g
   id="g1076"
   transform="translate(-246,-246)">
</g>
<g
   id="g1078"
   transform="translate(-246,-246)">
</g>
<g
   id="g1080"
   transform="translate(-246,-246)">
</g>
<g
   id="g1082"
   transform="translate(-246,-246)">
</g>
<g
   id="g1084"
   transform="translate(-246,-246)">
</g>
<g
   id="g1086"
   transform="translate(-246,-246)">
</g>
</svg>