<?xml version="1.0" encoding="UTF-8" standalone="no"?>
<!-- Generator: Adobe Illustrator 19.0.0, SVG Export Plug-In . SVG Version: 6.00 Build 0)  -->

<svg
   xmlns:dc="http://purl.org/dc/elements/1.1/"
   xmlns:cc="http://creativecommons.org/ns#"
   xmlns:rdf="http://www.w3.org/1999/02/22-rdf-syntax-ns#"
   xmlns:svg="http://www.w3.org/2000/svg"
   xmlns="http://www.w3.org/2000/svg"
   xmlns:sodipodi="http://sodipodi.sourceforge.net/DTD/sodipodi-0.dtd"
   xmlns:inkscape="http://www.inkscape.org/namespaces/inkscape"
   version="1.1"
   id="Capa_1"
   x="0px"
   y="0px"
   viewBox="0 0 19.999999 19.999972"
   xml:space="preserve"
   sodipodi:docname="edit.svg"
   width="19.999998"
   height="19.999971"
   inkscape:version="0.92.3 (5aff6ba, 2018-11-25)"><metadata
   id="metadata3117"><rdf:RDF><cc:Work
       rdf:about=""><dc:format>image/svg+xml</dc:format><dc:type
         rdf:resource="http://purl.org/dc/dcmitype/StillImage" /><dc:title></dc:title></cc:Work></rdf:RDF></metadata><defs
   id="defs3115" /><sodipodi:namedview
   pagecolor="#ffffff"
   bordercolor="#666666"
   borderopacity="1"
   objecttolerance="10"
   gridtolerance="10"
   guidetolerance="10"
   inkscape:pageopacity="0"
   inkscape:pageshadow="2"
   inkscape:window-width="1871"
   inkscape:window-height="1025"
   id="namedview3113"
   showgrid="false"
   fit-margin-top="0"
   fit-margin-left="0"
   fit-margin-right="0"
   fit-margin-bottom="0"
   inkscape:zoom="0.5"
   inkscape:cx="-8.495165"
   inkscape:cy="8.83114"
   inkscape:window-x="49"
   inkscape:window-y="27"
   inkscape:window-maximized="1"
   inkscape:current-layer="Capa_1" />

<linearGradient
   id="SVGID_1_"
   gradientUnits="userSpaceOnUse"
   x1="122.9393"
   y1="31.6691"
   x2="-31.1507"
   y2="185.75909"
   gradientTransform="matrix(1.0667,0,0,-1.0667,3.2666,557.5336)">
	<stop
   offset="0"
   style="stop-color:#FFCF95"
   id="stop2960" />
	<stop
   offset="0.054"
   style="stop-color:#FED19A"
   id="stop2962" />
	<stop
   offset="1"
   style="stop-color:#E8EFEE"
   id="stop2964" />
</linearGradient>

<linearGradient
   id="SVGID_2_"
   gradientUnits="userSpaceOnUse"
   x1="75.6716"
   y1="82.268898"
   x2="83.6716"
   y2="59.8689"
   gradientTransform="matrix(1.0667,0,0,-1.0667,3.2666,557.5336)">
	<stop
   offset="0"
   style="stop-color:#C69C6D;stop-opacity:0"
   id="stop2969" />
	<stop
   offset="1"
   style="stop-color:#754C24"
   id="stop2971" />
</linearGradient>

<linearGradient
   id="SVGID_3_"
   gradientUnits="userSpaceOnUse"
   x1="286.57739"
   y1="208.28709"
   x2="203.0874"
   y2="291.7771"
   gradientTransform="matrix(1.0667,0,0,-1.0667,3.2666,557.5336)">
	<stop
   offset="0"
   style="stop-color:#FF9102"
   id="stop2976" />
	<stop
   offset="1"
   style="stop-color:#FFC200"
   id="stop2978" />
</linearGradient>

<linearGradient
   id="SVGID_4_"
   gradientUnits="userSpaceOnUse"
   x1="212.0359"
   y1="290.43561"
   x2="243.8259"
   y2="258.6456"
   gradientTransform="matrix(1.0667,0,0,-1.0667,3.2666,557.5336)">
	<stop
   offset="0"
   style="stop-color:#FFCF95"
   id="stop2983" />
	<stop
   offset="0.427"
   style="stop-color:#FFC954"
   id="stop2985" />
	<stop
   offset="1"
   style="stop-color:#FFC200"
   id="stop2987" />
</linearGradient>

<linearGradient
   id="SVGID_5_"
   gradientUnits="userSpaceOnUse"
   x1="187.8979"
   y1="306.96759"
   x2="208.5179"
   y2="286.3476"
   gradientTransform="matrix(1.0667,0,0,-1.0667,3.2666,557.5336)">
	<stop
   offset="0"
   style="stop-color:#FFCF95"
   id="stop2992" />
	<stop
   offset="0.427"
   style="stop-color:#FFC954"
   id="stop2994" />
	<stop
   offset="1"
   style="stop-color:#FFC200"
   id="stop2996" />
</linearGradient>

<linearGradient
   id="SVGID_6_"
   gradientUnits="userSpaceOnUse"
   x1="432.34381"
   y1="478.09979"
   x2="397.40381"
   y2="443.15179"
   gradientTransform="matrix(1.0667,0,0,-1.0667,3.2666,557.5336)">
	<stop
   offset="0"
   style="stop-color:#D63305"
   id="stop3001" />
	<stop
   offset="0.366"
   style="stop-color:#CF3004"
   id="stop3003" />
	<stop
   offset="0.899"
   style="stop-color:#BC2602"
   id="stop3005" />
	<stop
   offset="1"
   style="stop-color:#B72401"
   id="stop3007" />
</linearGradient>

<linearGradient
   id="SVGID_7_"
   gradientUnits="userSpaceOnUse"
   x1="462.63049"
   y1="417.3002"
   x2="444.2605"
   y2="435.66019"
   gradientTransform="matrix(1.0667,0,0,-1.0667,3.2666,557.5336)">
	<stop
   offset="0"
   style="stop-color:#960000"
   id="stop3012" />
	<stop
   offset="0.331"
   style="stop-color:#9C0700;stop-opacity:0.669"
   id="stop3014" />
	<stop
   offset="0.812"
   style="stop-color:#AE1A01;stop-opacity:0.188"
   id="stop3016" />
	<stop
   offset="1"
   style="stop-color:#B72401;stop-opacity:0"
   id="stop3018" />
</linearGradient>

<linearGradient
   id="SVGID_8_"
   gradientUnits="userSpaceOnUse"
   x1="393.85989"
   y1="439.59561"
   x2="381.09991"
   y2="426.84561"
   gradientTransform="matrix(1.0667,0,0,-1.0667,3.2666,557.5336)">
	<stop
   offset="0"
   style="stop-color:#FFFFFF"
   id="stop3023" />
	<stop
   offset="1"
   style="stop-color:#E8EFEE"
   id="stop3025" />
</linearGradient>

<linearGradient
   id="SVGID_9_"
   gradientUnits="userSpaceOnUse"
   x1="367.52789"
   y1="413.27759"
   x2="359.2179"
   y2="404.96759"
   gradientTransform="matrix(1.0667,0,0,-1.0667,3.2666,557.5336)">
	<stop
   offset="0"
   style="stop-color:#FFFFFF"
   id="stop3030" />
	<stop
   offset="1"
   style="stop-color:#E8EFEE"
   id="stop3032" />
</linearGradient>

<linearGradient
   id="SVGID_10_"
   gradientUnits="userSpaceOnUse"
   x1="339.26761"
   y1="385.01791"
   x2="360.74771"
   y2="406.49789"
   gradientTransform="matrix(1.0667,0,0,-1.0667,3.2666,557.5336)">
	<stop
   offset="0"
   style="stop-color:#FFC200;stop-opacity:0"
   id="stop3037" />
	<stop
   offset="0.203"
   style="stop-color:#FFBB00;stop-opacity:0.203"
   id="stop3039" />
	<stop
   offset="0.499"
   style="stop-color:#FFA700;stop-opacity:0.499"
   id="stop3041" />
	<stop
   offset="0.852"
   style="stop-color:#FF8800;stop-opacity:0.852"
   id="stop3043" />
	<stop
   offset="1"
   style="stop-color:#FF7800"
   id="stop3045" />
</linearGradient>

<linearGradient
   id="SVGID_11_"
   gradientUnits="userSpaceOnUse"
   x1="381.2955"
   y1="427.04999"
   x2="370.3555"
   y2="416.10001"
   gradientTransform="matrix(1.0667,0,0,-1.0667,3.2666,557.5336)">
	<stop
   offset="0"
   style="stop-color:#FFFFFF"
   id="stop3050" />
	<stop
   offset="1"
   style="stop-color:#E8EFEE"
   id="stop3052" />
</linearGradient>

<linearGradient
   id="SVGID_12_"
   gradientUnits="userSpaceOnUse"
   x1="19.9226"
   y1="65.671898"
   x2="-0.1164"
   y2="45.641899"
   gradientTransform="matrix(1.0667,0,0,-1.0667,3.2666,557.5336)">
	<stop
   offset="0"
   style="stop-color:#363F3E"
   id="stop3057" />
	<stop
   offset="1"
   style="stop-color:#303033"
   id="stop3059" />
</linearGradient>

<linearGradient
   id="SVGID_13_"
   gradientUnits="userSpaceOnUse"
   x1="403.9841"
   y1="393.88391"
   x2="428.65411"
   y2="369.20389"
   gradientTransform="matrix(1.0667,0,0,-1.0667,3.2666,557.5336)">
	<stop
   offset="0"
   style="stop-color:#C2CECE;stop-opacity:0"
   id="stop3064" />
	<stop
   offset="0.179"
   style="stop-color:#AFBCBC;stop-opacity:0.179"
   id="stop3066" />
	<stop
   offset="1"
   style="stop-color:#5B6A6A"
   id="stop3068" />
</linearGradient>

<linearGradient
   id="SVGID_14_"
   gradientUnits="userSpaceOnUse"
   x1="346.55841"
   y1="451.30811"
   x2="371.22839"
   y2="426.63809"
   gradientTransform="matrix(1.0667,0,0,-1.0667,3.2666,557.5336)">
	<stop
   offset="0"
   style="stop-color:#C2CECE;stop-opacity:0"
   id="stop3073" />
	<stop
   offset="0.55"
   style="stop-color:#C2CECE"
   id="stop3075" />
	<stop
   offset="1"
   style="stop-color:#C2CECE;stop-opacity:0"
   id="stop3077" />
</linearGradient>
<g
   id="g4220"
   transform="matrix(0.03906241,0,0,0.03906241,1.4855228e-5,-9.7656025e-6)"><path
     id="path2958"
     d="M 374.995,512 H 6.009 c -2.337,0 -4.233,-1.894 -4.233,-4.233 v -5.412 c 0,-5.327 4.318,-9.645 9.645,-9.645 h 363.572 c 5.327,0 9.645,4.318 9.645,9.645 v 0 c 0.001,5.326 -4.318,9.645 -9.643,9.645 z"
     style="fill:#c2cece"
     inkscape:connector-curvature="0" /><path
     id="path2967"
     d="M 120.736,391.264 70.42,340.947 53.556,357.811 c -5.104,5.104 -8.941,11.334 -11.2,18.19 L 0.337,503.464 c -1.669,5.062 3.137,9.869 8.199,8.199 l 127.462,-42.018 c 6.855,-2.26 13.086,-6.096 18.19,-11.2 l 16.864,-16.864 z"
     style="fill:url(#SVGID_1_)"
     inkscape:connector-curvature="0" /><path
     id="path2974"
     d="m 154.189,435.721 c -5.104,5.104 -11.334,8.941 -18.19,11.2 L 8.537,488.939 c -1.199,0.395 -2.38,0.417 -3.467,0.17 l -4.733,14.355 c -1.669,5.062 3.137,9.869 8.199,8.199 l 127.462,-42.018 c 6.855,-2.26 13.086,-6.096 18.19,-11.2 l 16.864,-16.864 -11.362,-11.362 z"
     style="fill:url(#SVGID_2_)"
     inkscape:connector-curvature="0" /><path
     id="path2981"
     d="m 150.963,461.671 c 4.562,-4.562 6.844,-10.55 6.844,-16.539 0,-5.963 -2.282,-11.951 -6.844,-16.513 l -0.493,-0.493 c -5.495,-5.495 -13.039,-7.674 -20.169,-6.559 -1.854,0.299 -3.578,-0.363 -4.77,-1.555 -1.193,-1.193 -1.841,-2.903 -1.555,-4.743 -0.013,-0.013 0,-0.026 0,-0.026 0.078,-0.466 0.129,-0.933 0.181,-1.4 0.013,-0.246 0.038,-0.48 0.052,-0.725 0.038,-0.506 0.052,-1.011 0.052,-1.53 0,-5.963 -2.282,-11.951 -6.844,-16.513 l -0.493,-0.493 c -0.285,-0.285 -0.583,-0.557 -0.881,-0.83 -0.246,-0.221 -0.506,-0.453 -0.765,-0.661 -0.402,-0.35 -0.817,-0.661 -1.245,-0.959 -0.221,-0.169 -0.466,-0.337 -0.7,-0.493 -0.337,-0.234 -0.7,-0.466 -1.062,-0.674 -0.35,-0.194 -0.687,-0.375 -1.024,-0.557 -0.453,-0.246 -0.908,-0.466 -1.361,-0.661 -0.375,-0.169 -0.765,-0.324 -1.14,-0.467 -0.35,-0.143 -0.713,-0.272 -1.089,-0.388 -0.921,-0.299 -1.867,-0.544 -2.826,-0.725 -0.453,-0.091 -0.894,-0.169 -1.335,-0.221 -0.453,-0.065 -0.908,-0.103 -1.348,-0.129 -0.453,-0.038 -0.894,-0.065 -1.361,-0.065 -0.453,-0.013 -0.894,-0.013 -1.335,0.013 -0.921,0.038 -1.802,0.116 -2.697,0.259 -1.854,0.299 -3.578,-0.363 -4.77,-1.555 -1.193,-1.193 -1.854,-2.916 -1.555,-4.77 0.194,-1.205 0.285,-2.436 0.285,-3.655 0,-5.963 -2.282,-11.951 -6.844,-16.513 l -0.493,-0.493 c -9.125,-9.125 -23.927,-9.125 -33.052,0 l 284.299,-284.3 100.634,100.634 z"
     style="fill:url(#SVGID_3_)"
     inkscape:connector-curvature="0" /><path
     id="path2990"
     d="M 401.717,143.828 125.532,420.013 c -1.193,-1.193 -1.841,-2.903 -1.555,-4.743 -0.013,-0.013 0,-0.026 0,-0.026 0.078,-0.466 0.129,-0.933 0.181,-1.399 0.013,-0.246 0.038,-0.48 0.052,-0.725 0.038,-0.506 0.052,-1.011 0.052,-1.53 0,-5.963 -2.282,-11.951 -6.844,-16.513 l -0.493,-0.493 c -0.285,-0.285 -0.583,-0.557 -0.881,-0.83 -0.246,-0.221 -0.506,-0.453 -0.765,-0.661 -0.402,-0.35 -0.817,-0.661 -1.245,-0.959 -0.234,-0.181 -0.466,-0.337 -0.7,-0.493 -0.337,-0.234 -0.7,-0.466 -1.062,-0.674 -0.337,-0.181 -0.674,-0.389 -1.024,-0.557 -0.453,-0.246 -0.908,-0.466 -1.361,-0.661 -0.375,-0.169 -0.765,-0.324 -1.14,-0.467 -0.35,-0.143 -0.713,-0.272 -1.089,-0.388 -0.921,-0.299 -1.867,-0.544 -2.826,-0.725 -0.428,-0.091 -0.881,-0.156 -1.335,-0.221 -0.441,-0.052 -0.881,-0.103 -1.348,-0.129 -0.441,-0.052 -0.894,-0.065 -1.361,-0.065 -0.453,-0.013 -0.908,0 -1.335,0.013 -0.921,0.038 -1.802,0.116 -2.697,0.259 -1.854,0.299 -3.578,-0.363 -4.77,-1.555 L 368.171,110.286 Z"
     style="fill:url(#SVGID_4_)"
     inkscape:connector-curvature="0" /><path
     id="path2999"
     d="M 334.628,76.739 50.329,361.038 c 9.125,-9.125 23.927,-9.125 33.052,0 l 0.493,0.493 c 4.562,4.562 6.844,10.55 6.844,16.513 0,1.218 -0.091,2.45 -0.285,3.655 -0.298,1.854 0.363,3.578 1.555,4.77 L 368.173,110.284 Z"
     style="fill:url(#SVGID_5_)"
     inkscape:connector-curvature="0" /><path
     id="path3010"
     d="M 469.671,142.965 369.035,42.33 400.558,10.807 c 14.409,-14.409 37.769,-14.409 52.177,0 l 48.459,48.459 c 14.409,14.409 14.409,37.769 0,52.177 z"
     style="fill:url(#SVGID_6_)"
     inkscape:connector-curvature="0" /><path
     id="path3021"
     d="m 436.309,109.603 33.362,33.362 31.524,-31.524 c 14.407,-14.407 14.407,-37.767 0,-52.176 L 493.92,51.99 Z"
     style="fill:url(#SVGID_7_)"
     inkscape:connector-curvature="0" /><polygon
     id="polygon3028"
     points="334.621,76.744 435.257,177.379 474.17,138.466 373.534,37.831 "
     style="fill:url(#SVGID_8_)" /><polygon
     id="polygon3035"
     points="334.621,76.744 435.257,177.379 448.228,164.409 347.592,63.773 "
     style="fill:url(#SVGID_9_)" /><polygon
     id="polygon3048"
     points="334.621,76.744 435.257,177.379 418.631,194.004 317.995,93.369 "
     style="fill:url(#SVGID_10_)" /><polygon
     id="polygon3055"
     points="347.592,63.773 448.228,164.409 461.199,151.437 360.563,50.801 "
     style="fill:url(#SVGID_11_)" /><path
     id="path3062"
     d="M 10.981,471.179 0.339,503.464 c -1.669,5.062 3.137,9.869 8.199,8.199 l 32.285,-10.642 z"
     style="fill:url(#SVGID_12_)"
     inkscape:connector-curvature="0" /><polygon
     id="polygon3071"
     points="401.895,144.017 435.257,177.379 474.17,138.466 440.808,105.104 "
     style="fill:url(#SVGID_13_)" /><polygon
     id="polygon3080"
     points="350.875,92.997 384.237,126.36 423.15,87.447 389.788,54.084 "
     style="fill:url(#SVGID_14_)" /></g>
<g
   id="g3082"
   transform="translate(-246.00019,-246.00047)">
</g>
<g
   id="g3084"
   transform="translate(-246.00019,-246.00047)">
</g>
<g
   id="g3086"
   transform="translate(-246.00019,-246.00047)">
</g>
<g
   id="g3088"
   transform="translate(-246.00019,-246.00047)">
</g>
<g
   id="g3090"
   transform="translate(-246.00019,-246.00047)">
</g>
<g
   id="g3092"
   transform="translate(-246.00019,-246.00047)">
</g>
<g
   id="g3094"
   transform="translate(-246.00019,-246.00047)">
</g>
<g
   id="g3096"
   transform="translate(-246.00019,-246.00047)">
</g>
<g
   id="g3098"
   transform="translate(-246.00019,-246.00047)">
</g>
<g
   id="g3100"
   transform="translate(-246.00019,-246.00047)">
</g>
<g
   id="g3102"
   transform="translate(-246.00019,-246.00047)">
</g>
<g
   id="g3104"
   transform="translate(-246.00019,-246.00047)">
</g>
<g
   id="g3106"
   transform="translate(-246.00019,-246.00047)">
</g>
<g
   id="g3108"
   transform="translate(-246.00019,-246.00047)">
</g>
<g
   id="g3110"
   transform="translate(-246.00019,-246.00047)">
</g>
</svg>