<?xml version="1.0" encoding="UTF-8" standalone="no"?>
<!-- Generator: Adobe Illustrator 19.0.0, SVG Export Plug-In . SVG Version: 6.00 Build 0)  -->

<svg
   xmlns:dc="http://purl.org/dc/elements/1.1/"
   xmlns:cc="http://creativecommons.org/ns#"
   xmlns:rdf="http://www.w3.org/1999/02/22-rdf-syntax-ns#"
   xmlns:svg="http://www.w3.org/2000/svg"
   xmlns="http://www.w3.org/2000/svg"
   xmlns:sodipodi="http://sodipodi.sourceforge.net/DTD/sodipodi-0.dtd"
   xmlns:inkscape="http://www.inkscape.org/namespaces/inkscape"
   version="1.1"
   id="Capa_1"
   x="0px"
   y="0px"
   viewBox="0 0 29.999411 19.999998"
   xml:space="preserve"
   sodipodi:docname="eng.svg"
   width="29.999411"
   height="19.999998"
   inkscape:version="0.92.3 (5aff6ba, 2018-11-25)"><metadata
   id="metadata293"><rdf:RDF><cc:Work
       rdf:about=""><dc:format>image/svg+xml</dc:format><dc:type
         rdf:resource="http://purl.org/dc/dcmitype/StillImage" /><dc:title></dc:title></cc:Work></rdf:RDF></metadata><defs
   id="defs291" /><sodipodi:namedview
   pagecolor="#ffffff"
   bordercolor="#666666"
   borderopacity="1"
   objecttolerance="10"
   gridtolerance="10"
   guidetolerance="10"
   inkscape:pageopacity="0"
   inkscape:pageshadow="2"
   inkscape:window-width="1871"
   inkscape:window-height="1025"
   id="namedview289"
   showgrid="false"
   fit-margin-top="0"
   fit-margin-left="0"
   fit-margin-right="0"
   fit-margin-bottom="0"
   inkscape:zoom="1.6386719"
   inkscape:cx="14.999707"
   inkscape:cy="9.9999969"
   inkscape:window-x="49"
   inkscape:window-y="27"
   inkscape:window-maximized="1"
   inkscape:current-layer="Capa_1" />











<g
   id="g317"
   transform="matrix(0.0585926,0,0,0.0585926,0,-4.9997066)"><rect
     id="rect214"
     height="341.33701"
     width="512"
     style="fill:#f0f0f0"
     y="85.333"
     x="0" /><polygon
     id="polygon216"
     points="224,426.662 288,426.662 288,287.996 512,287.996 512,223.996 288,223.996 288,85.33 224,85.33 224,223.996 0,223.996 0,287.996 224,287.996 "
     style="fill:#d80027" /><g
     id="g224">
	<polygon
   id="polygon218"
   points="393.785,315.358 512,381.034 512,315.358 "
   style="fill:#0052b4" />
	<polygon
   id="polygon220"
   points="512,395.188 368.307,315.358 311.652,315.358 512,426.662 "
   style="fill:#0052b4" />
	<polygon
   id="polygon222"
   points="458.634,426.662 311.652,344.998 311.652,426.662 "
   style="fill:#0052b4" />
</g><polygon
     id="polygon226"
     points="512,395.188 368.307,315.358 311.652,315.358 512,426.662 "
     style="fill:#f0f0f0" /><polygon
     id="polygon228"
     points="512,395.188 368.307,315.358 311.652,315.358 512,426.662 "
     style="fill:#d80027" /><g
     id="g234">
	<polygon
   id="polygon230"
   points="90.341,315.356 0,365.546 0,315.356 "
   style="fill:#0052b4" />
	<polygon
   id="polygon232"
   points="200.348,329.51 200.348,426.661 25.491,426.661 "
   style="fill:#0052b4" />
</g><polygon
     id="polygon236"
     points="0,395.188 0,426.662 200.348,315.358 143.693,315.358 "
     style="fill:#d80027" /><g
     id="g244">
	<polygon
   id="polygon238"
   points="118.215,196.634 0,130.958 0,196.634 "
   style="fill:#0052b4" />
	<polygon
   id="polygon240"
   points="0,116.804 143.693,196.634 200.348,196.634 0,85.33 "
   style="fill:#0052b4" />
	<polygon
   id="polygon242"
   points="53.366,85.33 200.348,166.994 200.348,85.33 "
   style="fill:#0052b4" />
</g><polygon
     id="polygon246"
     points="0,116.804 143.693,196.634 200.348,196.634 0,85.33 "
     style="fill:#f0f0f0" /><polygon
     id="polygon248"
     points="0,116.804 143.693,196.634 200.348,196.634 0,85.33 "
     style="fill:#d80027" /><g
     id="g254">
	<polygon
   id="polygon250"
   points="421.659,196.636 512,146.446 512,196.636 "
   style="fill:#0052b4" />
	<polygon
   id="polygon252"
   points="311.652,182.482 311.652,85.331 486.509,85.331 "
   style="fill:#0052b4" />
</g><polygon
     id="polygon256"
     points="512,116.804 512,85.33 311.652,196.634 368.307,196.634 "
     style="fill:#d80027" /></g>
<g
   id="g258"
   transform="translate(-241.00029,-246)">
</g>
<g
   id="g260"
   transform="translate(-241.00029,-246)">
</g>
<g
   id="g262"
   transform="translate(-241.00029,-246)">
</g>
<g
   id="g264"
   transform="translate(-241.00029,-246)">
</g>
<g
   id="g266"
   transform="translate(-241.00029,-246)">
</g>
<g
   id="g268"
   transform="translate(-241.00029,-246)">
</g>
<g
   id="g270"
   transform="translate(-241.00029,-246)">
</g>
<g
   id="g272"
   transform="translate(-241.00029,-246)">
</g>
<g
   id="g274"
   transform="translate(-241.00029,-246)">
</g>
<g
   id="g276"
   transform="translate(-241.00029,-246)">
</g>
<g
   id="g278"
   transform="translate(-241.00029,-246)">
</g>
<g
   id="g280"
   transform="translate(-241.00029,-246)">
</g>
<g
   id="g282"
   transform="translate(-241.00029,-246)">
</g>
<g
   id="g284"
   transform="translate(-241.00029,-246)">
</g>
<g
   id="g286"
   transform="translate(-241.00029,-246)">
</g>
</svg>