<?xml version="1.0" encoding="UTF-8" standalone="no"?>
<!-- Generator: Adobe Illustrator 19.0.0, SVG Export Plug-In . SVG Version: 6.00 Build 0)  -->

<svg
   xmlns:dc="http://purl.org/dc/elements/1.1/"
   xmlns:cc="http://creativecommons.org/ns#"
   xmlns:rdf="http://www.w3.org/1999/02/22-rdf-syntax-ns#"
   xmlns:svg="http://www.w3.org/2000/svg"
   xmlns="http://www.w3.org/2000/svg"
   xmlns:sodipodi="http://sodipodi.sourceforge.net/DTD/sodipodi-0.dtd"
   xmlns:inkscape="http://www.inkscape.org/namespaces/inkscape"
   version="1.1"
   id="Capa_1"
   x="0px"
   y="0px"
   viewBox="0 0 22.000041 22.000053"
   xml:space="preserve"
   width="21.999998"
   height="22.00001"
   inkscape:version="0.48.5 r10040"
   sodipodi:docname="unfilter.svg"><metadata
     id="metadata3679"><rdf:RDF><cc:Work
         rdf:about=""><dc:format>image/svg+xml</dc:format><dc:type
           rdf:resource="http://purl.org/dc/dcmitype/StillImage" /><dc:title /></cc:Work></rdf:RDF></metadata><defs
     id="defs3677" /><sodipodi:namedview
     pagecolor="#e1e1e1"
     bordercolor="#666666"
     borderopacity="1"
     objecttolerance="10"
     gridtolerance="10"
     guidetolerance="10"
     inkscape:pageopacity="0"
     inkscape:pageshadow="2"
     inkscape:window-width="1920"
     inkscape:window-height="1030"
     id="namedview3675"
     showgrid="false"
     fit-margin-top="1"
     fit-margin-left="1"
     fit-margin-right="1"
     fit-margin-bottom="1"
     inkscape:zoom="29.5"
     inkscape:cx="0.76630964"
     inkscape:cy="12.251028"
     inkscape:window-x="0"
     inkscape:window-y="0"
     inkscape:window-maximized="1"
     inkscape:current-layer="Capa_1" /><path
     d="M 20.940536,1.482268 C 20.819599,1.1903537 20.534716,1.000002 20.218778,1.000002 H 1.7813029 c -0.3159768,0 -0.6008599,0.1903517 -0.7217975,0.482266 -0.12093756,0.2919533 -0.054102,0.6279692 0.1693361,0.8514069 L 8.3061516,9.410985 v 10.807782 c 0,0.315977 0.1903517,0.60086 0.4823051,0.721797 0.2920315,0.120938 0.6280473,0.05402 0.8514069,-0.169336 L 13.465101,16.94603 c 0.146484,-0.146485 0.228789,-0.345235 0.228789,-0.552422 V 9.410985 L 20.7712,2.3336749 C 20.994638,2.1102372 21.061474,1.7742213 20.940536,1.482268 z M 12.360178,8.5349687 C 12.213694,8.6814532 12.131389,8.8802034 12.131389,9.087391 v 6.982544 L 9.8686528,18.332632 V 9.087391 c 0,-0.2071876 -0.082305,-0.4059378 -0.2287892,-0.5524223 L 3.6673981,2.5625032 H 18.332683 l -5.972505,5.9724655 z"
     id="path3643"
     inkscape:connector-curvature="0"
     style="fill:#ffffff" /><g
     id="g3645"
     transform="translate(-244.99998,-245.0004)" /><g
     id="g3647"
     transform="translate(-244.99998,-245.0004)" /><g
     id="g3649"
     transform="translate(-244.99998,-245.0004)" /><g
     id="g3651"
     transform="translate(-244.99998,-245.0004)" /><g
     id="g3653"
     transform="translate(-244.99998,-245.0004)" /><g
     id="g3655"
     transform="translate(-244.99998,-245.0004)" /><g
     id="g3657"
     transform="translate(-244.99998,-245.0004)" /><g
     id="g3659"
     transform="translate(-244.99998,-245.0004)" /><g
     id="g3661"
     transform="translate(-244.99998,-245.0004)" /><g
     id="g3663"
     transform="translate(-244.99998,-245.0004)" /><g
     id="g3665"
     transform="translate(-244.99998,-245.0004)" /><g
     id="g3667"
     transform="translate(-244.99998,-245.0004)" /><g
     id="g3669"
     transform="translate(-244.99998,-245.0004)" /><g
     id="g3671"
     transform="translate(-244.99998,-245.0004)" /><g
     id="g3673"
     transform="translate(-244.99998,-245.0004)" /><path
     style="fill:#ff0000"
     d="m 14.043049,19.290478 c -0.31147,-0.37222 -0.404443,-0.531136 -0.349056,-0.596628 0.04152,-0.04909 0.630179,-0.56223 1.308125,-1.140293 0.677943,-0.578064 1.234589,-1.071544 1.236989,-1.096623 0.0024,-0.02509 -0.336283,-0.481733 -0.752627,-1.014783 l -0.756989,-0.969185 0.241051,-0.217451 c 0.132572,-0.119599 0.386203,-0.321559 0.563616,-0.448799 l 0.322565,-0.231343 0.748806,0.976565 0.748808,0.976566 0.187533,-0.171427 c 0.103143,-0.09428 0.657615,-0.574569 1.232162,-1.067302 l 1.04463,-0.895878 0.457475,0.503295 c 0.251611,0.276811 0.458351,0.521967 0.45942,0.544793 0.0011,0.02283 -0.550371,0.512097 -1.225431,1.087267 -0.675058,0.57517 -1.229294,1.078383 -1.231635,1.11825 -0.0022,0.03986 0.305344,0.472611 0.683744,0.961657 0.378403,0.489044 0.688005,0.91728 0.688005,0.951636 0,0.03435 -0.24286,0.245252 -0.539685,0.468663 l -0.539684,0.406199 -0.696036,-0.904808 c -0.382821,-0.497645 -0.718931,-0.90411 -0.746913,-0.903256 -0.02798,8.4e-4 -0.615253,0.490124 -1.305043,1.087267 -0.689789,0.597142 -1.276911,1.085099 -1.304719,1.084346 -0.02781,-7.7e-4 -0.241606,-0.22968 -0.475111,-0.508728 l 0,0 z"
     id="path4475"
     inkscape:connector-curvature="0" /></svg>