<?xml version="1.0" encoding="UTF-8" standalone="no"?>
<svg
   xmlns:dc="http://purl.org/dc/elements/1.1/"
   xmlns:cc="http://creativecommons.org/ns#"
   xmlns:rdf="http://www.w3.org/1999/02/22-rdf-syntax-ns#"
   xmlns:svg="http://www.w3.org/2000/svg"
   xmlns="http://www.w3.org/2000/svg"
   xmlns:sodipodi="http://sodipodi.sourceforge.net/DTD/sodipodi-0.dtd"
   xmlns:inkscape="http://www.inkscape.org/namespaces/inkscape"
   height="22"
   viewBox="0 0 19.25 19.25"
   width="22"
   version="1.1"
   id="svg3902"
   sodipodi:docname="add.svg"
   inkscape:version="0.92.3 (5aff6ba, 2018-11-25)">
  <metadata
     id="metadata3908">
    <rdf:RDF>
      <cc:Work
         rdf:about="">
        <dc:format>image/svg+xml</dc:format>
        <dc:type
           rdf:resource="http://purl.org/dc/dcmitype/StillImage" />
        <dc:title></dc:title>
      </cc:Work>
    </rdf:RDF>
  </metadata>
  <defs
     id="defs3906" />
  <sodipodi:namedview
     pagecolor="#ffffff"
     bordercolor="#666666"
     borderopacity="1"
     objecttolerance="10"
     gridtolerance="10"
     guidetolerance="10"
     inkscape:pageopacity="0"
     inkscape:pageshadow="2"
     inkscape:window-width="1871"
     inkscape:window-height="1025"
     id="namedview3904"
     showgrid="false"
     fit-margin-top="1"
     fit-margin-left="1"
     fit-margin-right="1"
     fit-margin-bottom="1"
     inkscape:zoom="0.4609375"
     inkscape:cx="-371.91525"
     inkscape:cy="11"
     inkscape:window-x="49"
     inkscape:window-y="27"
     inkscape:window-maximized="1"
     inkscape:current-layer="svg3902" />
  <path
     d="M 16.8125,8.0625 H 11.5 c -0.17258,0 -0.3125,-0.13992 -0.3125,-0.3125 V 2.4375 C 11.1875,1.57462 10.48788,0.875 9.625,0.875 8.76212,0.875 8.0625,1.57462 8.0625,2.4375 V 7.75 c 0,0.17258 -0.13992,0.3125 -0.3125,0.3125 H 2.4375 c -0.86288,0 -1.5625,0.69962 -1.5625,1.5625 0,0.86288 0.69962,1.5625 1.5625,1.5625 H 7.75 c 0.17258,0 0.3125,0.13992 0.3125,0.3125 v 5.3125 c 0,0.86288 0.69962,1.5625 1.5625,1.5625 0.86288,0 1.5625,-0.69962 1.5625,-1.5625 V 11.5 c 0,-0.17258 0.13992,-0.3125 0.3125,-0.3125 h 5.3125 c 0.86288,0 1.5625,-0.69962 1.5625,-1.5625 0,-0.86288 -0.69962,-1.5625 -1.5625,-1.5625 z m 0,0"
     id="path3900"
     inkscape:connector-curvature="0"
     style="fill:#0e86fe;stroke-width:0.0390625" />
</svg>
