<?xml version="1.0" encoding="UTF-8" standalone="no"?>
<svg
   xmlns:dc="http://purl.org/dc/elements/1.1/"
   xmlns:cc="http://creativecommons.org/ns#"
   xmlns:rdf="http://www.w3.org/1999/02/22-rdf-syntax-ns#"
   xmlns:svg="http://www.w3.org/2000/svg"
   xmlns="http://www.w3.org/2000/svg"
   xmlns:sodipodi="http://sodipodi.sourceforge.net/DTD/sodipodi-0.dtd"
   xmlns:inkscape="http://www.inkscape.org/namespaces/inkscape"
   height="9.7907085pt"
   viewBox="0 -24 11.270764 9.7907085"
   width="11.250102pt"
   version="1.1"
   id="svg1954"
   sodipodi:docname="change.svg"
   inkscape:version="0.92.3 (5aff6ba, 2018-11-25)">
  <metadata
     id="metadata1960">
    <rdf:RDF>
      <cc:Work
         rdf:about="">
        <dc:format>image/svg+xml</dc:format>
        <dc:type
           rdf:resource="http://purl.org/dc/dcmitype/StillImage" />
        <dc:title></dc:title>
      </cc:Work>
    </rdf:RDF>
  </metadata>
  <defs
     id="defs1958" />
  <sodipodi:namedview
     pagecolor="#ffffff"
     bordercolor="#666666"
     borderopacity="1"
     objecttolerance="10"
     gridtolerance="10"
     guidetolerance="10"
     inkscape:pageopacity="0"
     inkscape:pageshadow="2"
     inkscape:window-width="1871"
     inkscape:window-height="1025"
     id="namedview1956"
     showgrid="false"
     fit-margin-top="0"
     fit-margin-left="0"
     fit-margin-right="0"
     fit-margin-bottom="0"
     inkscape:zoom="0.48097826"
     inkscape:cx="7.5000902"
     inkscape:cy="7.5461222"
     inkscape:window-x="49"
     inkscape:window-y="27"
     inkscape:window-maximized="1"
     inkscape:current-layer="svg1954" />
  <path
     d="M 2.69488,-14.738024 H 0.62611 c -0.23048,0 -0.41737,-0.18689 -0.41737,-0.41736 0,-0.23048 0.18689,-0.41737 0.41737,-0.41737 h 1.85561 l 4.70752,-6.50558 c 0.0785,-0.10843 0.20421,-0.17267 0.33807,-0.17267 h 2.90744 c 0.23059,0 0.41748,0.18689 0.41748,0.41736 0,0.23047 -0.18689,0.41736 -0.41748,0.41736 H 7.74047 l -4.70752,6.50558 c -0.0783,0.10855 -0.2042,0.17268 -0.33807,0.17268 z m 0,0"
     id="path1924"
     inkscape:connector-curvature="0"
     style="fill:#5c9eff;stroke-width:0.03057066" />
  <path
     d="M 2.69488,-14.529284 H 0.62611 c -0.34524,0 -0.62611,-0.28087 -0.62611,-0.6261 0,-0.34524 0.28087,-0.62611 0.62611,-0.62611 h 1.74897 l 4.64495,-6.41912 c 0.11739,-0.16229 0.3069,-0.25913 0.50728,-0.25913 h 2.90744 c 0.34523,0 0.6261,0.28087 0.6261,0.6261 0,0.34523 -0.28087,0.6261 -0.6261,0.6261 H 7.84711 l -4.64495,6.41912 c -0.11739,0.16229 -0.3069,0.25914 -0.50728,0.25914 z m -2.06877,-0.83484 c -0.11512,0 -0.20874,0.0936 -0.20874,0.20874 0,0.11511 0.0936,0.20874 0.20874,0.20874 h 2.06877 c 0.0666,0 0.12981,-0.0323 0.16897,-0.0863 l 4.70753,-6.50558 c 0.0393,-0.0542 0.10222,-0.0863 0.16909,-0.0863 h 2.69428 c 0.11524,0 0.20874,-0.0936 0.20874,-0.20874 0,-0.115 -0.0935,-0.20862 -0.20874,-0.20862 H 7.52731 c -0.0666,0 -0.1298,0.0322 -0.16897,0.0863 l -4.70753,6.50546 c -0.0393,0.0543 -0.10222,0.0863 -0.16909,0.0863 z m 0,0"
     id="path1926"
     inkscape:connector-curvature="0"
     style="fill:#0e65e5;stroke-width:0.03057066" />
  <path
     d="m 9.39105,-19.955344 c -0.0951,0 -0.19095,-0.0325 -0.26941,-0.0987 -0.1759,-0.14892 -0.19787,-0.41223 -0.0491,-0.58825 l 1.02126,-1.20706 -1.01755,-1.17136 c -0.15118,-0.17399 -0.13268,-0.43766 0.0413,-0.58885 0.17423,-0.1513 0.43767,-0.13255 0.58885,0.0414 l 1.25208,1.44136 c 0.13518,0.15548 0.13661,0.38619 0.004,0.54335 l -1.2522,1.48029 c -0.0825,0.0976 -0.20026,0.14783 -0.31896,0.14783 z m 0,0"
     id="path1928"
     inkscape:connector-curvature="0"
     style="fill:#94c1ff;stroke-width:0.03057066" />
  <path
     d="m 9.39105,-19.746724 c -0.14772,0 -0.29114,-0.0525 -0.40411,-0.14807 -0.26355,-0.22295 -0.29651,-0.6187 -0.0738,-0.88225 l 0.90578,-1.07057 -0.90028,-1.0363 c -0.10963,-0.12622 -0.1636,-0.28768 -0.15178,-0.4545 0.0116,-0.16683 0.0876,-0.31908 0.21399,-0.42871 0.26021,-0.22617 0.65644,-0.19871 0.88309,0.062 l 1.2522,1.44148 c 0.20397,0.23465 0.20623,0.57738 0.005,0.8149 l -1.2522,1.48029 c -0.11918,0.14103 -0.29352,0.22175 -0.47838,0.22175 z m 0,-3.75637 c -0.0485,0 -0.0972,0.0168 -0.13649,0.0511 -0.0422,0.0366 -0.0675,0.0873 -0.0715,0.14283 -0.004,0.0556 0.0142,0.1095 0.0508,0.15142 l 1.01767,1.17147 c 0.0675,0.0776 0.0683,0.19298 0.002,0.27168 l -1.02125,1.20706 c -0.0742,0.0878 -0.0632,0.21985 0.0245,0.29412 0.0482,0.0407 0.0998,0.0493 0.1347,0.0493 0.0617,0 0.11977,-0.027 0.15954,-0.0739 l 1.2522,-1.48028 c 0.0671,-0.0792 0.0663,-0.19334 -0.002,-0.27156 l -1.2522,-1.44148 c -0.0412,-0.0474 -0.0994,-0.0718 -0.15787,-0.0718 z m 0,0"
     id="path1930"
     inkscape:connector-curvature="0"
     style="fill:#0e65e5;stroke-width:0.03057066" />
  <path
     d="M 10.43475,-16.198854 H 7.52731 c -0.13386,0 -0.25973,-0.0642 -0.33807,-0.17279 l -4.70752,-6.50546 H 0.62611 c -0.23048,0 -0.41737,-0.18689 -0.41737,-0.41736 0,-0.2306 0.18689,-0.41749 0.41737,-0.41749 h 2.06877 c 0.13387,0 0.25973,0.0643 0.33807,0.1728 l 4.70752,6.50546 h 2.69428 c 0.23059,0 0.41748,0.18689 0.41748,0.41748 0,0.23048 -0.18689,0.41736 -0.41748,0.41736 z m 0,0"
     id="path1932"
     inkscape:connector-curvature="0"
     style="fill:#94c1ff;stroke-width:0.03057066" />
  <g
     id="g1944"
     transform="matrix(0.03057066,0,0,0.03057066,0,-24.348324)"
     style="fill:#0e65e5">
    <path
       d="m 341.33203,273.40625 h -95.10547 c -6.55469,0 -12.7539,-3.16797 -16.59375,-8.47656 L 77.691406,54.953125 H 20.480469 C 9.1875,54.953125 0,45.765625 0,34.472656 0,23.179688 9.1875,13.992188 20.480469,13.992188 h 67.671875 c 6.554687,0 12.753906,3.167968 16.593746,8.472656 L 256.6875,232.44531 h 84.64453 c 11.29297,0 20.48047,9.1875 20.48047,20.48047 0,11.29297 -9.1875,20.48047 -20.48047,20.48047 z M 20.480469,27.644531 c -3.765625,0 -6.828125,3.0625 -6.828125,6.828125 0,3.761719 3.0625,6.824219 6.828125,6.824219 h 60.699219 c 2.1875,0 4.246093,1.050781 5.53125,2.824219 L 240.69922,256.92578 c 1.28125,1.76953 3.34765,2.82422 5.52734,2.82422 h 95.10547 c 3.76953,0 6.82813,-3.0625 6.82813,-6.82812 0,-3.76563 -3.0586,-6.82422 -6.82813,-6.82422 h -88.13281 c -2.1875,0 -4.2461,-1.05078 -5.53125,-2.82422 L 93.679688,30.46875 c -1.28125,-1.769531 -3.347657,-2.824219 -5.527344,-2.824219 z m 0,0"
       id="path1934"
       inkscape:connector-curvature="0" />
    <path
       d="m 88.746094,171.00391 c -3.773438,0 -6.824219,-3.05469 -6.824219,-6.82422 v -27.3086 c 0,-3.76953 3.050781,-6.82812 6.824219,-6.82812 3.773437,0 6.828125,3.05859 6.828125,6.82812 v 27.3086 c 0,3.76953 -3.054688,6.82422 -6.828125,6.82422 z m 0,0"
       id="path1936"
       inkscape:connector-curvature="0" />
    <path
       d="M 102.39844,157.35156 H 75.09375 c -3.773438,0 -6.828125,-3.05859 -6.828125,-6.82812 0,-3.76953 3.054687,-6.82422 6.828125,-6.82422 h 27.30469 c 3.77344,0 6.82812,3.05469 6.82812,6.82422 0,3.76953 -3.05468,6.82812 -6.82812,6.82812 z m 0,0"
       id="path1938"
       inkscape:connector-curvature="0" />
    <path
       d="m 218.45312,41.296875 c -3.77343,0 -6.82812,-3.054687 -6.82812,-6.824219 V 7.164062 c 0,-3.769531 3.05469,-6.824218 6.82812,-6.824218 3.77344,0 6.82813,3.054687 6.82813,6.824218 v 27.308594 c 0,3.769532 -3.05469,6.824219 -6.82813,6.824219 z m 0,0"
       id="path1940"
       inkscape:connector-curvature="0" />
    <path
       d="m 232.10547,27.644531 h -27.30469 c -3.77344,0 -6.82812,-3.054687 -6.82812,-6.828125 0,-3.769531 3.05468,-6.824218 6.82812,-6.824218 h 27.30469 c 3.77344,0 6.82812,3.054687 6.82812,6.824218 0,3.773438 -3.05468,6.828125 -6.82812,6.828125 z m 0,0"
       id="path1942"
       inkscape:connector-curvature="0" />
  </g>
  <path
     d="m 9.39105,-14.738024 c -0.097,0 -0.19441,-0.0336 -0.27347,-0.10222 -0.17399,-0.15118 -0.19249,-0.41486 -0.0413,-0.58885 l 1.01755,-1.17124 -1.02126,-1.20718 c -0.14879,-0.17602 -0.12682,-0.43945 0.0491,-0.58824 0.17638,-0.14892 0.4397,-0.12683 0.58837,0.0491 l 1.2522,1.48028 c 0.13291,0.15728 0.13148,0.38799 -0.004,0.54335 l -1.25208,1.44136 c -0.0826,0.095 -0.19859,0.14366 -0.31538,0.14366 z m 0,0"
     id="path1946"
     inkscape:connector-curvature="0"
     style="fill:#5c9eff;stroke-width:0.03057066" />
  <path
     d="m 9.39105,-14.529284 c -0.15059,0 -0.29627,-0.0546 -0.4102,-0.15345 -0.12634,-0.10963 -0.20241,-0.262 -0.21399,-0.42871 -0.0118,-0.16682 0.0421,-0.32828 0.15178,-0.4545 l 0.90028,-1.03618 -0.90578,-1.07057 c -0.22271,-0.26367 -0.18975,-0.65954 0.0736,-0.88237 0.26439,-0.22295 0.65978,-0.18975 0.88273,0.0736 l 1.2522,1.48041 c 0.20074,0.23764 0.19848,0.58037 -0.005,0.81502 l -1.2522,1.44124 c -0.11906,0.13697 -0.29126,0.21555 -0.47289,0.21555 z m 2.4e-4,-3.75637 c -0.0479,0 -0.0958,0.0161 -0.13494,0.0492 -0.0877,0.0743 -0.0986,0.20635 -0.0245,0.29424 l 1.02125,1.20706 c 0.0665,0.0786 0.0657,0.19394 -0.002,0.27168 l -1.01755,1.17123 c -0.0365,0.0422 -0.0547,0.0959 -0.0508,0.15142 0.004,0.0556 0.0293,0.10641 0.0713,0.14295 0.0487,0.0423 0.10126,0.0511 0.13673,0.0511 0.0605,0 0.11798,-0.0262 0.15775,-0.0718 l 1.2522,-1.44148 c 0.0681,-0.0782 0.0687,-0.1925 0.002,-0.27167 l -1.2522,-1.48029 c -0.0411,-0.0486 -0.1,-0.0737 -0.1593,-0.0737 z m 0,0"
     id="path1948"
     inkscape:connector-curvature="0"
     style="fill:#0e65e5;stroke-width:0.03057066" />
  <path
     d="m 6.2609,-14.529284 c -0.11536,0 -0.20874,-0.0935 -0.20874,-0.20874 v -0.83473 c 0,-0.11523 0.0934,-0.20874 0.20874,-0.20874 0.11536,0 0.20862,0.0935 0.20862,0.20874 v 0.83473 c 0,0.11523 -0.0933,0.20874 -0.20862,0.20874 z m 0,0"
     id="path1950"
     inkscape:connector-curvature="0"
     style="fill:#0e65e5;stroke-width:0.03057066" />
  <path
     d="M 6.67826,-14.946644 H 5.84354 c -0.11536,0 -0.20874,-0.0935 -0.20874,-0.20874 0,-0.11524 0.0934,-0.20874 0.20874,-0.20874 h 0.83472 c 0.11536,0 0.20874,0.0935 0.20874,0.20874 0,0.11523 -0.0934,0.20874 -0.20874,0.20874 z m 0,0"
     id="path1952"
     inkscape:connector-curvature="0"
     style="fill:#0e65e5;stroke-width:0.03057066" />
</svg>
