<?xml version="1.0" encoding="UTF-8" standalone="no"?>
<!-- Generator: Adobe Illustrator 16.0.0, SVG Export Plug-In . SVG Version: 6.00 Build 0)  -->

<svg
   xmlns:dc="http://purl.org/dc/elements/1.1/"
   xmlns:cc="http://creativecommons.org/ns#"
   xmlns:rdf="http://www.w3.org/1999/02/22-rdf-syntax-ns#"
   xmlns:svg="http://www.w3.org/2000/svg"
   xmlns="http://www.w3.org/2000/svg"
   xmlns:sodipodi="http://sodipodi.sourceforge.net/DTD/sodipodi-0.dtd"
   xmlns:inkscape="http://www.inkscape.org/namespaces/inkscape"
   version="1.1"
   id="Capa_1"
   x="0px"
   y="0px"
   width="13.999999"
   height="13.999856"
   viewBox="0 0 1.1417656 1.1417539"
   xml:space="preserve"
   sodipodi:docname="close-cross.svg"
   inkscape:version="0.92.3 (5aff6ba, 2018-11-25)"><metadata
   id="metadata171"><rdf:RDF><cc:Work
       rdf:about=""><dc:format>image/svg+xml</dc:format><dc:type
         rdf:resource="http://purl.org/dc/dcmitype/StillImage" /><dc:title></dc:title></cc:Work></rdf:RDF></metadata><defs
   id="defs169" /><sodipodi:namedview
   pagecolor="#ffffff"
   bordercolor="#666666"
   borderopacity="1"
   objecttolerance="10"
   gridtolerance="10"
   guidetolerance="10"
   inkscape:pageopacity="0"
   inkscape:pageshadow="2"
   inkscape:window-width="1871"
   inkscape:window-height="1025"
   id="namedview167"
   showgrid="false"
   fit-margin-top="1"
   fit-margin-left="1"
   fit-margin-right="1"
   fit-margin-bottom="1"
   inkscape:zoom="1.6386719"
   inkscape:cx="7.0000008"
   inkscape:cy="7.0060519"
   inkscape:window-x="49"
   inkscape:window-y="27"
   inkscape:window-maximized="1"
   inkscape:current-layer="Capa_1" />
<g
   id="g134"
   transform="matrix(0.02343778,0,0,0.02343778,0.08154883,0.08153125)">
	<path
   d="M 27.948,20.878 40.291,8.536 c 1.953,-1.953 1.953,-5.119 0,-7.071 -1.951,-1.952 -5.119,-1.952 -7.07,0 L 20.878,13.809 8.535,1.465 c -1.951,-1.952 -5.119,-1.952 -7.07,0 -1.953,1.953 -1.953,5.119 0,7.071 L 13.807,20.878 1.465,33.22 c -1.953,1.953 -1.953,5.119 0,7.071 0.975,0.977 2.256,1.464 3.535,1.464 1.278,0 2.56,-0.487 3.535,-1.464 L 20.878,27.949 33.221,40.292 c 0.976,0.977 2.256,1.464 3.535,1.464 1.279,0 2.56,-0.487 3.535,-1.464 1.953,-1.953 1.953,-5.119 0,-7.071 z"
   id="path132"
   inkscape:connector-curvature="0"
   style="fill:#0e86fe" />
</g>
<g
   id="g136"
   transform="translate(-20.307117,-20.307622)">
</g>
<g
   id="g138"
   transform="translate(-20.307117,-20.307622)">
</g>
<g
   id="g140"
   transform="translate(-20.307117,-20.307622)">
</g>
<g
   id="g142"
   transform="translate(-20.307117,-20.307622)">
</g>
<g
   id="g144"
   transform="translate(-20.307117,-20.307622)">
</g>
<g
   id="g146"
   transform="translate(-20.307117,-20.307622)">
</g>
<g
   id="g148"
   transform="translate(-20.307117,-20.307622)">
</g>
<g
   id="g150"
   transform="translate(-20.307117,-20.307622)">
</g>
<g
   id="g152"
   transform="translate(-20.307117,-20.307622)">
</g>
<g
   id="g154"
   transform="translate(-20.307117,-20.307622)">
</g>
<g
   id="g156"
   transform="translate(-20.307117,-20.307622)">
</g>
<g
   id="g158"
   transform="translate(-20.307117,-20.307622)">
</g>
<g
   id="g160"
   transform="translate(-20.307117,-20.307622)">
</g>
<g
   id="g162"
   transform="translate(-20.307117,-20.307622)">
</g>
<g
   id="g164"
   transform="translate(-20.307117,-20.307622)">
</g>
</svg>