<?xml version="1.0" encoding="UTF-8" standalone="no"?>
<!-- Generator: Adobe Illustrator 16.0.0, SVG Export Plug-In . SVG Version: 6.00 Build 0)  -->

<svg
   xmlns:dc="http://purl.org/dc/elements/1.1/"
   xmlns:cc="http://creativecommons.org/ns#"
   xmlns:rdf="http://www.w3.org/1999/02/22-rdf-syntax-ns#"
   xmlns:svg="http://www.w3.org/2000/svg"
   xmlns="http://www.w3.org/2000/svg"
   xmlns:sodipodi="http://sodipodi.sourceforge.net/DTD/sodipodi-0.dtd"
   xmlns:inkscape="http://www.inkscape.org/namespaces/inkscape"
   version="1.1"
   id="Capa_1"
   x="0px"
   y="0px"
   width="21.999687"
   height="22"
   viewBox="0 0 4.1223203 4.1223789"
   xml:space="preserve"
   sodipodi:docname="delete.svg"
   inkscape:version="0.92.3 (5aff6ba, 2018-11-25)"><metadata
   id="metadata3949"><rdf:RDF><cc:Work
       rdf:about=""><dc:format>image/svg+xml</dc:format><dc:type
         rdf:resource="http://purl.org/dc/dcmitype/StillImage" /><dc:title></dc:title></cc:Work></rdf:RDF></metadata><defs
   id="defs3947" /><sodipodi:namedview
   pagecolor="#ffffff"
   bordercolor="#666666"
   borderopacity="1"
   objecttolerance="10"
   gridtolerance="10"
   guidetolerance="10"
   inkscape:pageopacity="0"
   inkscape:pageshadow="2"
   inkscape:window-width="1871"
   inkscape:window-height="1025"
   id="namedview3945"
   showgrid="false"
   fit-margin-top="1"
   fit-margin-left="1"
   fit-margin-right="1"
   fit-margin-bottom="1"
   inkscape:zoom="0.4609375"
   inkscape:cx="-371.91808"
   inkscape:cy="10.999998"
   inkscape:window-x="49"
   inkscape:window-y="27"
   inkscape:window-maximized="1"
   inkscape:current-layer="Capa_1" />
<g
   id="g3912"
   transform="matrix(0.0390625,0,0,0.0390625,0.18733203,0.18738086)">
	<path
   d="M 62.819,47.97 95.352,15.436 c 0.781,-0.781 0.781,-2.047 0,-2.828 L 83.333,0.586 C 82.958,0.211 82.448,0 81.919,0 81.389,0 80.88,0.211 80.505,0.586 L 47.97,33.121 15.435,0.586 c -0.75,-0.75 -2.078,-0.75 -2.828,0 L 0.587,12.608 c -0.781,0.781 -0.781,2.047 0,2.828 L 33.121,47.97 0.587,80.504 c -0.781,0.781 -0.781,2.047 0,2.828 l 12.02,12.021 c 0.375,0.375 0.884,0.586 1.414,0.586 0.53,0 1.039,-0.211 1.414,-0.586 L 47.97,62.818 80.505,95.353 c 0.375,0.375 0.884,0.586 1.414,0.586 0.529,0 1.039,-0.211 1.414,-0.586 l 12.02,-12.021 c 0.781,-0.781 0.781,-2.048 0,-2.828 z"
   id="path3910"
   inkscape:connector-curvature="0"
   style="fill:#d80027" />
</g>
<g
   id="g3914"
   transform="translate(-45.90884,-45.90831)">
</g>
<g
   id="g3916"
   transform="translate(-45.90884,-45.90831)">
</g>
<g
   id="g3918"
   transform="translate(-45.90884,-45.90831)">
</g>
<g
   id="g3920"
   transform="translate(-45.90884,-45.90831)">
</g>
<g
   id="g3922"
   transform="translate(-45.90884,-45.90831)">
</g>
<g
   id="g3924"
   transform="translate(-45.90884,-45.90831)">
</g>
<g
   id="g3926"
   transform="translate(-45.90884,-45.90831)">
</g>
<g
   id="g3928"
   transform="translate(-45.90884,-45.90831)">
</g>
<g
   id="g3930"
   transform="translate(-45.90884,-45.90831)">
</g>
<g
   id="g3932"
   transform="translate(-45.90884,-45.90831)">
</g>
<g
   id="g3934"
   transform="translate(-45.90884,-45.90831)">
</g>
<g
   id="g3936"
   transform="translate(-45.90884,-45.90831)">
</g>
<g
   id="g3938"
   transform="translate(-45.90884,-45.90831)">
</g>
<g
   id="g3940"
   transform="translate(-45.90884,-45.90831)">
</g>
<g
   id="g3942"
   transform="translate(-45.90884,-45.90831)">
</g>
</svg>