<?xml version="1.0" encoding="UTF-8" standalone="no"?>
<!-- Generator: Adobe Illustrator 19.0.0, SVG Export Plug-In . SVG Version: 6.00 Build 0)  -->

<svg
   xmlns:dc="http://purl.org/dc/elements/1.1/"
   xmlns:cc="http://creativecommons.org/ns#"
   xmlns:rdf="http://www.w3.org/1999/02/22-rdf-syntax-ns#"
   xmlns:svg="http://www.w3.org/2000/svg"
   xmlns="http://www.w3.org/2000/svg"
   xmlns:sodipodi="http://sodipodi.sourceforge.net/DTD/sodipodi-0.dtd"
   xmlns:inkscape="http://www.inkscape.org/namespaces/inkscape"
   version="1.1"
   id="Layer_1"
   x="0px"
   y="0px"
   viewBox="0 0 17.645703 20.324219"
   xml:space="preserve"
   width="19.100634"
   height="22"
   sodipodi:docname="delete_2.svg"
   inkscape:version="0.92.3 (5aff6ba, 2018-11-25)"><metadata
   id="metadata3992"><rdf:RDF><cc:Work
       rdf:about=""><dc:format>image/svg+xml</dc:format><dc:type
         rdf:resource="http://purl.org/dc/dcmitype/StillImage" /><dc:title></dc:title></cc:Work></rdf:RDF></metadata><defs
   id="defs3990" /><sodipodi:namedview
   pagecolor="#ffffff"
   bordercolor="#666666"
   borderopacity="1"
   objecttolerance="10"
   gridtolerance="10"
   guidetolerance="10"
   inkscape:pageopacity="0"
   inkscape:pageshadow="2"
   inkscape:window-width="1871"
   inkscape:window-height="1025"
   id="namedview3988"
   showgrid="false"
   fit-margin-top="1"
   fit-margin-left="1"
   fit-margin-right="1"
   fit-margin-bottom="1"
   inkscape:zoom="0.4609375"
   inkscape:cx="-373.36494"
   inkscape:cy="11.000001"
   inkscape:window-x="49"
   inkscape:window-y="27"
   inkscape:window-maximized="1"
   inkscape:current-layer="Layer_1" />
<g
   id="g3955"
   transform="matrix(0.0390625,0,0,0.0390625,-0.41542969,0.92382813)">
	<path
   d="M 324.285,215.015 V 128 h 20 V 38 H 245.901 V 0 H 132.669 V 38 H 34.285 v 90 h 20 v 305 h 161.523 c 23.578,24.635 56.766,40 93.477,40 71.368,0 129.43,-58.062 129.43,-129.43 0,-66.294 -50.103,-121.096 -114.43,-128.555 z m -30,0 c -18.052,2.093 -34.982,7.911 -50,16.669 V 128 h 50 z M 162.669,30 h 53.232 v 8 H 162.669 Z M 64.285,68 h 250 v 30 h -250 V 68 Z m 20,60 h 50 v 275 h -50 z m 80,275 V 128 h 50 v 127.768 c -21.356,23.089 -34.429,53.946 -34.429,87.802 0,21.411 5.231,41.622 14.475,59.43 z m 145,40 c -54.826,0 -99.429,-44.604 -99.429,-99.43 0,-54.826 44.604,-99.429 99.429,-99.429 54.825,0 99.43,44.604 99.43,99.429 0,54.825 -44.604,99.43 -99.43,99.43 z"
   id="path3951"
   inkscape:connector-curvature="0"
   style="fill:#d80027" />
	<polygon
   points="255.11,310.608 288.073,343.571 255.11,376.533 276.323,397.746 309.285,364.783 342.248,397.746 363.461,376.533 330.498,343.571 363.461,310.608 342.248,289.395 309.285,322.358 276.323,289.395 "
   id="polygon3953"
   style="fill:#d80027" />
</g>
<g
   id="g3957"
   transform="translate(-227.67715,-226.33789)">
</g>
<g
   id="g3959"
   transform="translate(-227.67715,-226.33789)">
</g>
<g
   id="g3961"
   transform="translate(-227.67715,-226.33789)">
</g>
<g
   id="g3963"
   transform="translate(-227.67715,-226.33789)">
</g>
<g
   id="g3965"
   transform="translate(-227.67715,-226.33789)">
</g>
<g
   id="g3967"
   transform="translate(-227.67715,-226.33789)">
</g>
<g
   id="g3969"
   transform="translate(-227.67715,-226.33789)">
</g>
<g
   id="g3971"
   transform="translate(-227.67715,-226.33789)">
</g>
<g
   id="g3973"
   transform="translate(-227.67715,-226.33789)">
</g>
<g
   id="g3975"
   transform="translate(-227.67715,-226.33789)">
</g>
<g
   id="g3977"
   transform="translate(-227.67715,-226.33789)">
</g>
<g
   id="g3979"
   transform="translate(-227.67715,-226.33789)">
</g>
<g
   id="g3981"
   transform="translate(-227.67715,-226.33789)">
</g>
<g
   id="g3983"
   transform="translate(-227.67715,-226.33789)">
</g>
<g
   id="g3985"
   transform="translate(-227.67715,-226.33789)">
</g>
</svg>