<?xml version="1.0" encoding="UTF-8" standalone="no"?>
<!-- Generator: Adobe Illustrator 16.0.0, SVG Export Plug-In . SVG Version: 6.00 Build 0)  -->

<svg
   xmlns:dc="http://purl.org/dc/elements/1.1/"
   xmlns:cc="http://creativecommons.org/ns#"
   xmlns:rdf="http://www.w3.org/1999/02/22-rdf-syntax-ns#"
   xmlns:svg="http://www.w3.org/2000/svg"
   xmlns="http://www.w3.org/2000/svg"
   xmlns:sodipodi="http://sodipodi.sourceforge.net/DTD/sodipodi-0.dtd"
   xmlns:inkscape="http://www.inkscape.org/namespaces/inkscape"
   version="1.1"
   id="Capa_1"
   x="0px"
   y="0px"
   width="19.80147"
   height="20.000002"
   viewBox="0 0 37.532951 37.909261"
   xml:space="preserve"
   sodipodi:docname="double-left-arrows_b1.svg"
   inkscape:version="0.92.3 (5aff6ba, 2018-11-25)"><metadata
   id="metadata636"><rdf:RDF><cc:Work
       rdf:about=""><dc:format>image/svg+xml</dc:format><dc:type
         rdf:resource="http://purl.org/dc/dcmitype/StillImage" /><dc:title></dc:title></cc:Work></rdf:RDF></metadata><defs
   id="defs634" /><sodipodi:namedview
   pagecolor="#ffffff"
   bordercolor="#666666"
   borderopacity="1"
   objecttolerance="10"
   gridtolerance="10"
   guidetolerance="10"
   inkscape:pageopacity="0"
   inkscape:pageshadow="2"
   inkscape:window-width="1871"
   inkscape:window-height="1025"
   id="namedview632"
   showgrid="false"
   fit-margin-top="1"
   fit-margin-left="1"
   fit-margin-right="1"
   fit-margin-bottom="1"
   inkscape:zoom="0.4609375"
   inkscape:cx="9.9006247"
   inkscape:cy="9.9998925"
   inkscape:window-x="49"
   inkscape:window-y="27"
   inkscape:window-maximized="1"
   inkscape:current-layer="Capa_1" />
<g
   id="g599"
   transform="matrix(0.03515624,0,0,0.03515624,1.7073067,1.8954774)">
	<path
   d="m 842.849,970.477 c 26.601,0 53.5,-8.8 75.7,-27 51.4,-41.9 59.101,-117.4 17.2,-168.8 l -234.6,-288 237,-290.9 c 41.899,-51.399 34.1,-127 -17.2,-168.8 -51.4,-41.899 -127,-34.1 -168.8,17.2 l -298.8,366.7 c -36,44.1 -36,107.399 0,151.6 l 296.4,363.9 c 23.701,29 58.3,44.1 93.1,44.1 z"
   id="path595"
   inkscape:connector-curvature="0"
   style="fill:#0e86fe" />
	<path
   d="m 328.85,926.276 c 23.7,29.101 58.301,44.2 93.101,44.2 26.6,0 53.5,-8.8 75.7,-27 51.399,-41.9 59.1,-117.4 17.199,-168.8 l -234.599,-288 237,-290.9 c 41.9,-51.399 34.1,-127 -17.2,-168.8 -51.399,-41.899 -127,-34.1 -168.799,17.2 l -298.9,366.7 c -36,44.1 -36,107.5 0,151.6 z"
   id="path597"
   inkscape:connector-curvature="0"
   style="fill:#0e86fe" />
</g>
<g
   id="g601"
   transform="translate(-466.47223,-466.28366)">
</g>
<g
   id="g603"
   transform="translate(-466.47223,-466.28366)">
</g>
<g
   id="g605"
   transform="translate(-466.47223,-466.28366)">
</g>
<g
   id="g607"
   transform="translate(-466.47223,-466.28366)">
</g>
<g
   id="g609"
   transform="translate(-466.47223,-466.28366)">
</g>
<g
   id="g611"
   transform="translate(-466.47223,-466.28366)">
</g>
<g
   id="g613"
   transform="translate(-466.47223,-466.28366)">
</g>
<g
   id="g615"
   transform="translate(-466.47223,-466.28366)">
</g>
<g
   id="g617"
   transform="translate(-466.47223,-466.28366)">
</g>
<g
   id="g619"
   transform="translate(-466.47223,-466.28366)">
</g>
<g
   id="g621"
   transform="translate(-466.47223,-466.28366)">
</g>
<g
   id="g623"
   transform="translate(-466.47223,-466.28366)">
</g>
<g
   id="g625"
   transform="translate(-466.47223,-466.28366)">
</g>
<g
   id="g627"
   transform="translate(-466.47223,-466.28366)">
</g>
<g
   id="g629"
   transform="translate(-466.47223,-466.28366)">
</g>
</svg>