<?xml version="1.0" encoding="UTF-8" standalone="no"?>
<!-- Generator: Adobe Illustrator 16.0.0, SVG Export Plug-In . SVG Version: 6.00 Build 0)  -->

<svg
   xmlns:dc="http://purl.org/dc/elements/1.1/"
   xmlns:cc="http://creativecommons.org/ns#"
   xmlns:rdf="http://www.w3.org/1999/02/22-rdf-syntax-ns#"
   xmlns:svg="http://www.w3.org/2000/svg"
   xmlns="http://www.w3.org/2000/svg"
   xmlns:sodipodi="http://sodipodi.sourceforge.net/DTD/sodipodi-0.dtd"
   xmlns:inkscape="http://www.inkscape.org/namespaces/inkscape"
   version="1.1"
   id="Capa_1"
   x="0px"
   y="0px"
   width="19.794153"
   height="20"
   viewBox="0 0 37.524882 37.915117"
   xml:space="preserve"
   sodipodi:docname="double-right-arrows_b.svg"
   inkscape:version="0.92.3 (5aff6ba, 2018-11-25)"><metadata
   id="metadata403"><rdf:RDF><cc:Work
       rdf:about=""><dc:format>image/svg+xml</dc:format><dc:type
         rdf:resource="http://purl.org/dc/dcmitype/StillImage" /><dc:title></dc:title></cc:Work></rdf:RDF></metadata><defs
   id="defs401" /><sodipodi:namedview
   pagecolor="#ffffff"
   bordercolor="#666666"
   borderopacity="1"
   objecttolerance="10"
   gridtolerance="10"
   guidetolerance="10"
   inkscape:pageopacity="0"
   inkscape:pageshadow="2"
   inkscape:window-width="1871"
   inkscape:window-height="1025"
   id="namedview399"
   showgrid="false"
   fit-margin-top="1"
   fit-margin-left="1"
   fit-margin-right="1"
   fit-margin-bottom="1"
   inkscape:zoom="0.4609375"
   inkscape:cx="9.8970639"
   inkscape:cy="10.000012"
   inkscape:window-x="49"
   inkscape:window-y="27"
   inkscape:window-maximized="1"
   inkscape:current-layer="Capa_1" />
<g
   id="g366"
   transform="matrix(0.03515625,0,0,0.03515625,1.7006369,1.8957541)">
	<path
   d="m 49.777,943.627 c 22.3,18.101 49.1,27 75.7,27 34.8,0 69.4,-15.1 93.1,-44.199 l 298.7,-366.7 c 36,-44.101 36,-107.401 0,-151.601 L 220.877,44.228 c -41.9,-51.4 -117.4,-59.1 -168.8,-17.3 -51.4,41.9 -59.1,117.5 -17.3,168.9 l 234.7,288.101 -237,290.9 c -41.8,51.298 -34.1,126.899 17.3,168.798 z"
   id="path362"
   inkscape:connector-curvature="0"
   style="fill:#0e86fe" />
	<path
   d="m 641.777,44.227 c -41.801,-51.4 -117.4,-59.1 -168.801,-17.3 -51.399,41.9 -59.1,117.4 -17.199,168.8 l 234.6,288.1 -237,290.901 c -41.9,51.399 -34.1,127 17.2,168.8 22.3,18.1 49.1,27 75.7,27 34.8,0 69.399,-15.1 93.1,-44.2 l 298.7,-366.7 c 36,-44.1 36,-107.4 0,-151.6 z"
   id="path364"
   inkscape:connector-curvature="0"
   style="fill:#0e86fe" />
</g>
<g
   id="g368"
   transform="translate(-466.55108,-466.35597)">
</g>
<g
   id="g370"
   transform="translate(-466.55108,-466.35597)">
</g>
<g
   id="g372"
   transform="translate(-466.55108,-466.35597)">
</g>
<g
   id="g374"
   transform="translate(-466.55108,-466.35597)">
</g>
<g
   id="g376"
   transform="translate(-466.55108,-466.35597)">
</g>
<g
   id="g378"
   transform="translate(-466.55108,-466.35597)">
</g>
<g
   id="g380"
   transform="translate(-466.55108,-466.35597)">
</g>
<g
   id="g382"
   transform="translate(-466.55108,-466.35597)">
</g>
<g
   id="g384"
   transform="translate(-466.55108,-466.35597)">
</g>
<g
   id="g386"
   transform="translate(-466.55108,-466.35597)">
</g>
<g
   id="g388"
   transform="translate(-466.55108,-466.35597)">
</g>
<g
   id="g390"
   transform="translate(-466.55108,-466.35597)">
</g>
<g
   id="g392"
   transform="translate(-466.55108,-466.35597)">
</g>
<g
   id="g394"
   transform="translate(-466.55108,-466.35597)">
</g>
<g
   id="g396"
   transform="translate(-466.55108,-466.35597)">
</g>
</svg>