<?xml version="1.0" encoding="UTF-8" standalone="no"?>
<!-- Generator: Adobe Illustrator 16.0.0, SVG Export Plug-In . SVG Version: 6.00 Build 0)  -->

<svg
   xmlns:dc="http://purl.org/dc/elements/1.1/"
   xmlns:cc="http://creativecommons.org/ns#"
   xmlns:rdf="http://www.w3.org/1999/02/22-rdf-syntax-ns#"
   xmlns:svg="http://www.w3.org/2000/svg"
   xmlns="http://www.w3.org/2000/svg"
   xmlns:sodipodi="http://sodipodi.sourceforge.net/DTD/sodipodi-0.dtd"
   xmlns:inkscape="http://www.inkscape.org/namespaces/inkscape"
   version="1.1"
   id="Capa_1"
   x="0px"
   y="0px"
   width="36"
   height="36"
   viewBox="0 0 11.982023 11.982023"
   xml:space="preserve"
   sodipodi:docname="group.svg"
   inkscape:version="0.92.3 (d244b95, 2018-08-02)"><metadata
   id="metadata392"><rdf:RDF><cc:Work
       rdf:about=""><dc:format>image/svg+xml</dc:format><dc:type
         rdf:resource="http://purl.org/dc/dcmitype/StillImage" /><dc:title></dc:title></cc:Work></rdf:RDF></metadata><defs
   id="defs390" /><sodipodi:namedview
   pagecolor="#ffffff"
   bordercolor="#666666"
   borderopacity="1"
   objecttolerance="10"
   gridtolerance="10"
   guidetolerance="10"
   inkscape:pageopacity="0"
   inkscape:pageshadow="2"
   inkscape:window-width="1871"
   inkscape:window-height="1025"
   id="namedview388"
   showgrid="false"
   fit-margin-top="0"
   fit-margin-left="0"
   fit-margin-right="0"
   fit-margin-bottom="0"
   inkscape:zoom="14.132506"
   inkscape:cx="10.661763"
   inkscape:cy="13.839811"
   inkscape:window-x="49"
   inkscape:window-y="27"
   inkscape:window-maximized="1"
   inkscape:current-layer="Capa_1"
   inkscape:pagecheckerboard="true" />
<g
   id="g355"
   transform="matrix(0.0703125,0,0,0.07580009,0,-0.46753497)">
	<g
   id="g353">
		<rect
   x="65.291"
   y="6.1680002"
   width="17.488001"
   height="17.488001"
   id="rect341"
   style="fill:#0e86fe" />
		<rect
   x="45.181"
   y="30.452"
   width="10.687"
   height="10.689"
   id="rect343"
   style="fill:#0e86fe" />
		<polygon
   points="91.325,16.082 91.325,51.048 112.321,51.048 112.321,37.061 126.301,37.061 126.301,16.082 "
   id="polygon345"
   style="fill:#0e86fe" />
		<polygon
   points="135.916,95.155 170.411,95.155 170.411,41.726 116.985,41.726 116.985,78.06 135.916,78.06 "
   id="polygon347"
   style="fill:#0e86fe" />
		<polygon
   points="0,48.917 0,114.202 38.964,114.202 38.964,78.06 65.291,78.06 65.291,48.917 "
   id="polygon349"
   style="fill:#0e86fe" />
		<rect
   x="49.738998"
   y="88.834"
   width="75.404999"
   height="75.407997"
   id="rect351"
   style="fill:#0e86fe" />
	</g>
</g>
<g
   id="g357"
   transform="matrix(0.0703125,0,0,0.07580009,0,-0.46753497)">
</g>
<g
   id="g359"
   transform="matrix(0.0703125,0,0,0.07580009,0,-0.46753497)">
</g>
<g
   id="g361"
   transform="matrix(0.0703125,0,0,0.07580009,0,-0.46753497)">
</g>
<g
   id="g363"
   transform="matrix(0.0703125,0,0,0.07580009,0,-0.46753497)">
</g>
<g
   id="g365"
   transform="matrix(0.0703125,0,0,0.07580009,0,-0.46753497)">
</g>
<g
   id="g367"
   transform="matrix(0.0703125,0,0,0.07580009,0,-0.46753497)">
</g>
<g
   id="g369"
   transform="matrix(0.0703125,0,0,0.07580009,0,-0.46753497)">
</g>
<g
   id="g371"
   transform="matrix(0.0703125,0,0,0.07580009,0,-0.46753497)">
</g>
<g
   id="g373"
   transform="matrix(0.0703125,0,0,0.07580009,0,-0.46753497)">
</g>
<g
   id="g375"
   transform="matrix(0.0703125,0,0,0.07580009,0,-0.46753497)">
</g>
<g
   id="g377"
   transform="matrix(0.0703125,0,0,0.07580009,0,-0.46753497)">
</g>
<g
   id="g379"
   transform="matrix(0.0703125,0,0,0.07580009,0,-0.46753497)">
</g>
<g
   id="g381"
   transform="matrix(0.0703125,0,0,0.07580009,0,-0.46753497)">
</g>
<g
   id="g383"
   transform="matrix(0.0703125,0,0,0.07580009,0,-0.46753497)">
</g>
<g
   id="g385"
   transform="matrix(0.0703125,0,0,0.07580009,0,-0.46753497)">
</g>
</svg>