<?xml version="1.0" encoding="UTF-8" standalone="no"?>
<svg
   xmlns:dc="http://purl.org/dc/elements/1.1/"
   xmlns:cc="http://creativecommons.org/ns#"
   xmlns:rdf="http://www.w3.org/1999/02/22-rdf-syntax-ns#"
   xmlns:svg="http://www.w3.org/2000/svg"
   xmlns="http://www.w3.org/2000/svg"
   xmlns:sodipodi="http://sodipodi.sourceforge.net/DTD/sodipodi-0.dtd"
   xmlns:inkscape="http://www.inkscape.org/namespaces/inkscape"
   height="11.249998pt"
   viewBox="-7 0 10.888366 11.262247"
   width="10.888366pt"
   version="1.1"
   id="svg1203"
   sodipodi:docname="hard-link.svg"
   inkscape:version="0.92.3 (5aff6ba, 2018-11-25)">
  <metadata
     id="metadata1209">
    <rdf:RDF>
      <cc:Work
         rdf:about="">
        <dc:format>image/svg+xml</dc:format>
        <dc:type
           rdf:resource="http://purl.org/dc/dcmitype/StillImage" />
        <dc:title></dc:title>
      </cc:Work>
    </rdf:RDF>
  </metadata>
  <defs
     id="defs1207" />
  <sodipodi:namedview
     pagecolor="#ffffff"
     bordercolor="#666666"
     borderopacity="1"
     objecttolerance="10"
     gridtolerance="10"
     guidetolerance="10"
     inkscape:pageopacity="0"
     inkscape:pageshadow="2"
     inkscape:window-width="1871"
     inkscape:window-height="1025"
     id="namedview1205"
     showgrid="false"
     fit-margin-top="0"
     fit-margin-left="0"
     fit-margin-right="0"
     fit-margin-bottom="0"
     inkscape:zoom="0.41745283"
     inkscape:cx="6.4082858"
     inkscape:cy="7.4995008"
     inkscape:window-x="49"
     inkscape:window-y="27"
     inkscape:window-maximized="1"
     inkscape:current-layer="svg1203" />
  <g
     id="g1179"
     transform="matrix(0.02653306,0,0,0.02653306,-7.23694,5.912176e-8)"
     style="fill:#0e65e5">
    <path
       d="m 238.30078,237.24219 -50.84375,-50.84766 c -15.25781,-15.25781 -15.25781,-40.09375 0.004,-55.35156 L 286.5704,31.929688 c 15.26172,-15.261719 40.09766,-15.261719 55.35547,-0.0039 l 50.84375,50.847657 c 15.26172,15.257812 15.26172,40.089845 0,55.351565 l -99.11328,99.11328 C 278.39453,252.5 253.5625,252.5 238.30078,237.24219 Z M 322.61719,51.234375 c -4.61719,-4.617187 -12.1211,-4.613281 -16.73828,0 l -99.11329,99.113285 c -4.61328,4.61328 -4.61718,12.12109 0,16.73828 l 50.84375,50.84375 c 4.61719,4.61328 12.1211,4.61328 16.73829,-0.004 l 99.11328,-99.10937 c 4.61328,-4.61719 4.61719,-12.125 0,-16.73828 z m 0,0"
       id="path1167"
       inkscape:connector-curvature="0" />
    <path
       d="m 265.97266,255.50781 c -11.76954,0 -23.53516,-4.48047 -32.49219,-13.4414 l -50.84766,-50.84766 c -8.67187,-8.66797 -13.44531,-20.21094 -13.44531,-32.50391 0,-12.28906 4.77344,-23.83203 13.44531,-32.5 l 99.11328,-99.113278 c 8.66407,-8.671874 20.21485,-13.449218 32.5,-13.449218 12.29297,-0.0039 23.83985,4.773437 32.50782,13.445312 l 50.84375,50.847656 c 8.67578,8.664063 13.44921,20.207032 13.44921,32.499998 0,12.29297 -4.77343,23.83594 -13.44921,32.50391 l -99.11329,99.11328 c -8.96484,8.96094 -20.73828,13.44531 -32.51171,13.44531 z M 314.25391,27.308594 c -8.64844,0 -16.76172,3.351562 -22.85547,9.445312 l -99.11328,99.113284 c -6.09375,6.08984 -9.44532,14.20703 -9.44532,22.84765 0,8.64453 3.35157,16.76172 9.44532,22.85157 l 50.84765,50.84765 c 12.60156,12.60547 33.10156,12.58985 45.69922,-0.004 l 99.11328,-99.11329 c 6.09375,-6.08984 9.44532,-14.20703 9.44532,-22.85156 0,-8.64453 -3.35157,-16.75781 -9.44532,-22.847654 L 337.09766,36.75 c -6.09375,-6.089844 -14.20704,-9.441406 -22.84375,-9.441406 z M 265.97266,228.21875 c -4.98829,0 -9.66797,-1.94141 -13.1875,-5.46094 L 201.9375,171.91016 c -7.27344,-7.27344 -7.27344,-19.10938 0,-26.39063 l 99.11328,-99.11328 c 7.28125,-7.277344 19.12891,-7.265625 26.39453,0 L 378.29297,97.25 c 3.51953,3.52344 5.45703,8.21094 5.45703,13.19531 0,4.99219 -1.94531,9.67969 -5.46484,13.19922 l -99.11329,99.10938 c -3.51953,3.51953 -8.20703,5.46093 -13.1914,5.46093 -0.004,0.004 -0.004,0.004 -0.008,0.004 z M 314.25391,54.597656 c -1.28907,0 -2.56641,0.488282 -3.54688,1.464844 l -99.11328,99.10937 c -1.95313,1.95704 -1.95313,5.13282 0,7.08594 l 50.84766,50.84375 c 1.8789,1.88672 5.18359,1.88672 7.07812,-0.004 l 99.11328,-99.10938 c 0.94531,-0.94922 1.46485,-2.20312 1.46485,-3.54297 0,-1.33984 -0.51954,-2.59765 -1.45704,-3.54297 L 317.79297,56.0625 c -0.97266,-0.976562 -2.26172,-1.464844 -3.53906,-1.464844 z m 0,0"
       id="path1169"
       inkscape:connector-curvature="0" />
    <path
       d="M 69.351562,406.19141 18.503906,355.34375 C 3.246094,340.08594 3.246094,315.25391 18.507812,299.99219 l 99.113278,-99.11328 c 15.26172,-15.26172 40.09375,-15.26172 55.35157,-0.004 l 50.84765,50.84766 c 15.25781,15.25781 15.25781,40.08984 -0.004,55.35156 l -99.11328,99.11328 c -15.25782,15.26172 -40.093755,15.26172 -55.351568,0.004 z M 153.66406,220.18359 c -4.61328,-4.61328 -12.12109,-4.61328 -16.73437,0.004 l -99.113284,99.10937 c -4.617187,4.61719 -4.621094,12.125 -0.0039,16.73829 L 88.660162,386.879 c 4.613282,4.61718 12.121098,4.61328 16.734378,0 l 99.11328,-99.11329 c 4.61719,-4.61328 4.61719,-12.12109 0.004,-16.73828 z m 0,0"
       id="path1171"
       inkscape:connector-curvature="0" />
    <path
       d="m 97.03125,424.46094 c -12.292969,0.004 -23.839844,-4.77344 -32.507812,-13.44141 L 13.675781,360.17187 C 5.003906,351.50391 0.230469,339.96094 0.230469,327.66797 c 0,-12.28906 4.773437,-23.83203 13.445312,-32.50391 l 99.113279,-99.11328 c 17.92969,-17.91406 47.08203,-17.93359 65.00781,-0.004 l 50.84766,50.84766 c 8.67188,8.67188 13.44531,20.21484 13.44531,32.50391 0,12.28906 -4.77343,23.83203 -13.44531,32.5039 l -99.11328,99.11328 c -8.66797,8.66797 -20.21484,13.44532 -32.5,13.44532 z m 48.26953,-228.20703 c -8.27734,0 -16.54687,3.15234 -22.85547,9.44921 l -99.113279,99.11329 c -6.09375,6.08984 -9.445312,14.20703 -9.445312,22.85156 0,8.64453 3.351562,16.75781 9.445312,22.85156 l 50.847657,50.84766 c 6.09375,6.08594 14.207031,9.4414 22.847656,9.4414 8.644536,0 16.757816,-3.35546 22.851566,-9.44531 L 218.99219,302.25 c 6.09375,-6.08984 9.44922,-14.20703 9.44922,-22.85156 0,-8.64453 -3.35547,-16.75781 -9.44922,-22.85156 l -50.84766,-50.84766 c -6.29297,-6.29688 -14.57422,-9.44531 -22.84375,-9.44531 z M 97.023438,397.16406 c -4.78125,0 -9.558594,-1.82031 -13.191407,-5.45703 L 32.984375,340.86328 c -3.519531,-3.52344 -5.457031,-8.21094 -5.457031,-13.19531 0,-4.98828 1.945312,-9.67578 5.464844,-13.19531 l 99.113282,-99.10938 c 3.51953,-3.52344 8.20703,-5.46484 13.1914,-5.46484 h 0.008 c 4.98828,0 9.66797,1.9375 13.1875,5.46094 l 50.84765,50.84765 c 7.27344,7.27344 7.27344,19.10938 0,26.39063 l -99.11328,99.11328 c -3.64062,3.63281 -8.42968,5.45312 -13.203122,5.45312 z M 145.30078,223.55078 c -1.33984,0 -2.59766,0.51953 -3.54297,1.46484 L 42.648438,324.125 c -0.949219,0.94922 -1.46875,2.20312 -1.46875,3.54297 0,1.33984 0.519531,2.59765 1.460937,3.54297 l 50.847656,50.83984 c 1.945313,1.95703 5.140625,1.94141 7.085939,0 l 99.11328,-99.10937 c 1.95312,-1.95703 1.95312,-5.13282 0,-7.08594 l -50.84766,-50.84375 c -0.9414,-0.94531 -2.19922,-1.46094 -3.53906,-1.46094 z m 0,0"
       id="path1173"
       inkscape:connector-curvature="0" />
    <path
       d="m 130.81641,287.05469 c -5.33203,-5.33203 -4.25,-15.0586 2.41406,-21.72266 L 253.91016,144.64844 c 6.66406,-6.66407 16.39062,-7.74219 21.72265,-2.41016 5.33203,5.33203 4.25,15.05859 -2.41406,21.72266 L 152.53906,284.64062 c -6.66406,6.66016 -16.39062,7.74219 -21.72265,2.41407 z m 0,0"
       id="path1175"
       inkscape:connector-curvature="0" />
    <path
       d="m 139.46484,297.22266 c -5.05859,0 -9.8789,-1.75391 -13.47265,-5.33985 v -0.004 c -4.01953,-4.01563 -5.9336,-9.82422 -5.25391,-15.94141 0.625,-5.64063 3.35547,-11.12109 7.66797,-15.4375 L 249.08594,139.82422 c 4.3125,-4.31641 9.79297,-7.03906 15.43359,-7.66406 6.04688,-0.71094 11.92578,1.23046 15.9375,5.25 4.01563,4.01562 5.9375,9.82421 5.25391,15.9414 -0.625,5.64063 -3.35157,11.1211 -7.66407,15.4375 L 157.36719,289.46484 c -5.12891,5.125 -11.69532,7.75782 -17.90235,7.75782 z M 266.95312,145.67578 c -0.34765,0 -0.66796,0.0273 -0.92968,0.0508 -2.53125,0.28516 -5.1836,1.64844 -7.28516,3.7461 L 138.05859,270.15625 c -2.10156,2.10156 -3.46875,4.75781 -3.74609,7.28906 -0.13281,1.15625 -0.12891,3.32031 1.33203,4.77735 v 0.004 c 2.57422,2.5586 8.21094,1.4375 12.06641,-2.41406 L 268.39062,159.13281 c 2.09766,-2.10156 3.46485,-4.75781 3.7461,-7.28906 0.13281,-1.15625 0.125,-3.32031 -1.33203,-4.77734 -1.12891,-1.12891 -2.67188,-1.39063 -3.85157,-1.39063 z m 0,0"
       id="path1177"
       inkscape:connector-curvature="0" />
  </g>
  <path
     d="m -0.91409,5.9324201 -1.34904,-1.34904 c -0.40484,-0.40483 -0.40484,-1.06381 10e-5,-1.46875 L 0.36665,0.48485006 c 0.40494,-0.40483 1.06391,-0.40483 1.46875,0 L 3.18444,1.8339001 c 0.40494,0.40494 0.40494,1.06381 0,1.46875 l -2.62978,2.62977 c -0.40494,0.40494 -1.06381,0.40494 -1.46875,0 z M 1.32308,0.99707006 c -0.12251,-0.12241 -0.32161,-0.12241 -0.44412,10e-5 L -1.75082,3.6269501 c -0.1224,0.1224 -0.1225,0.32161 0,0.44401 l 1.34904,1.34915 c 0.12251,0.1224 0.32161,0.1224 0.44412,-1.1e-4 l 2.62978,-2.62977 c 0.12241,-0.12241 0.12251,-0.32161 0,-0.44402 z m 0,0"
     id="path1181"
     inkscape:connector-curvature="0"
     style="fill:#d7e9ff;stroke-width:0.02653307" />
  <path
     d="m -0.17987,6.4170701 c -0.31228,0 -0.62446,-0.11878 -0.86212,-0.35654 l -1.34914,-1.34914 c -0.2301,-0.22999 -0.35675,-0.53637 -0.35675,-0.86243 0,-0.32607 0.12665,-0.63234 0.35675,-0.86243 L 0.23865,0.35675006 C 0.46853,0.12676006 0.77501,5.9121646e-8 1.10097,5.9121646e-8 1.42714,-9.9940878e-5 1.73351,0.12666006 1.9635,0.35675006 L 3.31254,1.7057901 c 0.2302,0.22999 0.35685,0.53626 0.35685,0.86243 0,0.32606 -0.12665,0.63244 -0.35685,0.86243 l -2.62978,2.62978 c -0.23786,0.23776 -0.55025,0.35664 -0.86263,0.35664 z M 1.10118,0.36224006 c -0.22947,0 -0.44474,0.089 -0.60643,0.25072 L -2.13503,3.2426301 c -0.16168,0.16159 -0.25061,0.37696 -0.25061,0.60633 0,0.22936 0.0889,0.44474 0.25061,0.60632 l 1.34915,1.34914 c 0.33435,0.33446 0.87828,0.33395 1.21254,-10e-5 l 2.62978,-2.62978 c 0.16168,-0.16158 0.25061,-0.37696 0.25061,-0.60632 0,-0.22937 -0.0889,-0.44464 -0.25061,-0.60632 L 1.70729,0.61286006 c -0.16168,-0.16159 -0.37695,-0.25062 -0.60611,-0.25062 z M -0.17987,5.6930001 c -0.13236,0 -0.25652,-0.0514 -0.34991,-0.14479 l -1.34914,-1.34914 c -0.19299,-0.19299 -0.19299,-0.50703 0,-0.70023 L 0.75086,0.86907006 c 0.19319,-0.1932 0.50755,-0.19278 0.70033,0 L 2.80033,2.2181101 c 0.0934,0.0935 0.14479,0.21786 0.14479,0.35011 0,0.13246 -0.0516,0.25673 -0.145,0.35011 l -2.62978,2.62968 c -0.0934,0.0935 -0.21775,0.14499 -0.35001,0.14499 -1e-4,0 -1e-4,0 -2e-4,0 z m 1.28105,-4.60659 c -0.0342,0 -0.0681,0.0129 -0.0941,0.0389 l -2.62978,2.62967 c -0.0518,0.0518 -0.0518,0.13619 0,0.18791 l 1.34914,1.34914 c 0.0499,0.0501 0.13754,0.05 0.18781,-10e-5 l 2.62978,-2.62978 c 0.0251,-0.0251 0.0389,-0.0585 0.0389,-0.094 0,-0.0356 -0.0138,-0.0688 -0.0387,-0.0939 l -1.34914,-1.34904 c -0.0258,-0.0259 -0.06,-0.0388 -0.0939,-0.0388 z m 0,0"
     id="path1183"
     inkscape:connector-curvature="0"
     style="fill:#0e65e5;stroke-width:0.02653307" />
  <path
     d="M -5.39683,10.41527 -6.74598,9.0662301 c -0.40483,-0.40494 -0.40483,-1.06381 1.1e-4,-1.46875 l 2.62978,-2.62978 c 0.40494,-0.40494 1.06381,-0.40494 1.46864,0 l 1.34915,1.34904 c 0.40483,0.40484 0.40483,1.06381 -1.1e-4,1.46865 L -3.92819,10.41516 c -0.40483,0.40495 -1.06381,0.40495 -1.46864,1.1e-4 z m 2.23707,-4.9353599 c -0.12241,-0.12251 -0.32161,-0.1224 -0.44402,0 l -2.62978,2.62978 c -0.12251,0.12251 -0.12261,0.32171 -1e-4,0.44412 l 1.34914,1.34904 c 0.12241,0.1225099 0.32161,0.1223999 0.44402,0 l 2.62978,-2.62978 c 0.1225,-0.12251 0.1225,-0.32161 1e-4,-0.44412 z m 0,0"
     id="path1185"
     inkscape:connector-curvature="0"
     style="fill:#d7e9ff;stroke-width:0.02653307" />
  <path
     d="m -4.66241,10.90002 c -0.32617,10e-5 -0.63254,-0.12666 -0.86253,-0.35675 L -6.87408,9.1942301 c -0.23009,-0.22999 -0.35675,-0.53626 -0.35675,-0.86243 0,-0.32607 0.12666,-0.63244 0.35675,-0.86243 l 2.62978,-2.62978 c 0.47573,-0.47541 1.24923,-0.47573 1.72485,-10e-5 l 1.34915,1.34914 c 0.23009,0.22999 0.35674,0.53637 0.35674,0.86243 0,0.32607 -0.12665,0.63234 -0.35674,0.86243 L -3.80008,10.54327 c -0.22999,0.22999 -0.53636,0.35675 -0.86233,0.35675 z m 1.28074,-6.0550399 c -0.21962,0 -0.43904,0.0835 -0.60642,0.25072 l -2.62978,2.62978 c -0.16169,0.16158 -0.25061,0.37696 -0.25061,0.60632 0,0.22937 0.0889,0.44464 0.25061,0.60632 l 1.34914,1.3490399 c 0.16169,0.16159 0.37696,0.25062 0.60622,0.25062 0.22937,0 0.44464,-0.089 0.60632,-0.25072 l 2.62978,-2.6297799 c 0.16169,-0.16148 0.25072,-0.37685 0.25072,-0.60622 0,-0.22936 -0.089,-0.44474 -0.25072,-0.60632 l -1.34914,-1.34914 c -0.16697,-0.16708 -0.3867,-0.25062 -0.60612,-0.25062 z M -4.66261,10.17575 c -0.12686,0 -0.25362,-0.0483 -0.35001,-0.1448 L -6.36177,8.6819101 c -0.0934,-0.0935 -0.14479,-0.21786 -0.14479,-0.35011 0,-0.13246 0.0516,-0.25673 0.145,-0.35011 l 2.62978,-2.62968 c 0.0934,-0.0935 0.21776,-0.145 0.35001,-0.145 h 2.1e-4 c 0.13235,0 0.25652,0.0514 0.3499,0.1449 l 1.34915,1.34904 c 0.19298,0.19309 0.19298,0.50703 0,0.70022 L -4.31229,10.03095 c -0.0966,0.0965 -0.22367,0.1448 -0.35032,0.1448 z m 1.28094,-4.6064999 c -0.0356,0 -0.0689,0.0138 -0.094,0.0388 l -2.62968,2.62978 c -0.0252,0.0252 -0.039,0.0584 -0.039,0.094 0,0.0356 0.0138,0.0689 0.0388,0.0939 l 1.34915,1.34904 c 0.0516,0.0518 0.13639,0.0516 0.18801,-10e-5 l 2.62978,-2.62968 c 0.0518,-0.0518 0.0518,-0.13608 0,-0.1879 l -1.34914,-1.34915 c -0.025,-0.025 -0.0584,-0.0387 -0.0939,-0.0387 z m 0,0"
     id="path1187"
     inkscape:connector-curvature="0"
     style="fill:#0e65e5;stroke-width:0.02653307" />
  <path
     d="m -3.76598,7.4352701 c -0.14148,-0.14147 -0.11277,-0.39955 0.064,-0.57636 l 3.202,-3.20201 c 0.17682,-0.17681 0.4349,-0.20552 0.57637,-0.064 0.14148,0.14148 0.11277,0.39955 -0.0641,0.57637 l -3.202,3.202 c -0.17682,0.17682 -0.4349,0.20553 -0.57637,0.064 z m 0,0"
     id="path1189"
     inkscape:connector-curvature="0"
     style="fill:#d7e9ff;stroke-width:0.02653307" />
  <path
     d="m -3.53651,7.7051601 c -0.13422,0 -0.26212,-0.0466 -0.35747,-0.14178 v -10e-5 c -0.10665,-0.10655 -0.15744,-0.26067 -0.13941,-0.42298 0.0166,-0.14966 0.089,-0.29508 0.20346,-0.4096 l 3.202,-3.2019 c 0.11442,-0.11453 0.25984,-0.18677 0.4095,-0.20325 0.16044,-0.0191 0.31643,0.0326 0.42287,0.1392 0.10655,0.10654 0.15754,0.26066 0.1394,0.42297 -0.0166,0.14966 -0.0889,0.29508 -0.20335,0.4096 l -3.202,3.2019 c -0.13608,0.13609 -0.31031,0.20594 -0.475,0.20594 z m 3.38265,-4.021 c -0.009,0 -0.0177,6.2e-4 -0.0247,10e-4 -0.0672,0.007 -0.13753,0.0436 -0.19329,0.0994 l -3.202,3.20211 c -0.0558,0.0557 -0.092,0.12614 -0.0994,0.1933 -0.004,0.0307 -0.003,0.0881 0.0353,0.12676 v 10e-5 c 0.0683,0.0679 0.21786,0.0382 0.32016,-0.0641 l 3.202,-3.20201 c 0.0557,-0.0556 0.0919,-0.12623 0.0994,-0.1934 0.004,-0.0307 0.003,-0.088 -0.0353,-0.12675 -0.03,-0.03 -0.0709,-0.0368 -0.1022,-0.0368 z m 0,0"
     id="path1191"
     inkscape:connector-curvature="0"
     style="fill:#0e65e5;stroke-width:0.02653307" />
  <path
     d="m -3.41089,1.9179501 c -0.10013,0 -0.18118,-0.0812 -0.18118,-0.18117 v -0.72448 c 0,-0.10012004 0.0811,-0.18117004 0.18118,-0.18117004 0.10012,0 0.18106,0.081 0.18106,0.18117004 v 0.72448 c 0,0.10002 -0.0809,0.18117 -0.18106,0.18117 z m 0,0"
     id="path1193"
     inkscape:connector-curvature="0"
     style="fill:#0e65e5;stroke-width:0.02653307" />
  <path
     d="m -3.04866,1.5556101 h -0.72447 c -0.10012,0 -0.18117,-0.0811 -0.18117,-0.18107 0,-0.10002 0.0811,-0.18117 0.18117,-0.18117 h 0.72447 c 0.10012,0 0.18117,0.0812 0.18117,0.18117 0,0.10002 -0.081,0.18107 -0.18117,0.18107 z m 0,0"
     id="path1195"
     inkscape:connector-curvature="0"
     style="fill:#0e65e5;stroke-width:0.02653307" />
  <path
     d="m 1.29852,9.1632401 c -0.10012,0 -0.18117,-0.0812 -0.18117,-0.18117 v -0.72448 c 0,-0.10002 0.0811,-0.18117 0.18117,-0.18117 0.10012,0 0.18117,0.0812 0.18117,0.18117 v 0.72448 c 0,0.10002 -0.0811,0.18117 -0.18117,0.18117 z m 0,0"
     id="path1197"
     inkscape:connector-curvature="0"
     style="fill:#0e65e5;stroke-width:0.02653307" />
  <path
     d="M 1.66076,8.8010001 H 0.93628 c -0.10012,0 -0.18117,-0.0812 -0.18117,-0.18117 0,-0.10002 0.0811,-0.18117 0.18117,-0.18117 h 0.72448 c 0.10012,0 0.18117,0.0811 0.18117,0.18117 0,0.10002 -0.0811,0.18117 -0.18117,0.18117 z m 0,0"
     id="path1199"
     inkscape:connector-curvature="0"
     style="fill:#0e65e5;stroke-width:0.02653307" />
  <path
     d="m -4.95054,6.5367801 c -0.0463,0 -0.0927,-0.0177 -0.1281,-0.0531 -0.0707,-0.0707 -0.0707,-0.18542 0,-0.25611 l 0.99623,-0.99623 c 0.0708,-0.0707 0.18542,-0.0707 0.25611,0 0.0708,0.0708 0.0708,0.18542 0,0.25611 l -0.99613,0.99623 c -0.0354,0.0353 -0.0818,0.0531 -0.12811,0.0531 z m 0,0"
     id="path1201"
     inkscape:connector-curvature="0"
     style="fill:#ffffff;stroke-width:0.02653307" />
</svg>
