<?xml version="1.0" encoding="UTF-8" standalone="no"?>
<!-- Generator: Adobe Illustrator 19.0.0, SVG Export Plug-In . SVG Version: 6.00 Build 0)  -->

<svg
   xmlns:dc="http://purl.org/dc/elements/1.1/"
   xmlns:cc="http://creativecommons.org/ns#"
   xmlns:rdf="http://www.w3.org/1999/02/22-rdf-syntax-ns#"
   xmlns:svg="http://www.w3.org/2000/svg"
   xmlns="http://www.w3.org/2000/svg"
   xmlns:sodipodi="http://sodipodi.sourceforge.net/DTD/sodipodi-0.dtd"
   xmlns:inkscape="http://www.inkscape.org/namespaces/inkscape"
   version="1.1"
   id="Capa_1"
   x="0px"
   y="0px"
   viewBox="0 0 21.797576 18.857939"
   xml:space="preserve"
   width="22.000002"
   height="19.033066"
   sodipodi:docname="history.svg"
   inkscape:version="0.92.3 (5aff6ba, 2018-11-25)"><metadata
   id="metadata4129"><rdf:RDF><cc:Work
       rdf:about=""><dc:format>image/svg+xml</dc:format><dc:type
         rdf:resource="http://purl.org/dc/dcmitype/StillImage" /><dc:title></dc:title></cc:Work></rdf:RDF></metadata><defs
   id="defs4127" /><sodipodi:namedview
   pagecolor="#ffffff"
   bordercolor="#666666"
   borderopacity="1"
   objecttolerance="10"
   gridtolerance="10"
   guidetolerance="10"
   inkscape:pageopacity="0"
   inkscape:pageshadow="2"
   inkscape:window-width="1871"
   inkscape:window-height="1025"
   id="namedview4125"
   showgrid="false"
   fit-margin-top="1"
   fit-margin-left="1"
   fit-margin-right="1"
   fit-margin-bottom="1"
   inkscape:zoom="0.4609375"
   inkscape:cx="-371.91533"
   inkscape:cy="9.5162658"
   inkscape:window-x="49"
   inkscape:window-y="27"
   inkscape:window-maximized="1"
   inkscape:current-layer="Capa_1" />
<g
   id="g4092"
   transform="matrix(0.03906249,0,0,0.03906249,0.99079883,-0.47900548)">
	<g
   id="g4090">
		<g
   id="g4088">
			<path
   d="m 153.712,375.691 -24,21.248 c 7.642,8.598 15.944,16.585 24.832,23.888 l 20.288,-24.8 c -7.567,-6.209 -14.629,-13.009 -21.12,-20.336 z"
   id="path4080"
   inkscape:connector-curvature="0"
   style="fill:#0e86fe" />
			<path
   d="m 122.176,326.187 -29.408,12.624 c 4.547,10.596 9.946,20.805 16.144,30.528 l 26.992,-17.152 c -5.264,-8.286 -9.855,-16.98 -13.728,-26 z"
   id="path4082"
   inkscape:connector-curvature="0"
   style="fill:#0e86fe" />
			<path
   d="M 399.595,66.763 C 366.695,47.688 329.342,37.637 291.312,37.627 183.147,37.801 91.764,117.904 77.424,225.115 l -54.8,-54.8 L 0,192.939 91.312,284.251 182.624,192.939 160,170.315 110.512,219.739 C 129.315,119.981 225.428,54.355 325.186,73.158 424.944,91.961 490.57,188.074 471.767,287.831 452.964,387.588 356.851,453.216 257.093,434.412 236.644,430.558 216.998,423.259 198.992,412.826 l -16.08,27.664 c 103.202,59.835 235.37,24.679 295.205,-78.523 59.836,-103.201 24.68,-235.369 -78.522,-295.204 z"
   id="path4084"
   inkscape:connector-curvature="0"
   style="fill:#0e86fe" />
			<polygon
   points="356.912,312.827 299.312,269.627 299.312,109.627 267.312,109.627 267.312,285.627 337.712,338.427 "
   id="polygon4086"
   style="fill:#0e86fe" />
		</g>
	</g>
</g>
<g
   id="g4094"
   transform="translate(-242.74579,-244.21527)">
</g>
<g
   id="g4096"
   transform="translate(-242.74579,-244.21527)">
</g>
<g
   id="g4098"
   transform="translate(-242.74579,-244.21527)">
</g>
<g
   id="g4100"
   transform="translate(-242.74579,-244.21527)">
</g>
<g
   id="g4102"
   transform="translate(-242.74579,-244.21527)">
</g>
<g
   id="g4104"
   transform="translate(-242.74579,-244.21527)">
</g>
<g
   id="g4106"
   transform="translate(-242.74579,-244.21527)">
</g>
<g
   id="g4108"
   transform="translate(-242.74579,-244.21527)">
</g>
<g
   id="g4110"
   transform="translate(-242.74579,-244.21527)">
</g>
<g
   id="g4112"
   transform="translate(-242.74579,-244.21527)">
</g>
<g
   id="g4114"
   transform="translate(-242.74579,-244.21527)">
</g>
<g
   id="g4116"
   transform="translate(-242.74579,-244.21527)">
</g>
<g
   id="g4118"
   transform="translate(-242.74579,-244.21527)">
</g>
<g
   id="g4120"
   transform="translate(-242.74579,-244.21527)">
</g>
<g
   id="g4122"
   transform="translate(-242.74579,-244.21527)">
</g>
</svg>