<?xml version="1.0" encoding="UTF-8" standalone="no"?>
<!-- Generator: Adobe Illustrator 19.0.0, SVG Export Plug-In . SVG Version: 6.00 Build 0)  -->

<svg
   xmlns:dc="http://purl.org/dc/elements/1.1/"
   xmlns:cc="http://creativecommons.org/ns#"
   xmlns:rdf="http://www.w3.org/1999/02/22-rdf-syntax-ns#"
   xmlns:svg="http://www.w3.org/2000/svg"
   xmlns="http://www.w3.org/2000/svg"
   xmlns:sodipodi="http://sodipodi.sourceforge.net/DTD/sodipodi-0.dtd"
   xmlns:inkscape="http://www.inkscape.org/namespaces/inkscape"
   version="1.1"
   id="Layer_1"
   x="0px"
   y="0px"
   viewBox="0 0 13.212504 21.140625"
   xml:space="preserve"
   width="13.749598"
   height="22"
   sodipodi:docname="left-arrow.svg"
   inkscape:version="0.92.3 (5aff6ba, 2018-11-25)"><metadata
   id="metadata4172"><rdf:RDF><cc:Work
       rdf:about=""><dc:format>image/svg+xml</dc:format><dc:type
         rdf:resource="http://purl.org/dc/dcmitype/StillImage" /><dc:title></dc:title></cc:Work></rdf:RDF></metadata><defs
   id="defs4170" /><sodipodi:namedview
   pagecolor="#ffffff"
   bordercolor="#666666"
   borderopacity="1"
   objecttolerance="10"
   gridtolerance="10"
   guidetolerance="10"
   inkscape:pageopacity="0"
   inkscape:pageshadow="2"
   inkscape:window-width="1871"
   inkscape:window-height="1025"
   id="namedview4168"
   showgrid="false"
   fit-margin-top="1"
   fit-margin-left="1"
   fit-margin-right="1"
   fit-margin-bottom="1"
   inkscape:zoom="0.4609375"
   inkscape:cx="-376.0404"
   inkscape:cy="10.999995"
   inkscape:window-x="49"
   inkscape:window-y="27"
   inkscape:window-maximized="1"
   inkscape:current-layer="Layer_1" />
<g
   id="g4135"
   transform="matrix(0.0390625,0,0,0.0390625,-3.0031208,0.9609375)">
	<g
   id="g4133">
		<path
   d="M 198.608,246.104 382.664,62.04 c 5.068,-5.056 7.856,-11.816 7.856,-19.024 0,-7.212 -2.788,-13.968 -7.856,-19.032 L 366.536,7.864 C 361.476,2.792 354.712,0 347.504,0 340.296,0 333.54,2.792 328.476,7.864 L 109.328,227.008 c -5.084,5.08 -7.868,11.868 -7.848,19.084 -0.02,7.248 2.76,14.028 7.848,19.112 l 218.944,218.932 c 5.064,5.072 11.82,7.864 19.032,7.864 7.208,0 13.964,-2.792 19.032,-7.864 l 16.124,-16.12 c 10.492,-10.492 10.492,-27.572 0,-38.06 z"
   id="path4131"
   inkscape:connector-curvature="0"
   style="fill:#0e86fe" />
	</g>
</g>
<g
   id="g4137"
   transform="translate(-239.39369,-235.42968)">
</g>
<g
   id="g4139"
   transform="translate(-239.39369,-235.42968)">
</g>
<g
   id="g4141"
   transform="translate(-239.39369,-235.42968)">
</g>
<g
   id="g4143"
   transform="translate(-239.39369,-235.42968)">
</g>
<g
   id="g4145"
   transform="translate(-239.39369,-235.42968)">
</g>
<g
   id="g4147"
   transform="translate(-239.39369,-235.42968)">
</g>
<g
   id="g4149"
   transform="translate(-239.39369,-235.42968)">
</g>
<g
   id="g4151"
   transform="translate(-239.39369,-235.42968)">
</g>
<g
   id="g4153"
   transform="translate(-239.39369,-235.42968)">
</g>
<g
   id="g4155"
   transform="translate(-239.39369,-235.42968)">
</g>
<g
   id="g4157"
   transform="translate(-239.39369,-235.42968)">
</g>
<g
   id="g4159"
   transform="translate(-239.39369,-235.42968)">
</g>
<g
   id="g4161"
   transform="translate(-239.39369,-235.42968)">
</g>
<g
   id="g4163"
   transform="translate(-239.39369,-235.42968)">
</g>
<g
   id="g4165"
   transform="translate(-239.39369,-235.42968)">
</g>
</svg>