<?xml version="1.0" encoding="UTF-8" standalone="no"?>
<!-- Generator: Adobe Illustrator 19.0.0, SVG Export Plug-In . SVG Version: 6.00 Build 0)  -->

<svg
   xmlns:dc="http://purl.org/dc/elements/1.1/"
   xmlns:cc="http://creativecommons.org/ns#"
   xmlns:rdf="http://www.w3.org/1999/02/22-rdf-syntax-ns#"
   xmlns:svg="http://www.w3.org/2000/svg"
   xmlns="http://www.w3.org/2000/svg"
   xmlns:sodipodi="http://sodipodi.sourceforge.net/DTD/sodipodi-0.dtd"
   xmlns:inkscape="http://www.inkscape.org/namespaces/inkscape"
   version="1.1"
   id="Capa_1"
   x="0px"
   y="0px"
   viewBox="0 0 2.5834102 2.002668"
   xml:space="preserve"
   width="22"
   height="17.054472"
   sodipodi:docname="list.svg"
   inkscape:version="0.92.3 (5aff6ba, 2018-11-25)"><metadata
   id="metadata4223"><rdf:RDF><cc:Work
       rdf:about=""><dc:format>image/svg+xml</dc:format><dc:type
         rdf:resource="http://purl.org/dc/dcmitype/StillImage" /><dc:title></dc:title></cc:Work></rdf:RDF></metadata><defs
   id="defs4221" /><sodipodi:namedview
   pagecolor="#ffffff"
   bordercolor="#666666"
   borderopacity="1"
   objecttolerance="10"
   gridtolerance="10"
   guidetolerance="10"
   inkscape:pageopacity="0"
   inkscape:pageshadow="2"
   inkscape:window-width="1871"
   inkscape:window-height="1025"
   id="namedview4219"
   showgrid="false"
   fit-margin-top="1"
   fit-margin-left="1"
   fit-margin-right="1"
   fit-margin-bottom="1"
   inkscape:zoom="0.4609375"
   inkscape:cx="-371.91526"
   inkscape:cy="8.5314924"
   inkscape:window-x="49"
   inkscape:window-y="27"
   inkscape:window-maximized="1"
   inkscape:current-layer="Capa_1" />
<g
   id="g4186"
   transform="matrix(0.0390625,0,0,0.0390625,0.11742773,-0.17296291)">
	<path
   d="M 57.124,51.893 H 16.92 c -1.657,0 -3,-1.343 -3,-3 0,-1.657 1.343,-3 3,-3 h 40.203 c 1.657,0 3,1.343 3,3 0,1.657 -1.342,3 -2.999,3 z"
   id="path4174"
   inkscape:connector-curvature="0"
   style="fill:#0e86fe" />
	<path
   d="M 57.124,33.062 H 16.92 c -1.657,0 -3,-1.343 -3,-3 0,-1.657 1.343,-3 3,-3 h 40.203 c 1.657,0 3,1.343 3,3 0.001,1.657 -1.342,3 -2.999,3 z"
   id="path4176"
   inkscape:connector-curvature="0"
   style="fill:#0e86fe" />
	<path
   d="M 57.124,14.231 H 16.92 c -1.657,0 -3,-1.343 -3,-3 0,-1.657 1.343,-3 3,-3 h 40.203 c 1.657,0 3,1.343 3,3 0,1.657 -1.342,3 -2.999,3 z"
   id="path4178"
   inkscape:connector-curvature="0"
   style="fill:#0e86fe" />
	<circle
   cx="4.0289998"
   cy="11.463"
   r="4.0289998"
   id="circle4180"
   style="fill:#0e86fe" />
	<circle
   cx="4.0289998"
   cy="30.062"
   r="4.0289998"
   id="circle4182"
   style="fill:#0e86fe" />
	<circle
   cx="4.0289998"
   cy="48.660999"
   r="4.0289998"
   id="circle4184"
   style="fill:#0e86fe" />
</g>
<g
   id="g4188"
   transform="translate(-28.769795,-29.060666)">
</g>
<g
   id="g4190"
   transform="translate(-28.769795,-29.060666)">
</g>
<g
   id="g4192"
   transform="translate(-28.769795,-29.060666)">
</g>
<g
   id="g4194"
   transform="translate(-28.769795,-29.060666)">
</g>
<g
   id="g4196"
   transform="translate(-28.769795,-29.060666)">
</g>
<g
   id="g4198"
   transform="translate(-28.769795,-29.060666)">
</g>
<g
   id="g4200"
   transform="translate(-28.769795,-29.060666)">
</g>
<g
   id="g4202"
   transform="translate(-28.769795,-29.060666)">
</g>
<g
   id="g4204"
   transform="translate(-28.769795,-29.060666)">
</g>
<g
   id="g4206"
   transform="translate(-28.769795,-29.060666)">
</g>
<g
   id="g4208"
   transform="translate(-28.769795,-29.060666)">
</g>
<g
   id="g4210"
   transform="translate(-28.769795,-29.060666)">
</g>
<g
   id="g4212"
   transform="translate(-28.769795,-29.060666)">
</g>
<g
   id="g4214"
   transform="translate(-28.769795,-29.060666)">
</g>
<g
   id="g4216"
   transform="translate(-28.769795,-29.060666)">
</g>
</svg>