<?xml version="1.0" encoding="UTF-8" standalone="no"?>
<!-- Generator: Adobe Illustrator 19.0.0, SVG Export Plug-In . SVG Version: 6.00 Build 0)  -->

<svg
   xmlns:dc="http://purl.org/dc/elements/1.1/"
   xmlns:cc="http://creativecommons.org/ns#"
   xmlns:rdf="http://www.w3.org/1999/02/22-rdf-syntax-ns#"
   xmlns:svg="http://www.w3.org/2000/svg"
   xmlns="http://www.w3.org/2000/svg"
   xmlns:sodipodi="http://sodipodi.sourceforge.net/DTD/sodipodi-0.dtd"
   xmlns:inkscape="http://www.inkscape.org/namespaces/inkscape"
   version="1.1"
   id="Layer_1"
   x="0px"
   y="0px"
   viewBox="0 0 29.0625 29.0625"
   xml:space="preserve"
   width="30"
   height="30"
   sodipodi:docname="log_1.svg"
   inkscape:version="0.92.3 (5aff6ba, 2018-11-25)"><metadata
   id="metadata969"><rdf:RDF><cc:Work
       rdf:about=""><dc:format>image/svg+xml</dc:format><dc:type
         rdf:resource="http://purl.org/dc/dcmitype/StillImage" /><dc:title></dc:title></cc:Work></rdf:RDF></metadata><defs
   id="defs967" /><sodipodi:namedview
   pagecolor="#ffffff"
   bordercolor="#666666"
   borderopacity="1"
   objecttolerance="10"
   gridtolerance="10"
   guidetolerance="10"
   inkscape:pageopacity="0"
   inkscape:pageshadow="2"
   inkscape:window-width="1871"
   inkscape:window-height="1025"
   id="namedview965"
   showgrid="false"
   fit-margin-top="0"
   fit-margin-left="0"
   fit-margin-right="0"
   fit-margin-bottom="0"
   inkscape:zoom="9.2697279"
   inkscape:cx="30.641425"
   inkscape:cy="-6.9066681"
   inkscape:window-x="49"
   inkscape:window-y="27"
   inkscape:window-maximized="1"
   inkscape:current-layer="Layer_1" />
<g
   id="g932"
   transform="scale(0.05859375)">
	<g
   id="g930">
		<g
   id="g928">
			<path
   d="M 472,32 H 400 V 0 H 100.688 L 0,100.688 V 496 H 400 V 192 h 72 c 13.232,0 24,-10.768 24,-24 V 56 C 496,42.768 485.232,32 472,32 Z M 96,27.312 V 96 H 27.312 Z M 384,480 H 16 V 112 h 96 V 16 H 384 V 32 H 184 c -13.232,0 -24,10.768 -24,24 v 112 c 0,13.232 10.768,24 24,24 h 200 z m 96,-312 c 0,4.408 -3.592,8 -8,8 H 184 c -4.408,0 -8,-3.592 -8,-8 V 56 c 0,-4.408 3.592,-8 8,-8 h 288 c 4.408,0 8,3.592 8,8 z"
   id="path912"
   inkscape:connector-curvature="0"
   style="fill:#475466" />
			<path
   d="m 424,80 c 13.232,0 24,10.768 24,24 h 16 c 0,-22.056 -17.944,-40 -40,-40 -22.056,0 -40,17.944 -40,40 v 16 c 0,22.056 17.944,40 40,40 9.04,0 17.296,-3.128 24,-8.208 V 160 h 16 v -40 h -16 -16 v 16 h 9.76 c -4.392,4.872 -10.696,8 -17.76,8 -13.232,0 -24,-10.768 -24,-24 v -16 c 0,-13.232 10.768,-24 24,-24 z"
   id="path914"
   inkscape:connector-curvature="0"
   style="fill:#475466" />
			<rect
   x="32"
   y="128"
   width="16"
   height="16"
   id="rect916"
   style="fill:#475466" />
			<rect
   x="64"
   y="128"
   width="16"
   height="16"
   id="rect918"
   style="fill:#475466" />
			<rect
   x="32"
   y="160"
   width="16"
   height="16"
   id="rect920"
   style="fill:#475466" />
			<path
   d="m 328,64 c -22.056,0 -40,17.944 -40,40 v 16 c 0,22.056 17.944,40 40,40 22.056,0 40,-17.944 40,-40 V 104 C 368,81.944 350.056,64 328,64 Z m 24,56 c 0,13.232 -10.768,24 -24,24 -13.232,0 -24,-10.768 -24,-24 v -16 c 0,-13.232 10.768,-24 24,-24 13.232,0 24,10.768 24,24 z"
   id="path922"
   inkscape:connector-curvature="0"
   style="fill:#475466" />
			<polygon
   points="272,160 272,144 208,144 208,64 192,64 192,160 "
   id="polygon924"
   style="fill:#475466" />
			<path
   d="m 72,464 h 59.312 l 184.4,-184.4 C 323.632,271.68 328,261.144 328,249.944 328,226.816 309.184,208 286.056,208 c -11.2,0 -21.736,4.36 -29.656,12.288 L 72,404.688 Z M 136,436.688 123.312,424 248,299.312 260.688,312 Z M 267.712,231.6 c 4.904,-4.904 11.416,-7.6 18.344,-7.6 14.304,0 25.944,11.64 25.944,25.944 0,6.928 -2.696,13.44 -7.6,18.344 l -8.4,8.4 L 259.312,240 Z M 248,251.312 284.688,288 272,300.688 235.312,264 Z m -24,24 L 236.688,288 112,412.688 99.312,400 Z M 88,411.312 124.688,448 H 88 Z"
   id="path926"
   inkscape:connector-curvature="0"
   style="fill:#475466" />
		</g>
	</g>
</g>
<g
   id="g934"
   transform="translate(-233.46875,-233.46875)">
</g>
<g
   id="g936"
   transform="translate(-233.46875,-233.46875)">
</g>
<g
   id="g938"
   transform="translate(-233.46875,-233.46875)">
</g>
<g
   id="g940"
   transform="translate(-233.46875,-233.46875)">
</g>
<g
   id="g942"
   transform="translate(-233.46875,-233.46875)">
</g>
<g
   id="g944"
   transform="translate(-233.46875,-233.46875)">
</g>
<g
   id="g946"
   transform="translate(-233.46875,-233.46875)">
</g>
<g
   id="g948"
   transform="translate(-233.46875,-233.46875)">
</g>
<g
   id="g950"
   transform="translate(-233.46875,-233.46875)">
</g>
<g
   id="g952"
   transform="translate(-233.46875,-233.46875)">
</g>
<g
   id="g954"
   transform="translate(-233.46875,-233.46875)">
</g>
<g
   id="g956"
   transform="translate(-233.46875,-233.46875)">
</g>
<g
   id="g958"
   transform="translate(-233.46875,-233.46875)">
</g>
<g
   id="g960"
   transform="translate(-233.46875,-233.46875)">
</g>
<g
   id="g962"
   transform="translate(-233.46875,-233.46875)">
</g>
</svg>