<?xml version="1.0" encoding="UTF-8" standalone="no"?>
<!-- Generator: Adobe Illustrator 19.0.0, SVG Export Plug-In . SVG Version: 6.00 Build 0)  -->

<svg
   xmlns:dc="http://purl.org/dc/elements/1.1/"
   xmlns:cc="http://creativecommons.org/ns#"
   xmlns:rdf="http://www.w3.org/1999/02/22-rdf-syntax-ns#"
   xmlns:svg="http://www.w3.org/2000/svg"
   xmlns="http://www.w3.org/2000/svg"
   xmlns:sodipodi="http://sodipodi.sourceforge.net/DTD/sodipodi-0.dtd"
   xmlns:inkscape="http://www.inkscape.org/namespaces/inkscape"
   version="1.1"
   id="Capa_1"
   x="0px"
   y="0px"
   viewBox="0 0 18.160571 21.999999"
   xml:space="preserve"
   sodipodi:docname="options_supplies_white.svg"
   width="18.16057"
   height="21.999998"
   inkscape:version="0.92.4 (33fec40, 2019-01-16)"><metadata
   id="metadata1205"><rdf:RDF><cc:Work
       rdf:about=""><dc:format>image/svg+xml</dc:format><dc:type
         rdf:resource="http://purl.org/dc/dcmitype/StillImage" /><dc:title></dc:title></cc:Work></rdf:RDF></metadata><defs
   id="defs1203" /><sodipodi:namedview
   pagecolor="#ffffff"
   bordercolor="#666666"
   borderopacity="1"
   objecttolerance="10"
   gridtolerance="10"
   guidetolerance="10"
   inkscape:pageopacity="0"
   inkscape:pageshadow="2"
   inkscape:window-width="1871"
   inkscape:window-height="1025"
   id="namedview1201"
   showgrid="false"
   fit-margin-top="1"
   fit-margin-left="1"
   fit-margin-right="1"
   fit-margin-bottom="1"
   inkscape:zoom="14.750058"
   inkscape:cx="6.9500192"
   inkscape:cy="8.5724878"
   inkscape:window-x="49"
   inkscape:window-y="27"
   inkscape:window-maximized="1"
   inkscape:current-layer="Capa_1" />
<g
   id="g1162"
   transform="matrix(0.03906265,0,0,0.03906265,-0.919773,1)"
   style="fill:#ffffff">
	<g
   id="g1160"
   style="fill:#ffffff">
		<path
   d="M 256.004,0 C 141.942,0 49.146,92.791 49.146,206.848 c 0,11.869 4.274,23.318 12.032,32.283 0.01,0.012 0.017,0.024 0.027,0.036 L 191.753,397.148 V 501.96 c 0,0.015 0.002,0.029 0.002,0.044 0.001,0.315 0.017,0.63 0.047,0.945 0.015,0.154 0.044,0.303 0.065,0.455 0.025,0.173 0.045,0.345 0.078,0.516 0.034,0.17 0.08,0.335 0.122,0.502 0.038,0.151 0.071,0.302 0.116,0.452 0.049,0.164 0.11,0.321 0.169,0.481 0.053,0.149 0.102,0.299 0.164,0.447 0.061,0.149 0.134,0.291 0.202,0.436 0.072,0.153 0.14,0.306 0.22,0.456 0.073,0.137 0.157,0.266 0.235,0.398 0.089,0.15 0.174,0.3 0.27,0.445 0.095,0.142 0.201,0.275 0.303,0.412 0.094,0.125 0.182,0.255 0.282,0.377 0.19,0.231 0.392,0.452 0.601,0.665 0.022,0.022 0.04,0.047 0.062,0.069 0.022,0.022 0.047,0.041 0.07,0.063 0.213,0.209 0.433,0.411 0.664,0.599 0.125,0.102 0.255,0.191 0.383,0.286 0.135,0.1 0.266,0.205 0.406,0.298 0.148,0.098 0.3,0.184 0.451,0.274 0.13,0.077 0.258,0.16 0.393,0.232 0.152,0.081 0.308,0.151 0.463,0.223 0.143,0.067 0.282,0.138 0.428,0.199 0.151,0.062 0.303,0.112 0.456,0.167 0.157,0.056 0.311,0.116 0.472,0.165 0.152,0.046 0.306,0.079 0.46,0.118 0.164,0.041 0.326,0.087 0.493,0.12 0.176,0.035 0.353,0.055 0.53,0.081 0.148,0.021 0.292,0.049 0.441,0.063 0.329,0.032 0.66,0.05 0.991,0.05 h 108.424 c 0.33,0 0.662,-0.018 0.991,-0.05 0.148,-0.014 0.291,-0.042 0.437,-0.063 0.179,-0.025 0.357,-0.046 0.535,-0.081 0.166,-0.033 0.325,-0.078 0.488,-0.119 0.156,-0.039 0.311,-0.073 0.466,-0.119 0.158,-0.048 0.31,-0.107 0.466,-0.163 0.155,-0.055 0.31,-0.106 0.463,-0.17 0.144,-0.059 0.281,-0.13 0.422,-0.196 0.157,-0.073 0.315,-0.144 0.469,-0.226 0.133,-0.071 0.259,-0.153 0.388,-0.229 0.153,-0.09 0.306,-0.177 0.455,-0.276 0.139,-0.092 0.269,-0.196 0.403,-0.295 0.13,-0.096 0.261,-0.186 0.387,-0.289 0.22,-0.181 0.429,-0.373 0.632,-0.572 0.033,-0.032 0.068,-0.058 0.1,-0.091 0.034,-0.034 0.062,-0.071 0.095,-0.105 0.197,-0.202 0.388,-0.41 0.567,-0.627 0.106,-0.128 0.199,-0.264 0.297,-0.398 0.096,-0.13 0.197,-0.256 0.287,-0.391 0.102,-0.153 0.191,-0.311 0.284,-0.468 0.074,-0.124 0.153,-0.246 0.222,-0.374 0.084,-0.157 0.156,-0.318 0.231,-0.479 0.064,-0.138 0.133,-0.272 0.191,-0.412 0.064,-0.155 0.116,-0.313 0.173,-0.471 0.054,-0.152 0.112,-0.302 0.16,-0.457 0.048,-0.159 0.083,-0.32 0.123,-0.48 0.039,-0.158 0.083,-0.312 0.115,-0.472 0.037,-0.187 0.059,-0.375 0.086,-0.564 0.019,-0.137 0.045,-0.27 0.059,-0.408 0.033,-0.332 0.05,-0.665 0.05,-0.998 V 397.148 l 130.3,-157.694 0.069,-0.083 c 7.885,-9.001 12.228,-20.529 12.228,-32.523 C 462.852,92.791 370.06,0 256.004,0 Z m -0.001,20.312 c 3.325,2.387 11.789,15.541 19.054,54.884 6.624,35.86 10.27,82.615 10.27,131.65 10e-4,16.17 -13.154,29.326 -29.324,29.326 -16.169,0 -29.325,-13.155 -29.325,-29.325 0,-49.045 3.646,-95.801 10.268,-131.657 7.267,-39.342 15.731,-52.492 19.057,-54.878 z m 12.939,363.186 H 243.068 L 197.405,251.969 c 7.689,-3.427 14.283,-8.729 19.253,-15.292 9.03,11.882 23.305,19.572 39.347,19.572 16.039,0 30.31,-7.687 39.342,-19.565 4.971,6.571 11.57,11.874 19.264,15.297 z m 17.036,20.078 -29.974,29.974 -29.975,-29.974 h 9.82 c 0.025,0 0.05,0.003 0.075,0.003 0.023,0 0.047,-0.003 0.071,-0.003 h 40.015 c 0.024,0 0.047,0.003 0.071,0.003 0.025,0 0.05,-0.003 0.075,-0.003 z M 229.513,25.859 c -4.193,10.158 -7.895,23.384 -11.19,39.856 -7.56,37.798 -11.723,87.92 -11.723,141.134 0,14.113 -10.052,26.234 -23.904,28.824 -1.776,0.332 -3.599,0.501 -5.42,0.501 -16.169,0 -29.325,-13.155 -29.325,-29.325 0,-50.777 11.775,-98.366 33.156,-133.999 13.812,-23.02 30.454,-39.033 48.406,-46.991 z M 76.562,226.239 c -0.005,-0.005 -0.01,-0.01 -0.015,-0.015 -0.023,-0.027 -0.042,-0.056 -0.065,-0.083 -4.679,-5.337 -7.257,-12.189 -7.257,-19.292 0,-77.894 47.94,-144.792 115.862,-172.771 -7.6,8.129 -14.706,17.627 -21.196,28.441 -23.226,38.709 -36.017,89.966 -36.017,144.33 0,16.169 -13.155,29.325 -29.325,29.325 -8.404,-0.001 -16.418,-3.622 -21.987,-9.935 z m 24.741,29.931 c 14.924,-0.824 28.101,-8.303 36.61,-19.512 9.029,11.894 23.312,19.594 39.364,19.594 0.12,0 0.238,-0.007 0.357,-0.008 l 44.18,127.255 H 206.52 Z m 110.528,161.605 29.974,29.974 -29.974,29.974 z m 14.198,74.147 29.975,-29.974 29.974,29.974 z m 74.147,-14.198 -29.974,-29.975 29.974,-29.974 z m 5.312,-94.226 h -15.293 l 44.189,-127.255 c 0.112,0.001 0.225,0.008 0.337,0.008 16.052,0 30.335,-7.699 39.364,-19.594 8.51,11.21 21.687,18.689 36.612,19.513 z M 435.46,226.217 c -0.041,0.048 -0.086,0.089 -0.128,0.139 l -0.072,0.087 c -5.554,6.183 -13.498,9.73 -21.812,9.73 -16.169,0 -29.325,-13.155 -29.325,-29.325 0,-22.025 -2.107,-43.698 -6.262,-64.416 -1.09,-5.436 -6.383,-8.96 -11.817,-7.869 -5.436,1.09 -8.959,6.381 -7.869,11.817 3.895,19.421 5.871,39.764 5.871,60.466 0,16.169 -13.155,29.325 -29.325,29.325 -1.746,0 -3.491,-0.16 -5.209,-0.47 -0.045,-0.009 -0.092,-0.014 -0.138,-0.022 -0.022,-0.004 -0.045,-0.007 -0.067,-0.011 -13.849,-2.572 -23.9,-14.692 -23.9,-28.821 0,-53.208 -4.164,-103.331 -11.727,-141.134 -3.297,-16.482 -7.001,-29.715 -11.198,-39.876 22.207,9.821 42.3,31.893 57.337,63.783 2.364,5.016 8.346,7.165 13.362,4.799 5.015,-2.364 7.164,-8.347 4.799,-13.362 -8.802,-18.668 -19.302,-34.434 -31.033,-46.97 67.902,27.988 115.826,94.878 115.826,172.761 10e-4,7.149 -2.596,14.016 -7.313,19.369 z"
   id="path1158"
   inkscape:connector-curvature="0"
   style="fill:#ffffff" />
	</g>
</g>
<g
   id="g1168"
   transform="matrix(0.03906265,0,0,0.03906265,-0.919773,1)"
   style="fill:#ffffff">
	<g
   id="g1166"
   style="fill:#ffffff">
		<path
   d="m 360.412,102.4 c -12.919,0 -12.941,20.078 0,20.078 12.919,0 12.94,-20.078 0,-20.078 z"
   id="path1164"
   inkscape:connector-curvature="0"
   style="fill:#ffffff" />
	</g>
</g>
<g
   id="g1170"
   transform="translate(-246.92021,-244.999)">
</g>
<g
   id="g1172"
   transform="translate(-246.92021,-244.999)">
</g>
<g
   id="g1174"
   transform="translate(-246.92021,-244.999)">
</g>
<g
   id="g1176"
   transform="translate(-246.92021,-244.999)">
</g>
<g
   id="g1178"
   transform="translate(-246.92021,-244.999)">
</g>
<g
   id="g1180"
   transform="translate(-246.92021,-244.999)">
</g>
<g
   id="g1182"
   transform="translate(-246.92021,-244.999)">
</g>
<g
   id="g1184"
   transform="translate(-246.92021,-244.999)">
</g>
<g
   id="g1186"
   transform="translate(-246.92021,-244.999)">
</g>
<g
   id="g1188"
   transform="translate(-246.92021,-244.999)">
</g>
<g
   id="g1190"
   transform="translate(-246.92021,-244.999)">
</g>
<g
   id="g1192"
   transform="translate(-246.92021,-244.999)">
</g>
<g
   id="g1194"
   transform="translate(-246.92021,-244.999)">
</g>
<g
   id="g1196"
   transform="translate(-246.92021,-244.999)">
</g>
<g
   id="g1198"
   transform="translate(-246.92021,-244.999)">
</g>
</svg>