<?xml version="1.0" encoding="UTF-8" standalone="no"?>
<svg
   xmlns:dc="http://purl.org/dc/elements/1.1/"
   xmlns:cc="http://creativecommons.org/ns#"
   xmlns:rdf="http://www.w3.org/1999/02/22-rdf-syntax-ns#"
   xmlns:svg="http://www.w3.org/2000/svg"
   xmlns="http://www.w3.org/2000/svg"
   xmlns:sodipodi="http://sodipodi.sourceforge.net/DTD/sodipodi-0.dtd"
   xmlns:inkscape="http://www.inkscape.org/namespaces/inkscape"
   height="21.999428"
   viewBox="0 0 19.250466 19.249499"
   width="22.00004"
   version="1.1"
   id="svg4237"
   sodipodi:docname="options_main.svg"
   inkscape:version="0.92.3 (5aff6ba, 2018-11-25)">
  <metadata
     id="metadata4243">
    <rdf:RDF>
      <cc:Work
         rdf:about="">
        <dc:format>image/svg+xml</dc:format>
        <dc:type
           rdf:resource="http://purl.org/dc/dcmitype/StillImage" />
        <dc:title></dc:title>
      </cc:Work>
    </rdf:RDF>
  </metadata>
  <defs
     id="defs4241" />
  <sodipodi:namedview
     pagecolor="#ffffff"
     bordercolor="#666666"
     borderopacity="1"
     objecttolerance="10"
     gridtolerance="10"
     guidetolerance="10"
     inkscape:pageopacity="0"
     inkscape:pageshadow="2"
     inkscape:window-width="1871"
     inkscape:window-height="1025"
     id="namedview4239"
     showgrid="false"
     fit-margin-top="1"
     fit-margin-left="1"
     fit-margin-right="1"
     fit-margin-bottom="1"
     inkscape:zoom="0.4609375"
     inkscape:cx="-371.9168"
     inkscape:cy="11.004233"
     inkscape:window-x="49"
     inkscape:window-y="27"
     inkscape:window-maximized="1"
     inkscape:current-layer="svg4237" />
  <path
     d="m 15.89494,6.1824296 c -0.007,0 -0.0134,0 -0.02,0 -0.0484,0 -0.0969,0 -0.14527,-0.004 -0.12207,-0.005 -0.24368,-0.0185 -0.36407,-0.0391 -0.0384,-0.006 -0.076,-0.0154 -0.11444,-0.0232 -0.0844,-0.0172 -0.16815,-0.0372 -0.24994,-0.0624 -0.0206,-0.006 -0.042,-0.009 -0.0626,-0.0154 V 13.20045 c 0.0209,-0.007 0.0429,-0.009 0.0626,-0.0156 0.0832,-0.0241 0.16709,-0.0441 0.25254,-0.0626 0.0387,-0.008 0.0768,-0.0171 0.11611,-0.0234 0.12284,-0.0207 0.24674,-0.034 0.37094,-0.0394 0.0372,-0.002 0.0858,-0.002 0.13413,-0.002 0.10696,6.1e-4 0.21392,0.007 0.32028,0.0188 0.0262,0.003 0.0522,0.006 0.0781,0.009 0.10498,0.0128 0.20935,0.0311 0.3125,0.0546 l 0.0191,0.005 c 0.0694,0.0168 0.1384,0.0349 0.20661,0.0565 V 6.0376996 c -0.0626,0.0197 -0.12497,0.0354 -0.18967,0.0516 -0.0137,0.004 -0.0272,0.008 -0.041,0.0113 -0.22445,0.0545 -0.45486,0.0818 -0.68587,0.0815 z m 0,0"
     id="path4225"
     inkscape:connector-curvature="0"
     style="fill:#e77816;stroke-width:0.03906226" />
  <path
     d="m 18.37493,16.18237 c 0.003,-0.95032 -0.53588,-1.8193 -1.38869,-2.23876 -0.087,-0.0433 -0.17639,-0.0816 -0.26779,-0.11429 -0.27664,-0.0993 -0.56869,-0.14908 -0.86258,-0.14694 -0.0262,0 -0.0525,0 -0.079,0.002 -0.35156,0.0127 -0.69625,0.10071 -1.01089,0.25802 -0.67412,0.33631 -1.16179,0.95734 -1.32842,1.69189 -0.0237,0.10437 -0.0404,0.21026 -0.05,0.31692 -0.008,0.0766 -0.0127,0.15381 -0.0125,0.23087 -0.003,0.75988 0.34271,1.47902 0.9375,1.95189 v -2.26439 c -6.1e-4,-0.11902 0.0664,-0.22797 0.17288,-0.28122 l 1.24999,-0.625 c 0.0877,-0.0438 0.19089,-0.0438 0.27862,0 l 1.25,0.625 c 0.10681,0.0531 0.17394,0.16205 0.17349,0.28122 v 2.26439 c 0.59478,-0.47287 0.94024,-1.19201 0.93749,-1.95189 z m 0,0"
     id="path4227"
     inkscape:connector-curvature="0"
     style="fill:#e77816;stroke-width:0.03906226" />
  <path
     d="m 13.37496,9.6199096 c 0,-2.07107 -1.67891,-3.74998 -3.7499704,-3.74998 -2.07107,0 -3.74998,1.67891 -3.74998,3.74998 0,2.0710604 1.67891,3.7499704 3.74998,3.7499704 2.0701404,-0.002 3.7476804,-1.67983 3.7499704,-3.7499704 z m -6.5624604,0 c 0,-1.55319 1.25915,-2.81249 2.81249,-2.81249 1.5533304,0 2.8124804,1.2593 2.8124804,2.81249 0,1.5533304 -1.25915,2.8124804 -2.8124804,2.8124804 -1.55258,-0.002 -2.81081,-1.25991 -2.81249,-2.8124804 z m 0,0"
     id="path4229"
     inkscape:connector-curvature="0"
     style="fill:#e77816;stroke-width:0.03906226" />
  <path
     d="m 11.81247,9.6199096 c 0,1.2081804 -0.9793,2.1874804 -2.1874804,2.1874804 -1.20819,0 -2.18749,-0.9793 -2.18749,-2.1874804 0,-1.20803 0.9793,-2.18749 2.18749,-2.18749 1.2081804,0 2.1874804,0.97946 2.1874804,2.18749 z m 0,0"
     id="path4231"
     inkscape:connector-curvature="0"
     style="fill:#e77816;stroke-width:0.03906226" />
  <path
     d="m 10.87498,18.36985 v -1.73751 c 1.5e-4,-0.14663 0.10208,-0.27343 0.24536,-0.30486 0.57861,-0.12711 1.13799,-0.3299 1.66365,-0.60318 0.006,-0.042 0.0182,-0.0826 0.0259,-0.12497 0.0107,-0.0554 0.0206,-0.11062 0.0343,-0.1651 0.0169,-0.0677 0.0378,-0.13397 0.0592,-0.20019 0.0168,-0.0533 0.0311,-0.10636 0.0522,-0.15823 0.0272,-0.0716 0.0597,-0.14023 0.0919,-0.20905 0.0203,-0.0433 0.0378,-0.088 0.06,-0.13061 0.0563,-0.10819 0.11901,-0.21301 0.18753,-0.31403 0.0174,-0.0259 0.0387,-0.0494 0.0571,-0.0748 0.0551,-0.0755 0.11139,-0.1503 0.17289,-0.22095 0.0313,-0.034 0.0626,-0.0653 0.0937,-0.0981 0.0554,-0.0581 0.11093,-0.11521 0.17075,-0.16907 0.0365,-0.0311 0.0749,-0.0624 0.11307,-0.0937 0.0593,-0.0487 0.11962,-0.096 0.18279,-0.14038 0.042,-0.0293 0.085,-0.0568 0.12848,-0.0842 0.0331,-0.0207 0.0624,-0.0447 0.0978,-0.0626 V 5.7630696 c -0.0334,-0.0191 -0.0626,-0.0426 -0.096,-0.0626 -0.0453,-0.0284 -0.0903,-0.0572 -0.13397,-0.0877 -0.0604,-0.0426 -0.11825,-0.0879 -0.17501,-0.13443 -0.0404,-0.0331 -0.081,-0.065 -0.11979,-0.0996 -0.0578,-0.0525 -0.11215,-0.10849 -0.16586,-0.1651 -0.0313,-0.0337 -0.0659,-0.0656 -0.0966,-0.10086 -0.0656,-0.0751 -0.12496,-0.15442 -0.18371,-0.23498 -0.0143,-0.02 -0.0313,-0.0384 -0.045,-0.059 -0.0702,-0.10269 -0.13397,-0.20966 -0.19135,-0.31998 -0.0168,-0.0313 -0.0296,-0.0656 -0.0449,-0.0978 -0.0385,-0.0804 -0.0757,-0.16128 -0.10727,-0.24444 -0.0165,-0.0441 -0.0298,-0.0891 -0.0441,-0.13336 -0.0247,-0.0748 -0.0478,-0.14969 -0.0665,-0.22659 -0.0122,-0.0497 -0.0215,-0.0998 -0.0313,-0.15 -0.008,-0.0438 -0.0206,-0.0862 -0.0272,-0.1303 -0.52566,-0.27329 -1.08505,-0.47623 -1.66366,-0.60318 -0.14312,-0.0319 -0.24475,-0.159 -0.24444,-0.30563 V 0.87000957 H 8.3749496 V 2.6075196 c -1.5e-4,0.14679 -0.10223,0.27359 -0.24566,0.30502 -0.7785,0.17105 -1.52084,0.4779 -2.19313,0.90621 -0.12345,0.0784 -0.28488,0.0607 -0.38834,-0.0427 l -1.22603,-1.22665 -1.76742,1.76757 1.2268,1.22588 c 0.10345,0.10346 0.12131,0.26489 0.0429,0.38849 -0.42831,0.67214 -0.73517,1.41448 -0.90622,2.19313 -0.0314,0.14343 -0.15853,0.24551 -0.30532,0.24551 H 0.87501957 V 10.86997 H 2.6125296 c 0.14663,1.5e-4 0.27358,0.10238 0.30502,0.24566 0.17105,0.7785 0.4779,1.52084 0.90621,2.19314 0.0784,0.12344 0.0606,0.28488 -0.0429,0.38848 l -1.22649,1.22589 1.76742,1.76741 1.22603,-1.2268 c 0.10346,-0.10345 0.26489,-0.12131 0.38834,-0.0429 0.67229,0.42847 1.41463,0.73517 2.19313,0.90637 0.14343,0.0313 0.24566,0.15839 0.24566,0.30517 V 18.3699 Z M 5.2500096,9.6199096 c 0,-2.41622 1.95876,-4.37498 4.37498,-4.37498 2.4162104,0 4.3749704,1.95876 4.3749704,4.37498 0,2.4162104 -1.95876,4.3749704 -4.3749704,4.3749704 -2.41515,-0.003 -4.37238,-1.95983 -4.37498,-4.3749704 z m 0,0"
     id="path4233"
     inkscape:connector-curvature="0"
     style="fill:#e77816;stroke-width:0.03906226" />
  <path
     d="m 13.37496,3.0574496 c -6.1e-4,0.0751 0.003,0.15014 0.0107,0.22476 0.0803,0.86425 0.6012,1.62581 1.37771,2.01369 0.31174,0.1567 0.65338,0.24505 1.00189,0.25878 0.0441,0.003 0.0763,0.003 0.10971,0.003 1.0617,1.5e-4 2.00774,-0.67016 2.3593,-1.67205 0.35156,-1.00173 0.032,-2.11638 -0.79681,-2.77983 v 2.26439 c 0,0.11826 -0.0665,0.22629 -0.17212,0.27939 l -1.24999,0.625 c -0.0881,0.0432 -0.19089,0.0432 -0.27878,0 l -1.24999,-0.625 c -0.10636,-0.0525 -0.1738,-0.16067 -0.1741,-0.27939 v -2.26439 c -0.59479,0.47287 -0.94024,1.19217 -0.9375,1.9519 z m 0,0"
     id="path4235"
     inkscape:connector-curvature="0"
     style="fill:#e77816;stroke-width:0.03906226" />
</svg>
