<?xml version="1.0" encoding="iso-8859-1"?>
<!-- Generator: Adobe Illustrator 19.0.0, SVG Export Plug-In . SVG Version: 6.00 Build 0)  -->
<svg version="1.1" id="Capa_1" xmlns="http://www.w3.org/2000/svg" xmlns:xlink="http://www.w3.org/1999/xlink" x="0px" y="0px"
	 viewBox="0 0 511.998 511.998" style="enable-background:new 0 0 511.998 511.998;" xml:space="preserve">
<g>
	<g>
		<path d="M256.004,0C141.942,0,49.146,92.791,49.146,206.848c0,11.869,4.274,23.318,12.032,32.283
			c0.01,0.012,0.017,0.024,0.027,0.036l130.548,157.981v104.812c0,0.015,0.002,0.029,0.002,0.044
			c0.001,0.315,0.017,0.63,0.047,0.945c0.015,0.154,0.044,0.303,0.065,0.455c0.025,0.173,0.045,0.345,0.078,0.516
			c0.034,0.17,0.08,0.335,0.122,0.502c0.038,0.151,0.071,0.302,0.116,0.452c0.049,0.164,0.11,0.321,0.169,0.481
			c0.053,0.149,0.102,0.299,0.164,0.447c0.061,0.149,0.134,0.291,0.202,0.436c0.072,0.153,0.14,0.306,0.22,0.456
			c0.073,0.137,0.157,0.266,0.235,0.398c0.089,0.15,0.174,0.3,0.27,0.445c0.095,0.142,0.201,0.275,0.303,0.412
			c0.094,0.125,0.182,0.255,0.282,0.377c0.19,0.231,0.392,0.452,0.601,0.665c0.022,0.022,0.04,0.047,0.062,0.069
			c0.022,0.022,0.047,0.041,0.07,0.063c0.213,0.209,0.433,0.411,0.664,0.599c0.125,0.102,0.255,0.191,0.383,0.286
			c0.135,0.1,0.266,0.205,0.406,0.298c0.148,0.098,0.3,0.184,0.451,0.274c0.13,0.077,0.258,0.16,0.393,0.232
			c0.152,0.081,0.308,0.151,0.463,0.223c0.143,0.067,0.282,0.138,0.428,0.199c0.151,0.062,0.303,0.112,0.456,0.167
			c0.157,0.056,0.311,0.116,0.472,0.165c0.152,0.046,0.306,0.079,0.46,0.118c0.164,0.041,0.326,0.087,0.493,0.12
			c0.176,0.035,0.353,0.055,0.53,0.081c0.148,0.021,0.292,0.049,0.441,0.063c0.329,0.032,0.66,0.05,0.991,0.05h108.424
			c0.33,0,0.662-0.018,0.991-0.05c0.148-0.014,0.291-0.042,0.437-0.063c0.179-0.025,0.357-0.046,0.535-0.081
			c0.166-0.033,0.325-0.078,0.488-0.119c0.156-0.039,0.311-0.073,0.466-0.119c0.158-0.048,0.31-0.107,0.466-0.163
			c0.155-0.055,0.31-0.106,0.463-0.17c0.144-0.059,0.281-0.13,0.422-0.196c0.157-0.073,0.315-0.144,0.469-0.226
			c0.133-0.071,0.259-0.153,0.388-0.229c0.153-0.09,0.306-0.177,0.455-0.276c0.139-0.092,0.269-0.196,0.403-0.295
			c0.13-0.096,0.261-0.186,0.387-0.289c0.22-0.181,0.429-0.373,0.632-0.572c0.033-0.032,0.068-0.058,0.1-0.091
			c0.034-0.034,0.062-0.071,0.095-0.105c0.197-0.202,0.388-0.41,0.567-0.627c0.106-0.128,0.199-0.264,0.297-0.398
			c0.096-0.13,0.197-0.256,0.287-0.391c0.102-0.153,0.191-0.311,0.284-0.468c0.074-0.124,0.153-0.246,0.222-0.374
			c0.084-0.157,0.156-0.318,0.231-0.479c0.064-0.138,0.133-0.272,0.191-0.412c0.064-0.155,0.116-0.313,0.173-0.471
			c0.054-0.152,0.112-0.302,0.16-0.457c0.048-0.159,0.083-0.32,0.123-0.48c0.039-0.158,0.083-0.312,0.115-0.472
			c0.037-0.187,0.059-0.375,0.086-0.564c0.019-0.137,0.045-0.27,0.059-0.408c0.033-0.332,0.05-0.665,0.05-0.998V397.148
			l130.3-157.694l0.069-0.083c7.885-9.001,12.228-20.529,12.228-32.523C462.852,92.791,370.06,0,256.004,0z M256.003,20.312
			c3.325,2.387,11.789,15.541,19.054,54.884c6.624,35.86,10.27,82.615,10.27,131.65c0.001,16.17-13.154,29.326-29.324,29.326
			c-16.169,0-29.325-13.155-29.325-29.325c0-49.045,3.646-95.801,10.268-131.657C244.213,35.848,252.677,22.698,256.003,20.312z
			 M268.942,383.498h-25.874l-45.663-131.529c7.689-3.427,14.283-8.729,19.253-15.292c9.03,11.882,23.305,19.572,39.347,19.572
			c16.039,0,30.31-7.687,39.342-19.565c4.971,6.571,11.57,11.874,19.264,15.297L268.942,383.498z M285.978,403.576l-29.974,29.974
			l-29.975-29.974h9.82c0.025,0,0.05,0.003,0.075,0.003c0.023,0,0.047-0.003,0.071-0.003h40.015c0.024,0,0.047,0.003,0.071,0.003
			c0.025,0,0.05-0.003,0.075-0.003H285.978z M229.513,25.859c-4.193,10.158-7.895,23.384-11.19,39.856
			c-7.56,37.798-11.723,87.92-11.723,141.134c0,14.113-10.052,26.234-23.904,28.824c-1.776,0.332-3.599,0.501-5.42,0.501
			c-16.169,0-29.325-13.155-29.325-29.325c0-50.777,11.775-98.366,33.156-133.999C194.919,49.83,211.561,33.817,229.513,25.859z
			 M76.562,226.239c-0.005-0.005-0.01-0.01-0.015-0.015c-0.023-0.027-0.042-0.056-0.065-0.083
			c-4.679-5.337-7.257-12.189-7.257-19.292c0-77.894,47.94-144.792,115.862-172.771c-7.6,8.129-14.706,17.627-21.196,28.441
			c-23.226,38.709-36.017,89.966-36.017,144.33c0,16.169-13.155,29.325-29.325,29.325C90.145,236.173,82.131,232.552,76.562,226.239
			z M101.303,256.17c14.924-0.824,28.101-8.303,36.61-19.512c9.029,11.894,23.312,19.594,39.364,19.594
			c0.12,0,0.238-0.007,0.357-0.008l44.18,127.255H206.52L101.303,256.17z M211.831,417.775l29.974,29.974l-29.974,29.974V417.775z
			 M226.029,491.922l29.975-29.974l29.974,29.974H226.029z M300.176,477.724l-29.974-29.975l29.974-29.974V477.724z
			 M305.488,383.498h-15.293l44.189-127.255c0.112,0.001,0.225,0.008,0.337,0.008c16.052,0,30.335-7.699,39.364-19.594
			c8.51,11.21,21.687,18.689,36.612,19.513L305.488,383.498z M435.46,226.217c-0.041,0.048-0.086,0.089-0.128,0.139l-0.072,0.087
			c-5.554,6.183-13.498,9.73-21.812,9.73c-16.169,0-29.325-13.155-29.325-29.325c0-22.025-2.107-43.698-6.262-64.416
			c-1.09-5.436-6.383-8.96-11.817-7.869c-5.436,1.09-8.959,6.381-7.869,11.817c3.895,19.421,5.871,39.764,5.871,60.466
			c0,16.169-13.155,29.325-29.325,29.325c-1.746,0-3.491-0.16-5.209-0.47c-0.045-0.009-0.092-0.014-0.138-0.022
			c-0.022-0.004-0.045-0.007-0.067-0.011c-13.849-2.572-23.9-14.692-23.9-28.821c0-53.208-4.164-103.331-11.727-141.134
			c-3.297-16.482-7.001-29.715-11.198-39.876c22.207,9.821,42.3,31.893,57.337,63.783c2.364,5.016,8.346,7.165,13.362,4.799
			c5.015-2.364,7.164-8.347,4.799-13.362c-8.802-18.668-19.302-34.434-31.033-46.97c67.902,27.988,115.826,94.878,115.826,172.761
			C442.774,213.997,440.177,220.864,435.46,226.217z"/>
	</g>
</g>
<g>
	<g>
		<path d="M360.412,102.4c-12.919,0-12.941,20.078,0,20.078C373.331,122.478,373.352,102.4,360.412,102.4z"/>
	</g>
</g>
<g>
</g>
<g>
</g>
<g>
</g>
<g>
</g>
<g>
</g>
<g>
</g>
<g>
</g>
<g>
</g>
<g>
</g>
<g>
</g>
<g>
</g>
<g>
</g>
<g>
</g>
<g>
</g>
<g>
</g>
</svg>
