<?xml version="1.0" encoding="UTF-8" standalone="no"?>
<svg
   xmlns:dc="http://purl.org/dc/elements/1.1/"
   xmlns:cc="http://creativecommons.org/ns#"
   xmlns:rdf="http://www.w3.org/1999/02/22-rdf-syntax-ns#"
   xmlns:svg="http://www.w3.org/2000/svg"
   xmlns="http://www.w3.org/2000/svg"
   xmlns:sodipodi="http://sodipodi.sourceforge.net/DTD/sodipodi-0.dtd"
   xmlns:inkscape="http://www.inkscape.org/namespaces/inkscape"
   height="11.249999pt"
   viewBox="-48 0 9.0725698 11.250011"
   width="9.0725698pt"
   version="1.1"
   id="svg1058"
   sodipodi:docname="remove.svg"
   inkscape:version="0.92.3 (5aff6ba, 2018-11-25)">
  <metadata
     id="metadata1064">
    <rdf:RDF>
      <cc:Work
         rdf:about="">
        <dc:format>image/svg+xml</dc:format>
        <dc:type
           rdf:resource="http://purl.org/dc/dcmitype/StillImage" />
        <dc:title></dc:title>
      </cc:Work>
    </rdf:RDF>
  </metadata>
  <defs
     id="defs1062" />
  <sodipodi:namedview
     pagecolor="#ffffff"
     bordercolor="#666666"
     borderopacity="1"
     objecttolerance="10"
     gridtolerance="10"
     guidetolerance="10"
     inkscape:pageopacity="0"
     inkscape:pageshadow="2"
     inkscape:window-width="1871"
     inkscape:window-height="1025"
     id="namedview1060"
     showgrid="false"
     fit-margin-top="0"
     fit-margin-left="0"
     fit-margin-right="0"
     fit-margin-bottom="0"
     inkscape:zoom="0.3171623"
     inkscape:cx="830.89841"
     inkscape:cy="-755.63812"
     inkscape:window-x="49"
     inkscape:window-y="27"
     inkscape:window-maximized="1"
     inkscape:current-layer="svg1058" />
  <path
     d="m -47.02407,0.90726 c -0.43892,-9e-5 -0.79483,0.35581 -0.79474,0.79473 v 0.65688 h 8.70968 V 1.70199 c 9e-5,-0.43892 -0.35582,-0.79482 -0.79474,-0.79473 z m 0,0"
     id="path1046"
     inkscape:connector-curvature="0"
     style="fill:#57a4ff;stroke-width:0.02268145" />
  <g
     id="g1056"
     transform="matrix(0.02268145,0,0,0.02268145,-48.00026,0)"
     style="fill:#004fac">
    <path
       d="M 356.96094,32 H 256 V 8 c 0,-4.417969 -3.58203,-8 -8,-8 h -96 c -4.41797,0 -8,3.582031 -8,8 V 32 H 43.039062 C 19.28125,32.027344 0.0273438,51.28125 0,75.039062 V 104 c 0,4.41797 3.582031,8 8,8 h 8.664062 L 48,472 c 0,13.25391 10.746094,24 24,24 h 256 c 13.02344,0.0859 23.70703,-10.29297 24,-23.3125 L 383.33594,112 H 392 c 4.41797,0 8,-3.58203 8,-8 V 75.039062 C 399.97266,51.28125 380.71875,32.027344 356.96094,32 Z M 160,16 h 80 v 16 h -80 z m 176,456 c 0,4.41797 -3.58203,8 -8,8 H 72 c -2.222656,-0.0586 -4.328125,-1.01563 -5.835938,-2.65234 C 64.65625,475.71094 63.875,473.53516 64,471.3125 L 32.726562,112 H 367.27344 Z M 384,96 H 16 V 75.039062 C 16.019531,60.113281 28.113281,48.019531 43.039062,48 H 356.96094 C 371.88672,48.019531 383.98437,60.113281 384,75.039062 Z m 0,0"
       id="path1048"
       inkscape:connector-curvature="0" />
    <path
       d="m 200,448 c 4.41797,0 8,-3.58203 8,-8 V 128 c 0,-4.41797 -3.58203,-8 -8,-8 -4.41797,0 -8,3.58203 -8,8 v 312 c 0,4.41797 3.58203,8 8,8 z m 0,0"
       id="path1050"
       inkscape:connector-curvature="0" />
    <path
       d="m 112,344 c 4.41797,0 8,-3.58203 8,-8 V 152 c 0,-4.41797 -3.58203,-8 -8,-8 -4.41797,0 -8,3.58203 -8,8 v 184 c 0,4.41797 3.58203,8 8,8 z m 0,0"
       id="path1052"
       inkscape:connector-curvature="0" />
    <path
       d="m 288,344 c 4.41797,0 8,-3.58203 8,-8 V 152 c 0,-4.41797 -3.58203,-8 -8,-8 -4.41797,0 -8,3.58203 -8,8 v 184 c 0,4.41797 3.58203,8 8,8 z m 0,0"
       id="path1054"
       inkscape:connector-curvature="0" />
  </g>
</svg>
