<?xml version="1.0" encoding="UTF-8" standalone="no"?>
<svg
   xmlns:dc="http://purl.org/dc/elements/1.1/"
   xmlns:cc="http://creativecommons.org/ns#"
   xmlns:rdf="http://www.w3.org/1999/02/22-rdf-syntax-ns#"
   xmlns:svg="http://www.w3.org/2000/svg"
   xmlns="http://www.w3.org/2000/svg"
   xmlns:sodipodi="http://sodipodi.sourceforge.net/DTD/sodipodi-0.dtd"
   xmlns:inkscape="http://www.inkscape.org/namespaces/inkscape"
   height="17.000002pt"
   viewBox="-2 0 16.84544 17.000002"
   width="16.84544pt"
   version="1.1"
   id="svg6607"
   sodipodi:docname="report_narrow.svg"
   inkscape:version="0.92.4 (33fec40, 2019-01-16)">
  <metadata
     id="metadata6613">
    <rdf:RDF>
      <cc:Work
         rdf:about="">
        <dc:format>image/svg+xml</dc:format>
        <dc:type
           rdf:resource="http://purl.org/dc/dcmitype/StillImage" />
        <dc:title></dc:title>
      </cc:Work>
    </rdf:RDF>
  </metadata>
  <defs
     id="defs6611" />
  <sodipodi:namedview
     pagecolor="#ffffff"
     bordercolor="#666666"
     borderopacity="1"
     objecttolerance="10"
     gridtolerance="10"
     guidetolerance="10"
     inkscape:pageopacity="0"
     inkscape:pageshadow="2"
     inkscape:window-width="1871"
     inkscape:window-height="1025"
     id="namedview6609"
     showgrid="false"
     fit-margin-top="1"
     fit-margin-left="1"
     fit-margin-right="1"
     fit-margin-bottom="1"
     inkscape:zoom="9.3576"
     inkscape:cx="5.875083"
     inkscape:cy="13.805187"
     inkscape:window-x="49"
     inkscape:window-y="27"
     inkscape:window-maximized="1"
     inkscape:current-layer="svg6607" />
  <g
     id="g7163"
     transform="matrix(0.03504673,0,0,0.03504673,-1,0.99999996)">
    <path
       style="fill:#e77816;fill-opacity:1"
       id="path6597"
       d="m 317,278.90625 -25,25.40234 c -0.71875,0.83985 -1.64844,1.47657 -2.69141,1.84375 L 226.42188,327 h 38.69531 c 4.41797,0 8,3.58203 8,8 0,4.41797 -3.58203,8 -8,8 H 52.109375 c -4.417969,0 -8,-3.58203 -8,-8 0,-4.41797 3.582031,-8 8,-8 H 218.49219 c -0.67969,0 -1.3125,-0.73828 -1.875,-1.30078 -2.14063,-2.10547 -2.89063,-5.25391 -1.92969,-8.09766 L 219.50781,303 H 52.109375 c -4.417969,0 -8,-3.58203 -8,-8 0,-4.41797 3.582031,-8 8,-8 H 224.85547 l 11.28125,-33.89844 c 0.28125,-1.10547 0.83594,-2.12109 1.61719,-2.94922 L 317,170.64453 V 81 H 244.91016 C 240.49219,81 237,77.871094 237,73.449219 V 0 H 0 V 428 H 317 Z M 52.109375,247 H 165.11719 c 4.41797,0 8,3.58203 8,8 0,4.41797 -3.58203,8 -8,8 H 52.109375 c -4.417969,0 -8,-3.58203 -8,-8 0,-4.41797 3.582031,-8 8,-8 z M 265.11719,383 H 52.109375 c -4.417969,0 -8,-3.58203 -8,-8 0,-4.41797 3.582031,-8 8,-8 H 265.11719 c 4.41797,0 8,3.58203 8,8 0,4.41797 -3.58203,8 -8,8 z m 0,0"
       inkscape:connector-curvature="0" />
    <path
       style="fill:#e77816;fill-opacity:1"
       id="path6599"
       d="M 253,11.808594 V 65 h 53.55469 z m 0,0"
       inkscape:connector-curvature="0" />
    <path
       style="fill:#e77816;fill-opacity:1"
       id="path6601"
       d="m 234.94531,307.64062 37.02735,-12.3789 -24.64844,-24.64844 z m 0,0"
       inkscape:connector-curvature="0" />
    <path
       style="fill:#e77816;fill-opacity:1"
       id="path6603"
       d="M 286.76562,287.42578 388.05469,185.91406 356.67187,154.53125 255.16016,255.82031 Z m 0,0"
       inkscape:connector-curvature="0" />
    <path
       style="fill:#e77816;fill-opacity:1"
       id="path6605"
       d="m 423.58984,150.29687 -31.30468,-31.30078 -24.28907,24.23438 31.35938,31.35547 z m 0,0"
       inkscape:connector-curvature="0" />
  </g>
</svg>
