<?xml version="1.0" encoding="UTF-8" standalone="no"?>
<svg
   xmlns:dc="http://purl.org/dc/elements/1.1/"
   xmlns:cc="http://creativecommons.org/ns#"
   xmlns:rdf="http://www.w3.org/1999/02/22-rdf-syntax-ns#"
   xmlns:svg="http://www.w3.org/2000/svg"
   xmlns="http://www.w3.org/2000/svg"
   xmlns:sodipodi="http://sodipodi.sourceforge.net/DTD/sodipodi-0.dtd"
   xmlns:inkscape="http://www.inkscape.org/namespaces/inkscape"
   height="17pt"
   viewBox="-66 0 13.500028 17.008545"
   width="13.500028pt"
   version="1.1"
   id="svg5918"
   sodipodi:docname="report_narrow.svg"
   inkscape:version="0.92.4 (33fec40, 2019-01-16)">
  <metadata
     id="metadata5924">
    <rdf:RDF>
      <cc:Work
         rdf:about="">
        <dc:format>image/svg+xml</dc:format>
        <dc:type
           rdf:resource="http://purl.org/dc/dcmitype/StillImage" />
        <dc:title></dc:title>
      </cc:Work>
    </rdf:RDF>
  </metadata>
  <defs
     id="defs5922" />
  <sodipodi:namedview
     pagecolor="#ffffff"
     bordercolor="#666666"
     borderopacity="1"
     objecttolerance="10"
     gridtolerance="10"
     guidetolerance="10"
     inkscape:pageopacity="0"
     inkscape:pageshadow="2"
     inkscape:window-width="1871"
     inkscape:window-height="1025"
     id="namedview5920"
     showgrid="false"
     fit-margin-top="1"
     fit-margin-left="1"
     fit-margin-right="1"
     fit-margin-bottom="1"
     inkscape:zoom="14.077514"
     inkscape:cx="12.948429"
     inkscape:cy="10.51919"
     inkscape:window-x="49"
     inkscape:window-y="27"
     inkscape:window-maximized="1"
     inkscape:current-layer="svg5918" />
  <g
     id="g6481"
     style="fill:#e77816;fill-opacity:1"
     transform="matrix(0.02637529,0,0,0.02637529,-65.145382,1.0005026)">
    <path
       id="path5894"
       d="M 0.109375,66.382812 V 559.51562 c 0,5.23829 4.246094,9.48438 9.484375,9.48438 h 360.36719 c 5.23437,0 9.48047,-4.24609 9.48047,-9.48438 V 161.21875 c 0,-0.21094 -0.10157,-0.39063 -0.1211,-0.59766 -0.0469,-0.83203 -0.21094,-1.65234 -0.48437,-2.4375 -0.10547,-0.30468 -0.17969,-0.59765 -0.3125,-0.89453 -0.46094,-1.03125 -1.10157,-1.97265 -1.89844,-2.77734 L 281.79297,59.679688 c -0.80469,-0.800782 -1.75,-1.441407 -2.78906,-1.898438 -0.28516,-0.121094 -0.57422,-0.222656 -0.8711,-0.3125 -0.79297,-0.273438 -1.61719,-0.4375 -2.45703,-0.492188 -0.16016,0.02734 -0.34766,-0.07422 -0.54687,-0.07422 H 9.59375 c -5.238281,0 -9.484375,4.242187 -9.484375,9.480468 z M 347.06641,151.73437 H 284.60937 V 89.277344 Z M 19.074219,75.867188 H 265.64453 v 85.351562 c 0,5.23437 4.24609,9.48047 9.48047,9.48047 h 85.35156 V 550.03516 H 19.074219 Z m 0,0"
       style="fill:#e77816;fill-opacity:1"
       inkscape:connector-curvature="0" />
    <path
       id="path5896"
       d="m 398.41016,493.13281 v 18.96485 h 28.44921 c 5.23829,0 9.48438,-4.24219 9.48438,-9.48047 V 9.484375 C 436.34375,4.246094 432.09766,0 426.85937,0 H 66.492188 c -5.238282,0 -9.484376,4.246094 -9.484376,9.484375 v 28.449219 h 18.96875 V 18.964844 H 417.375 V 493.13281 Z m 0,0"
       style="fill:#e77816;fill-opacity:1"
       inkscape:connector-curvature="0" />
    <path
       id="path5898"
       d="M 75.976562,189.66797 H 303.57422 v 18.96484 H 75.976562 Z m 0,0"
       style="fill:#e77816;fill-opacity:1"
       inkscape:connector-curvature="0" />
    <path
       id="path5900"
       d="m 75.976562,132.76562 h 75.867188 v 18.96875 H 75.976562 Z m 0,0"
       style="fill:#e77816;fill-opacity:1"
       inkscape:connector-curvature="0" />
    <path
       id="path5902"
       d="M 75.976562,246.56641 H 227.71094 v 18.96875 H 75.976562 Z m 0,0"
       style="fill:#e77816;fill-opacity:1"
       inkscape:connector-curvature="0" />
    <path
       id="path5904"
       d="m 246.67578,246.56641 h 56.89844 v 18.96875 h -56.89844 z m 0,0"
       style="fill:#e77816;fill-opacity:1"
       inkscape:connector-curvature="0" />
    <path
       id="path5906"
       d="M 75.976562,303.46484 H 303.57422 v 18.96875 H 75.976562 Z m 0,0"
       style="fill:#e77816;fill-opacity:1"
       inkscape:connector-curvature="0" />
    <path
       id="path5908"
       d="M 75.976562,417.26562 H 303.57422 v 18.96875 H 75.976562 Z m 0,0"
       style="fill:#e77816;fill-opacity:1"
       inkscape:connector-curvature="0" />
    <path
       id="path5910"
       d="m 161.32422,360.36719 h 142.25 v 18.96484 h -142.25 z m 0,0"
       style="fill:#e77816;fill-opacity:1"
       inkscape:connector-curvature="0" />
    <path
       id="path5912"
       d="m 75.976562,360.36719 h 66.382808 v 18.96484 H 75.976562 Z m 0,0"
       style="fill:#e77816;fill-opacity:1"
       inkscape:connector-curvature="0" />
    <path
       id="path5914"
       d="m 75.976562,474.16797 h 37.933598 v 18.96484 H 75.976562 Z m 0,0"
       style="fill:#e77816;fill-opacity:1"
       inkscape:connector-curvature="0" />
    <path
       id="path5916"
       d="m 132.875,474.16797 h 170.69922 v 18.96484 H 132.875 Z m 0,0"
       style="fill:#e77816;fill-opacity:1"
       inkscape:connector-curvature="0" />
  </g>
</svg>
