<?xml version="1.0" encoding="UTF-8" standalone="no"?>
<svg
   xmlns:dc="http://purl.org/dc/elements/1.1/"
   xmlns:cc="http://creativecommons.org/ns#"
   xmlns:rdf="http://www.w3.org/1999/02/22-rdf-syntax-ns#"
   xmlns:svg="http://www.w3.org/2000/svg"
   xmlns="http://www.w3.org/2000/svg"
   xmlns:sodipodi="http://sodipodi.sourceforge.net/DTD/sodipodi-0.dtd"
   xmlns:inkscape="http://www.inkscape.org/namespaces/inkscape"
   height="17pt"
   viewBox="0 0 17 17"
   width="17pt"
   version="1.1"
   id="svg4781"
   sodipodi:docname="report.svg"
   inkscape:version="0.92.4 (33fec40, 2019-01-16)">
  <metadata
     id="metadata4787">
    <rdf:RDF>
      <cc:Work
         rdf:about="">
        <dc:format>image/svg+xml</dc:format>
        <dc:type
           rdf:resource="http://purl.org/dc/dcmitype/StillImage" />
        <dc:title></dc:title>
      </cc:Work>
    </rdf:RDF>
  </metadata>
  <defs
     id="defs4785" />
  <sodipodi:namedview
     pagecolor="#ffffff"
     bordercolor="#666666"
     borderopacity="1"
     objecttolerance="10"
     gridtolerance="10"
     guidetolerance="10"
     inkscape:pageopacity="0"
     inkscape:pageshadow="2"
     inkscape:window-width="1871"
     inkscape:window-height="1025"
     id="namedview4783"
     showgrid="false"
     fit-margin-top="1"
     fit-margin-left="1"
     fit-margin-right="1"
     fit-margin-bottom="1"
     inkscape:zoom="14.353127"
     inkscape:cx="26.881956"
     inkscape:cy="5.7372285"
     inkscape:window-x="49"
     inkscape:window-y="27"
     inkscape:window-maximized="1"
     inkscape:current-layer="svg4781" />
  <g
     id="g5481"
     style="fill:#e77816;fill-opacity:1">
    <path
       style="stroke-width:0.03024194;fill:#e77816;fill-opacity:1"
       inkscape:connector-curvature="0"
       id="path4751"
       d="M 15.03226,15.51613 V 7.4752 L 13.58065,4.57197 V 1 H 4.28692 L 1.96774,3.31918 V 15.51613 H 1 V 16 H 16 V 15.51613 Z M 14.39883,7.29032 H 12.27859 L 13.33871,5.16996 Z M 4.14516,1.82598 V 3.17742 H 2.79372 Z m 7.5,13.69015 H 2.45161 V 3.66129 H 4.62903 V 1.48387 h 8.46774 v 3.0881 L 11.64516,7.4752 Z m 2.90323,0 h -0.96774 v -4.1129 h -0.48388 v 4.1129 H 12.12903 V 7.77419 h 0.96774 v 3.14516 h 0.48388 V 7.77419 h 0.96774 z m 0,0" />
    <path
       style="stroke-width:0.03024194;fill:#e77816;fill-opacity:1"
       inkscape:connector-curvature="0"
       id="path4753"
       d="M 8.25806,4.14516 H 2.93548 V 8.01613 H 8.25806 Z M 7.77419,7.53226 H 3.41935 V 4.62903 h 4.35484 z m 0,0" />
    <path
       style="stroke-width:0.03024194;fill:#e77816;fill-opacity:1"
       inkscape:connector-curvature="0"
       id="path4755"
       d="m 6.80645,15.03226 h 4.35484 v -3.3871 H 6.80645 Z m 0.48387,-2.90323 h 3.3871 v 2.41936 h -3.3871 z m 0,0" />
    <path
       style="stroke-width:0.03024194;fill:#e77816;fill-opacity:1"
       inkscape:connector-curvature="0"
       id="path4757"
       d="M 8.98387,1.96774 H 12.6129 V 2.45161 H 8.98387 Z m 0,0" />
    <path
       style="stroke-width:0.03024194;fill:#e77816;fill-opacity:1"
       inkscape:connector-curvature="0"
       id="path4759"
       d="M 8.98387,2.93548 H 12.6129 V 3.41935 H 8.98387 Z m 0,0" />
    <path
       style="stroke-width:0.03024194;fill:#e77816;fill-opacity:1"
       inkscape:connector-curvature="0"
       id="path4761"
       d="M 8.98387,3.90323 H 12.6129 V 4.3871 H 8.98387 Z m 0,0" />
    <path
       style="stroke-width:0.03024194;fill:#e77816;fill-opacity:1"
       inkscape:connector-curvature="0"
       id="path4763"
       d="m 2.93548,8.74194 h 8.22581 V 9.22581 H 2.93548 Z m 0,0" />
    <path
       style="stroke-width:0.03024194;fill:#e77816;fill-opacity:1"
       inkscape:connector-curvature="0"
       id="path4765"
       d="m 2.93548,9.70968 h 8.22581 v 0.48387 H 2.93548 Z m 0,0" />
    <path
       style="stroke-width:0.03024194;fill:#e77816;fill-opacity:1"
       inkscape:connector-curvature="0"
       id="path4767"
       d="m 2.93548,10.67742 h 8.22581 v 0.48387 H 2.93548 Z m 0,0" />
    <path
       style="stroke-width:0.03024194;fill:#e77816;fill-opacity:1"
       inkscape:connector-curvature="0"
       id="path4769"
       d="m 2.93548,12.12903 h 3.3871 v 0.48387 h -3.3871 z m 0,0" />
    <path
       style="stroke-width:0.03024194;fill:#e77816;fill-opacity:1"
       inkscape:connector-curvature="0"
       id="path4771"
       d="m 2.93548,13.09677 h 3.3871 v 0.48388 h -3.3871 z m 0,0" />
    <path
       style="stroke-width:0.03024194;fill:#e77816;fill-opacity:1"
       inkscape:connector-curvature="0"
       id="path4773"
       d="m 2.93548,14.06452 h 3.3871 v 0.48387 h -3.3871 z m 0,0" />
    <path
       style="stroke-width:0.03024194;fill:#e77816;fill-opacity:1"
       inkscape:connector-curvature="0"
       id="path4775"
       d="M 8.74194,7.53226 H 9.22581 V 8.01613 H 8.74194 Z m 0,0" />
    <path
       style="stroke-width:0.03024194;fill:#e77816;fill-opacity:1"
       inkscape:connector-curvature="0"
       id="path4777"
       d="m 9.70968,7.53226 h 0.48387 V 8.01613 H 9.70968 Z m 0,0" />
    <path
       style="stroke-width:0.03024194;fill:#e77816;fill-opacity:1"
       inkscape:connector-curvature="0"
       id="path4779"
       d="m 10.67742,7.53226 h 0.48387 v 0.48387 h -0.48387 z m 0,0" />
  </g>
</svg>
