<?xml version="1.0" encoding="UTF-8" standalone="no"?>
<!-- Generator: Adobe Illustrator 19.0.0, SVG Export Plug-In . SVG Version: 6.00 Build 0)  -->

<svg
   xmlns:dc="http://purl.org/dc/elements/1.1/"
   xmlns:cc="http://creativecommons.org/ns#"
   xmlns:rdf="http://www.w3.org/1999/02/22-rdf-syntax-ns#"
   xmlns:svg="http://www.w3.org/2000/svg"
   xmlns="http://www.w3.org/2000/svg"
   xmlns:sodipodi="http://sodipodi.sourceforge.net/DTD/sodipodi-0.dtd"
   xmlns:inkscape="http://www.inkscape.org/namespaces/inkscape"
   version="1.1"
   id="Layer_1"
   x="0px"
   y="0px"
   viewBox="0 0 13.212831 21.140797"
   xml:space="preserve"
   width="13.749826"
   height="22"
   sodipodi:docname="right-arrow.svg"
   inkscape:version="0.92.3 (5aff6ba, 2018-11-25)"><metadata
   id="metadata4306"><rdf:RDF><cc:Work
       rdf:about=""><dc:format>image/svg+xml</dc:format><dc:type
         rdf:resource="http://purl.org/dc/dcmitype/StillImage" /><dc:title></dc:title></cc:Work></rdf:RDF></metadata><defs
   id="defs4304" /><sodipodi:namedview
   pagecolor="#ffffff"
   bordercolor="#666666"
   borderopacity="1"
   objecttolerance="10"
   gridtolerance="10"
   guidetolerance="10"
   inkscape:pageopacity="0"
   inkscape:pageshadow="2"
   inkscape:window-width="1871"
   inkscape:window-height="1025"
   id="namedview4302"
   showgrid="false"
   fit-margin-top="1"
   fit-margin-left="1"
   fit-margin-right="1"
   fit-margin-bottom="1"
   inkscape:zoom="0.4609375"
   inkscape:cx="-376.04038"
   inkscape:cy="11.000003"
   inkscape:window-x="49"
   inkscape:window-y="27"
   inkscape:window-maximized="1"
   inkscape:current-layer="Layer_1" />
<g
   id="g4269"
   transform="matrix(0.0390625,0,0,0.0390625,-3.0030391,0.96094531)">
	<g
   id="g4267">
		<path
   d="M 382.678,226.804 163.73,7.86 C 158.666,2.792 151.906,0 144.698,0 137.49,0 130.73,2.792 125.666,7.86 l -16.124,16.12 c -10.492,10.504 -10.492,27.576 0,38.064 L 293.398,245.9 109.338,429.96 c -5.064,5.068 -7.86,11.824 -7.86,19.028 0,7.212 2.796,13.968 7.86,19.04 l 16.124,16.116 c 5.068,5.068 11.824,7.86 19.032,7.86 7.208,0 13.968,-2.792 19.032,-7.86 L 382.678,265 c 5.076,-5.084 7.864,-11.872 7.848,-19.088 0.016,-7.244 -2.772,-14.028 -7.848,-19.108 z"
   id="path4265"
   inkscape:connector-curvature="0"
   style="fill:#0e86fe" />
	</g>
</g>
<g
   id="g4271"
   transform="translate(-239.39562,-235.4316)">
</g>
<g
   id="g4273"
   transform="translate(-239.39562,-235.4316)">
</g>
<g
   id="g4275"
   transform="translate(-239.39562,-235.4316)">
</g>
<g
   id="g4277"
   transform="translate(-239.39562,-235.4316)">
</g>
<g
   id="g4279"
   transform="translate(-239.39562,-235.4316)">
</g>
<g
   id="g4281"
   transform="translate(-239.39562,-235.4316)">
</g>
<g
   id="g4283"
   transform="translate(-239.39562,-235.4316)">
</g>
<g
   id="g4285"
   transform="translate(-239.39562,-235.4316)">
</g>
<g
   id="g4287"
   transform="translate(-239.39562,-235.4316)">
</g>
<g
   id="g4289"
   transform="translate(-239.39562,-235.4316)">
</g>
<g
   id="g4291"
   transform="translate(-239.39562,-235.4316)">
</g>
<g
   id="g4293"
   transform="translate(-239.39562,-235.4316)">
</g>
<g
   id="g4295"
   transform="translate(-239.39562,-235.4316)">
</g>
<g
   id="g4297"
   transform="translate(-239.39562,-235.4316)">
</g>
<g
   id="g4299"
   transform="translate(-239.39562,-235.4316)">
</g>
</svg>