<?xml version="1.0" encoding="UTF-8" standalone="no"?>
<!-- Generator: Adobe Illustrator 19.0.0, SVG Export Plug-In . SVG Version: 6.00 Build 0)  -->

<svg
   xmlns:dc="http://purl.org/dc/elements/1.1/"
   xmlns:cc="http://creativecommons.org/ns#"
   xmlns:rdf="http://www.w3.org/1999/02/22-rdf-syntax-ns#"
   xmlns:svg="http://www.w3.org/2000/svg"
   xmlns="http://www.w3.org/2000/svg"
   xmlns:sodipodi="http://sodipodi.sourceforge.net/DTD/sodipodi-0.dtd"
   xmlns:inkscape="http://www.inkscape.org/namespaces/inkscape"
   version="1.1"
   id="Layer_1"
   x="0px"
   y="0px"
   viewBox="0 0 15.000003 15.000003"
   xml:space="preserve"
   sodipodi:docname="soft-link.svg"
   width="15.000003"
   height="15.000003"
   inkscape:version="0.92.3 (5aff6ba, 2018-11-25)"><metadata
   id="metadata1193"><rdf:RDF><cc:Work
       rdf:about=""><dc:format>image/svg+xml</dc:format><dc:type
         rdf:resource="http://purl.org/dc/dcmitype/StillImage" /><dc:title></dc:title></cc:Work></rdf:RDF></metadata><defs
   id="defs1191" /><sodipodi:namedview
   pagecolor="#ffffff"
   bordercolor="#666666"
   borderopacity="1"
   objecttolerance="10"
   gridtolerance="10"
   guidetolerance="10"
   inkscape:pageopacity="0"
   inkscape:pageshadow="2"
   inkscape:window-width="1871"
   inkscape:window-height="1025"
   id="namedview1189"
   showgrid="false"
   fit-margin-top="0"
   fit-margin-left="0"
   fit-margin-right="0"
   fit-margin-bottom="0"
   inkscape:zoom="1.6386719"
   inkscape:cx="7.5"
   inkscape:cy="7.5000026"
   inkscape:window-x="49"
   inkscape:window-y="27"
   inkscape:window-maximized="1"
   inkscape:current-layer="Layer_1" />
<g
   id="g1136"
   transform="scale(0.02929688)">
	<path
   style="fill:#ffb655"
   d="m 347.463,488.453 v -33.16 c 0,-13.004 -10.543,-23.547 -23.547,-23.547 -13.004,0 -23.547,10.543 -23.547,23.547 v 33.16 c 0,13.004 10.543,23.547 23.547,23.547 13.004,0 23.547,-10.543 23.547,-23.547 z"
   id="path1130"
   inkscape:connector-curvature="0" />
	<path
   style="fill:#ffb655"
   d="m 488.455,300.37 -33.162,-0.002 c -0.002,0 0,0 -0.002,0 -13.003,0 -23.547,10.543 -23.547,23.545 0,13.004 10.541,23.549 23.545,23.549 l 33.162,0.002 c 0.002,0 0,0 0.002,0 13.003,0 23.547,-10.543 23.547,-23.545 0,-13.006 -10.541,-23.547 -23.545,-23.549 z"
   id="path1132"
   inkscape:connector-curvature="0" />
	<path
   style="fill:#ffb655"
   d="m 440.262,463.81 c 6.025,0 12.053,-2.3 16.651,-6.898 9.194,-9.194 9.196,-24.103 0.002,-33.3 l -23.45,-23.45 c -9.196,-9.196 -24.104,-9.196 -33.302,-0.002 -9.194,9.196 -9.196,24.106 -0.002,33.302 l 23.45,23.45 c 4.598,4.6 10.624,6.898 16.651,6.898 z"
   id="path1134"
   inkscape:connector-curvature="0" />
</g>
<g
   id="g1144"
   transform="scale(0.02929688)">
	<path
   style="fill:#ee8700"
   d="M 211.63,23.547 C 211.63,10.543 201.087,0 188.083,0 175.079,0 164.536,10.543 164.536,23.547 v 33.16 c 0,13.004 10.543,23.547 23.547,23.547 13.004,0 23.547,-10.543 23.547,-23.547 z"
   id="path1138"
   inkscape:connector-curvature="0" />
	<path
   style="fill:#ee8700"
   d="m 56.706,211.631 c 13.003,0 23.547,-10.543 23.547,-23.545 0,-13.004 -10.541,-23.549 -23.545,-23.549 l -33.159,-0.002 c -0.002,0 0,0 -0.002,0 C 10.544,164.536 0,175.078 0,188.081 c 0,13.006 10.541,23.547 23.545,23.549 l 33.161,0.001 c 0,0 -0.002,0 0,0 z"
   id="path1140"
   inkscape:connector-curvature="0" />
	<path
   style="fill:#ee8700"
   d="m 55.086,55.087 c -9.194,9.194 -9.196,24.103 -0.002,33.3 l 23.45,23.45 c 4.6,4.598 10.626,6.898 16.651,6.898 6.025,0 12.053,-2.3 16.651,-6.896 9.194,-9.196 9.196,-24.106 0.002,-33.302 l -23.45,-23.45 c -9.199,-9.195 -24.108,-9.197 -33.302,0 z"
   id="path1142"
   inkscape:connector-curvature="0" />
</g>
<g
   id="g1150"
   transform="scale(0.02929688)">
	<path
   style="fill:#424ede"
   d="m 156.098,473.637 c 31.446,0 61.015,-12.248 83.25,-34.484 0.006,-0.005 0.009,-0.011 0.016,-0.017 L 305.95,372.55 c 9.196,-9.194 9.196,-24.104 0,-33.3 -9.194,-9.196 -24.104,-9.196 -33.3,0 l -66.589,66.589 c -0.005,0.005 -0.009,0.009 -0.016,0.014 -13.34,13.342 -31.079,20.69 -49.946,20.69 -18.871,0 -36.608,-7.348 -49.951,-20.69 -27.542,-27.544 -27.542,-72.36 0,-99.904 l 66.6,-66.6 c 9.196,-9.194 9.196,-24.104 0,-33.3 -9.194,-9.196 -24.104,-9.196 -33.3,0 l -66.6,66.6 c -45.904,45.904 -45.904,120.597 0,166.504 22.236,22.237 51.802,34.484 83.25,34.484 z"
   id="path1146"
   inkscape:connector-curvature="0" />
	<path
   style="fill:#424ede"
   d="m 439.15,72.847 c -22.235,-22.236 -51.8,-34.484 -83.248,-34.484 -0.002,0 0.002,0 -0.002,0 -31.446,0 -61.013,12.248 -83.25,34.484 -0.002,0.002 -0.002,0.002 -0.002,0.002 0,0 0,0 -0.002,0.002 l -66.6,66.6 c -9.196,9.194 -9.196,24.104 0,33.3 4.598,4.598 10.624,6.898 16.649,6.898 6.026,0 12.053,-2.3 16.649,-6.898 l 66.6,-66.6 c 0.002,-0.002 0.002,-0.002 0.002,-0.002 0,0 0,0 0.002,-0.002 13.342,-13.342 31.082,-20.69 49.951,-20.69 18.869,0 36.606,7.348 49.948,20.69 27.544,27.544 27.544,72.36 0,99.904 l -66.6,66.6 c -9.196,9.196 -9.196,24.104 0,33.3 4.598,4.598 10.624,6.898 16.649,6.898 6.026,0 12.053,-2.3 16.649,-6.898 l 66.6,-66.6 c 45.911,-45.906 45.911,-120.6 0.005,-166.504 z"
   id="path1148"
   inkscape:connector-curvature="0" />
</g>
<g
   id="g1156"
   transform="scale(0.02929688)">
	<path
   style="fill:#6e76e5"
   d="m 72.847,439.155 c 22.238,22.235 51.803,34.482 83.251,34.482 31.446,0 61.015,-12.248 83.25,-34.484 0.006,-0.005 0.009,-0.011 0.016,-0.017 L 305.95,372.55 c 9.196,-9.194 9.196,-24.104 0,-33.3 -9.194,-9.196 -24.104,-9.196 -33.3,0 l -66.589,66.589 c -0.005,0.005 -0.009,0.009 -0.016,0.014 -13.34,13.342 -31.079,20.69 -49.946,20.69 -18.871,0 -36.608,-7.348 -49.951,-20.69 -0.165,-0.165 -0.316,-0.337 -0.477,-0.502 l -33.3,33.3 c 0.162,0.166 0.311,0.339 0.476,0.504 z"
   id="path1152"
   inkscape:connector-curvature="0" />
	<path
   style="fill:#6e76e5"
   d="m 438.649,72.371 -33.3,33.3 c 0.165,0.162 0.337,0.312 0.501,0.477 27.544,27.544 27.544,72.36 0,99.904 l -66.6,66.6 c -9.196,9.194 -9.196,24.104 0,33.3 4.598,4.598 10.624,6.898 16.649,6.898 6.025,0 12.053,-2.3 16.649,-6.898 l 66.6,-66.6 c 45.906,-45.904 45.906,-120.598 0,-166.503 -0.161,-0.166 -0.334,-0.316 -0.499,-0.478 z"
   id="path1154"
   inkscape:connector-curvature="0" />
</g>
<g
   id="g1158"
   transform="translate(-248.5,-248.5)">
</g>
<g
   id="g1160"
   transform="translate(-248.5,-248.5)">
</g>
<g
   id="g1162"
   transform="translate(-248.5,-248.5)">
</g>
<g
   id="g1164"
   transform="translate(-248.5,-248.5)">
</g>
<g
   id="g1166"
   transform="translate(-248.5,-248.5)">
</g>
<g
   id="g1168"
   transform="translate(-248.5,-248.5)">
</g>
<g
   id="g1170"
   transform="translate(-248.5,-248.5)">
</g>
<g
   id="g1172"
   transform="translate(-248.5,-248.5)">
</g>
<g
   id="g1174"
   transform="translate(-248.5,-248.5)">
</g>
<g
   id="g1176"
   transform="translate(-248.5,-248.5)">
</g>
<g
   id="g1178"
   transform="translate(-248.5,-248.5)">
</g>
<g
   id="g1180"
   transform="translate(-248.5,-248.5)">
</g>
<g
   id="g1182"
   transform="translate(-248.5,-248.5)">
</g>
<g
   id="g1184"
   transform="translate(-248.5,-248.5)">
</g>
<g
   id="g1186"
   transform="translate(-248.5,-248.5)">
</g>
</svg>