<?xml version="1.0" encoding="UTF-8" standalone="no"?>
<!-- Generator: Adobe Illustrator 16.0.0, SVG Export Plug-In . SVG Version: 6.00 Build 0)  -->

<svg
   xmlns:dc="http://purl.org/dc/elements/1.1/"
   xmlns:cc="http://creativecommons.org/ns#"
   xmlns:rdf="http://www.w3.org/1999/02/22-rdf-syntax-ns#"
   xmlns:svg="http://www.w3.org/2000/svg"
   xmlns="http://www.w3.org/2000/svg"
   xmlns:sodipodi="http://sodipodi.sourceforge.net/DTD/sodipodi-0.dtd"
   xmlns:inkscape="http://www.inkscape.org/namespaces/inkscape"
   version="1.1"
   id="Capa_1"
   x="0px"
   y="0px"
   width="22"
   height="22.000313"
   viewBox="0 0 4.1223789 4.1224375"
   xml:space="preserve"
   sodipodi:docname="times.svg"
   inkscape:version="0.92.3 (5aff6ba, 2018-11-25)"><metadata
   id="metadata4347"><rdf:RDF><cc:Work
       rdf:about=""><dc:format>image/svg+xml</dc:format><dc:type
         rdf:resource="http://purl.org/dc/dcmitype/StillImage" /><dc:title></dc:title></cc:Work></rdf:RDF></metadata><defs
   id="defs4345" /><sodipodi:namedview
   pagecolor="#ffffff"
   bordercolor="#666666"
   borderopacity="1"
   objecttolerance="10"
   gridtolerance="10"
   guidetolerance="10"
   inkscape:pageopacity="0"
   inkscape:pageshadow="2"
   inkscape:window-width="1871"
   inkscape:window-height="1025"
   id="namedview4343"
   showgrid="false"
   fit-margin-top="1"
   fit-margin-left="1"
   fit-margin-right="1"
   fit-margin-bottom="1"
   inkscape:zoom="5.2149125"
   inkscape:cx="3.7434058"
   inkscape:cy="2.8785736"
   inkscape:window-x="49"
   inkscape:window-y="27"
   inkscape:window-maximized="1"
   inkscape:current-layer="Capa_1" />
<g
   id="g4310"
   transform="matrix(0.03906311,0,0,0.03906311,0.18733203,0.18738086)">
	<path
   d="M 62.819,47.97 95.352,15.436 c 0.781,-0.781 0.781,-2.047 0,-2.828 L 83.333,0.586 C 82.958,0.211 82.448,0 81.919,0 81.389,0 80.88,0.211 80.505,0.586 L 47.97,33.121 15.435,0.586 c -0.75,-0.75 -2.078,-0.75 -2.828,0 L 0.587,12.608 c -0.781,0.781 -0.781,2.047 0,2.828 L 33.121,47.97 0.587,80.504 c -0.781,0.781 -0.781,2.047 0,2.828 l 12.02,12.021 c 0.375,0.375 0.884,0.586 1.414,0.586 0.53,0 1.039,-0.211 1.414,-0.586 L 47.97,62.818 80.505,95.353 c 0.375,0.375 0.884,0.586 1.414,0.586 0.529,0 1.039,-0.211 1.414,-0.586 l 12.02,-12.021 c 0.781,-0.781 0.781,-2.048 0,-2.828 z"
   id="path4308"
   inkscape:connector-curvature="0"
   style="fill:#0e86fe" />
</g>
<g
   id="g4312"
   transform="translate(-45.908811,-45.908281)">
</g>
<g
   id="g4314"
   transform="translate(-45.908811,-45.908281)">
</g>
<g
   id="g4316"
   transform="translate(-45.908811,-45.908281)">
</g>
<g
   id="g4318"
   transform="translate(-45.908811,-45.908281)">
</g>
<g
   id="g4320"
   transform="translate(-45.908811,-45.908281)">
</g>
<g
   id="g4322"
   transform="translate(-45.908811,-45.908281)">
</g>
<g
   id="g4324"
   transform="translate(-45.908811,-45.908281)">
</g>
<g
   id="g4326"
   transform="translate(-45.908811,-45.908281)">
</g>
<g
   id="g4328"
   transform="translate(-45.908811,-45.908281)">
</g>
<g
   id="g4330"
   transform="translate(-45.908811,-45.908281)">
</g>
<g
   id="g4332"
   transform="translate(-45.908811,-45.908281)">
</g>
<g
   id="g4334"
   transform="translate(-45.908811,-45.908281)">
</g>
<g
   id="g4336"
   transform="translate(-45.908811,-45.908281)">
</g>
<g
   id="g4338"
   transform="translate(-45.908811,-45.908281)">
</g>
<g
   id="g4340"
   transform="translate(-45.908811,-45.908281)">
</g>
</svg>