<?xml version="1.0" encoding="UTF-8" standalone="no"?>
<!-- Generator: Adobe Illustrator 19.0.0, SVG Export Plug-In . SVG Version: 6.00 Build 0)  -->

<svg
   xmlns:dc="http://purl.org/dc/elements/1.1/"
   xmlns:cc="http://creativecommons.org/ns#"
   xmlns:rdf="http://www.w3.org/1999/02/22-rdf-syntax-ns#"
   xmlns:svg="http://www.w3.org/2000/svg"
   xmlns="http://www.w3.org/2000/svg"
   xmlns:sodipodi="http://sodipodi.sourceforge.net/DTD/sodipodi-0.dtd"
   xmlns:inkscape="http://www.inkscape.org/namespaces/inkscape"
   version="1.1"
   id="Capa_1"
   x="0px"
   y="0px"
   viewBox="0 0 22.000041 22.000053"
   xml:space="preserve"
   width="21.999998"
   height="22.00001"
   inkscape:version="0.92.3 (d244b95, 2018-08-02)"
   sodipodi:docname="unfilter.svg"><metadata
     id="metadata3679"><rdf:RDF><cc:Work
         rdf:about=""><dc:format>image/svg+xml</dc:format><dc:type
           rdf:resource="http://purl.org/dc/dcmitype/StillImage" /><dc:title /></cc:Work></rdf:RDF></metadata><defs
     id="defs3677" /><sodipodi:namedview
     pagecolor="#e1e1e1"
     bordercolor="#666666"
     borderopacity="1"
     objecttolerance="10"
     gridtolerance="10"
     guidetolerance="10"
     inkscape:pageopacity="0"
     inkscape:pageshadow="2"
     inkscape:window-width="1871"
     inkscape:window-height="1025"
     id="namedview3675"
     showgrid="false"
     fit-margin-top="1"
     fit-margin-left="1"
     fit-margin-right="1"
     fit-margin-bottom="1"
     inkscape:zoom="29.5"
     inkscape:cx="0.76630964"
     inkscape:cy="12.251028"
     inkscape:window-x="49"
     inkscape:window-y="27"
     inkscape:window-maximized="1"
     inkscape:current-layer="Capa_1" /><path
     d="M 20.940536,1.482268 C 20.819599,1.1903537 20.534716,1.000002 20.218778,1.000002 H 1.7813029 c -0.3159768,0 -0.6008599,0.1903517 -0.7217975,0.482266 -0.12093756,0.2919533 -0.054102,0.6279692 0.1693361,0.8514069 L 8.3061516,9.410985 v 10.807782 c 0,0.315977 0.1903517,0.60086 0.4823051,0.721797 0.2920315,0.120938 0.6280473,0.05402 0.8514069,-0.169336 L 13.465101,16.94603 c 0.146484,-0.146485 0.228789,-0.345235 0.228789,-0.552422 V 9.410985 L 20.7712,2.3336749 C 20.994638,2.1102372 21.061474,1.7742213 20.940536,1.482268 z M 12.360178,8.5349687 C 12.213694,8.6814532 12.131389,8.8802034 12.131389,9.087391 v 6.982544 L 9.8686528,18.332632 V 9.087391 c 0,-0.2071876 -0.082305,-0.4059378 -0.2287892,-0.5524223 L 3.6673981,2.5625032 H 18.332683 l -5.972505,5.9724655 z"
     id="path3643"
     inkscape:connector-curvature="0"
     style="fill:#ffffff" /><g
     id="g3645"
     transform="translate(-244.99998,-245.0004)" /><g
     id="g3647"
     transform="translate(-244.99998,-245.0004)" /><g
     id="g3649"
     transform="translate(-244.99998,-245.0004)" /><g
     id="g3651"
     transform="translate(-244.99998,-245.0004)" /><g
     id="g3653"
     transform="translate(-244.99998,-245.0004)" /><g
     id="g3655"
     transform="translate(-244.99998,-245.0004)" /><g
     id="g3657"
     transform="translate(-244.99998,-245.0004)" /><g
     id="g3659"
     transform="translate(-244.99998,-245.0004)" /><g
     id="g3661"
     transform="translate(-244.99998,-245.0004)" /><g
     id="g3663"
     transform="translate(-244.99998,-245.0004)" /><g
     id="g3665"
     transform="translate(-244.99998,-245.0004)" /><g
     id="g3667"
     transform="translate(-244.99998,-245.0004)" /><g
     id="g3669"
     transform="translate(-244.99998,-245.0004)" /><g
     id="g3671"
     transform="translate(-244.99998,-245.0004)" /><g
     id="g3673"
     transform="translate(-244.99998,-245.0004)" /><path
     style="fill:#ff0000"
     d="m 14.043049,19.290478 c -0.31147,-0.37222 -0.404443,-0.531136 -0.349056,-0.596628 0.04152,-0.04909 0.630179,-0.56223 1.308125,-1.140293 0.677943,-0.578064 1.234589,-1.071544 1.236989,-1.096623 0.0024,-0.02509 -0.336283,-0.481733 -0.752627,-1.014783 l -0.756989,-0.969185 0.241051,-0.217451 c 0.132572,-0.119599 0.386203,-0.321559 0.563616,-0.448799 l 0.322565,-0.231343 0.748806,0.976565 0.748808,0.976566 0.187533,-0.171427 c 0.103143,-0.09428 0.657615,-0.574569 1.232162,-1.067302 l 1.04463,-0.895878 0.457475,0.503295 c 0.251611,0.276811 0.458351,0.521967 0.45942,0.544793 0.0011,0.02283 -0.550371,0.512097 -1.225431,1.087267 -0.675058,0.57517 -1.229294,1.078383 -1.231635,1.11825 -0.0022,0.03986 0.305344,0.472611 0.683744,0.961657 0.378403,0.489044 0.688005,0.91728 0.688005,0.951636 0,0.03435 -0.24286,0.245252 -0.539685,0.468663 l -0.539684,0.406199 -0.696036,-0.904808 c -0.382821,-0.497645 -0.718931,-0.90411 -0.746913,-0.903256 -0.02798,8.4e-4 -0.615253,0.490124 -1.305043,1.087267 -0.689789,0.597142 -1.276911,1.085099 -1.304719,1.084346 -0.02781,-7.7e-4 -0.241606,-0.22968 -0.475111,-0.508728 l 0,0 z"
     id="path4475"
     inkscape:connector-curvature="0" /><path
     transform="scale(1.000002)"
     inkscape:connector-curvature="0"
     id="path3812"
     d="M 8.8178066,20.942269 C 8.6472788,20.87985 8.4712276,20.713807 8.3900334,20.538812 8.3295754,20.408509 8.3270917,20.188947 8.3263761,14.911633 L 8.3256317,9.4200476 4.7471076,5.8438365 C 2.6221925,3.720295 1.1390264,2.2125472 1.0958191,2.1320324 0.98432305,1.9242648 0.99220034,1.6039822 1.113898,1.3969594 1.1652412,1.3096184 1.2540578,1.2048269 1.3112683,1.1640894 1.5595376,0.98730614 1.0315739,0.99643916 11.002833,0.99643916 c 8.117647,0 9.297834,0.006307 9.4466,0.050486 0.225997,0.067114 0.436816,0.278527 0.504279,0.5057006 0.06233,0.2098839 0.06211,0.2369374 -0.0037,0.4630845 -0.05225,0.1795973 -0.142158,0.2727833 -3.661017,3.7946563 l -3.607448,3.610538 -7.46e-4,3.5759024 c -7.12e-4,3.421473 -0.0035,3.581759 -0.06415,3.711497 -0.04316,0.09231 -0.71651,0.785769 -2.109425,2.172427 -1.7597031,1.7518 -2.0655489,2.042353 -2.1855496,2.076271 -0.180921,0.05114 -0.3363481,0.04659 -0.5038922,-0.01473 z m 2.1937954,-3.733965 1.109314,-1.11017 0.0091,-3.59322 c 0.0086,-3.3669298 0.01295,-3.6017599 0.06976,-3.7288138 0.04308,-0.096347 0.940759,-1.016177 3.101438,-3.1779661 L 18.342068,2.5557612 H 11.003599 3.6651307 L 6.688794,5.5811849 c 2.3436136,2.3449777 3.0390821,3.0597319 3.092218,3.1779661 0.067733,0.1507143 0.068563,0.2089132 0.069299,4.855932 4.102e-4,2.586865 0.012272,4.70339 0.026361,4.70339 0.014089,0 0.524807,-0.499576 1.13493,-1.110169 z"
     style="stroke-width:0.03389831;fill:none;opacity:1" /><path
     style="fill:#0e86fe;stroke-width:0.03389831;fill-opacity:1"
     d="M 8.8178066,20.942269 C 8.6472788,20.87985 8.4712276,20.713807 8.3900334,20.538812 8.3295754,20.408509 8.3270917,20.188947 8.3263761,14.911633 L 8.3256317,9.4200476 4.7471076,5.8438365 C 2.6221925,3.720295 1.1390264,2.2125472 1.0958191,2.1320324 0.98432305,1.9242648 0.99220034,1.6039822 1.113898,1.3969594 1.1652412,1.3096184 1.2540578,1.2048269 1.3112683,1.1640894 1.5595376,0.98730614 1.0315739,0.99643916 11.002833,0.99643916 c 8.117647,0 9.297834,0.006307 9.4466,0.050486 0.225997,0.067114 0.436816,0.278527 0.504279,0.5057006 0.06233,0.2098839 0.06211,0.2369374 -0.0037,0.4630845 -0.05225,0.1795973 -0.142158,0.2727833 -3.661017,3.7946563 l -3.607448,3.610538 -7.46e-4,3.5759024 c -7.12e-4,3.421473 -0.0035,3.581759 -0.06415,3.711497 -0.04316,0.09231 -0.71651,0.785769 -2.109425,2.172427 -1.7597031,1.7518 -2.0655489,2.042353 -2.1855496,2.076271 -0.180921,0.05114 -0.3363481,0.04659 -0.5038922,-0.01473 z m 2.1937954,-3.733965 1.109314,-1.11017 0.0091,-3.59322 c 0.0086,-3.3669298 0.01295,-3.6017599 0.06976,-3.7288138 0.04308,-0.096347 0.940759,-1.016177 3.101438,-3.1779661 L 18.342068,2.5557612 H 11.003599 3.6651307 L 6.688794,5.5811849 c 2.3436136,2.3449777 3.0390821,3.0597319 3.092218,3.1779661 0.067733,0.1507143 0.068563,0.2089132 0.069299,4.855932 4.102e-4,2.586865 0.012272,4.70339 0.026361,4.70339 0.014089,0 0.524807,-0.499576 1.13493,-1.110169 z"
     id="path3837"
     inkscape:connector-curvature="0"
     transform="scale(1.000002)" /></svg>